%TF.GenerationSoftware,KiCad,Pcbnew,10.0.6*%
%TF.CreationDate,2026-10-08T10:13:52+01:00*%
%TF.ProjectId,Issue4B,49737375-6534-4422-9e6b-696361645f70,4B*%
%TF.SameCoordinates,Original*%
%TF.FileFunction,Legend,Bot*%
%TF.FilePolarity,Positive*%
%FSLAX46Y46*%
G04 Gerber Fmt 4.6, Leading zero omitted, Abs format (unit mm)*
G04 Created by KiCad (PCBNEW 10.0.6) date 2026-10-08 10:13:52*
%MOMM*%
%LPD*%
G01*
G04 APERTURE LIST*
%ADD10C,0.222000*%
%ADD11C,0.150000*%
%ADD12C,0.508000*%
G04 APERTURE END LIST*
D10*
X157936000Y-27351600D02*
X157469400Y-28596000D01*
X158216000Y-28129300D02*
X157656000Y-28129300D01*
X158402700Y-28596000D02*
X157936000Y-27351600D01*
X158838300Y-27351600D02*
X158838300Y-28596000D01*
X159305000Y-27818200D02*
X158838300Y-27351600D01*
X231657700Y-27605600D02*
X231191100Y-28850000D01*
X231937700Y-28383300D02*
X231377700Y-28383300D01*
X232124400Y-28850000D02*
X231657700Y-27605600D01*
X232560000Y-27838900D02*
X232560000Y-27994400D01*
X232560000Y-27994400D02*
X232653400Y-28150000D01*
X232560000Y-28461100D02*
X232560000Y-28616700D01*
X232560000Y-28616700D02*
X232653400Y-28772200D01*
X232653400Y-27683300D02*
X232560000Y-27838900D01*
X232653400Y-28150000D02*
X232840000Y-28227800D01*
X232653400Y-28305600D02*
X232560000Y-28461100D01*
X232653400Y-28772200D02*
X232840000Y-28850000D01*
X232840000Y-27605600D02*
X232653400Y-27683300D01*
X232840000Y-28227800D02*
X232653400Y-28305600D01*
X232840000Y-28227800D02*
X233026700Y-28227800D01*
X232840000Y-28850000D02*
X233026700Y-28850000D01*
X233026700Y-27605600D02*
X232840000Y-27605600D01*
X233026700Y-28227800D02*
X233213400Y-28150000D01*
X233026700Y-28850000D02*
X233213400Y-28772200D01*
X233213400Y-27683300D02*
X233026700Y-27605600D01*
X233213400Y-28150000D02*
X233306700Y-27994400D01*
X233213400Y-28305600D02*
X233026700Y-28227800D01*
X233213400Y-28772200D02*
X233306700Y-28616700D01*
X233306700Y-27838900D02*
X233213400Y-27683300D01*
X233306700Y-27994400D02*
X233306700Y-27838900D01*
X233306700Y-28461100D02*
X233213400Y-28305600D01*
X233306700Y-28616700D02*
X233306700Y-28461100D01*
X233742300Y-27838900D02*
X233835700Y-27683300D01*
X233742300Y-27994400D02*
X233742300Y-27838900D01*
X233742300Y-28850000D02*
X234489000Y-28850000D01*
X233835700Y-27683300D02*
X234022300Y-27605600D01*
X233835700Y-28150000D02*
X233742300Y-27994400D01*
X234022300Y-27605600D02*
X234209000Y-27605600D01*
X234209000Y-27605600D02*
X234395700Y-27683300D01*
X234395700Y-27683300D02*
X234489000Y-27838900D01*
X234395700Y-28616700D02*
X233835700Y-28150000D01*
X234489000Y-28772200D02*
X234395700Y-28616700D01*
X234489000Y-28850000D02*
X234489000Y-28772200D01*
D11*
X209190285Y-115054819D02*
X209761713Y-115054819D01*
X209475999Y-115054819D02*
X209475999Y-114054819D01*
X209475999Y-114054819D02*
X209571237Y-114197676D01*
X209571237Y-114197676D02*
X209666475Y-114292914D01*
X209666475Y-114292914D02*
X209761713Y-114340533D01*
X209190285Y-115054819D02*
X209761713Y-115054819D01*
X209475999Y-115054819D02*
X209475999Y-114054819D01*
X209475999Y-114054819D02*
X209571237Y-114197676D01*
X209571237Y-114197676D02*
X209666475Y-114292914D01*
X209666475Y-114292914D02*
X209761713Y-114340533D01*
X230399237Y-114483390D02*
X230494475Y-114435771D01*
X230494475Y-114435771D02*
X230542094Y-114388152D01*
X230542094Y-114388152D02*
X230589713Y-114292914D01*
X230589713Y-114292914D02*
X230589713Y-114245295D01*
X230589713Y-114245295D02*
X230542094Y-114150057D01*
X230542094Y-114150057D02*
X230494475Y-114102438D01*
X230494475Y-114102438D02*
X230399237Y-114054819D01*
X230399237Y-114054819D02*
X230208761Y-114054819D01*
X230208761Y-114054819D02*
X230113523Y-114102438D01*
X230113523Y-114102438D02*
X230065904Y-114150057D01*
X230065904Y-114150057D02*
X230018285Y-114245295D01*
X230018285Y-114245295D02*
X230018285Y-114292914D01*
X230018285Y-114292914D02*
X230065904Y-114388152D01*
X230065904Y-114388152D02*
X230113523Y-114435771D01*
X230113523Y-114435771D02*
X230208761Y-114483390D01*
X230208761Y-114483390D02*
X230399237Y-114483390D01*
X230399237Y-114483390D02*
X230494475Y-114531009D01*
X230494475Y-114531009D02*
X230542094Y-114578628D01*
X230542094Y-114578628D02*
X230589713Y-114673866D01*
X230589713Y-114673866D02*
X230589713Y-114864342D01*
X230589713Y-114864342D02*
X230542094Y-114959580D01*
X230542094Y-114959580D02*
X230494475Y-115007200D01*
X230494475Y-115007200D02*
X230399237Y-115054819D01*
X230399237Y-115054819D02*
X230208761Y-115054819D01*
X230208761Y-115054819D02*
X230113523Y-115007200D01*
X230113523Y-115007200D02*
X230065904Y-114959580D01*
X230065904Y-114959580D02*
X230018285Y-114864342D01*
X230018285Y-114864342D02*
X230018285Y-114673866D01*
X230018285Y-114673866D02*
X230065904Y-114578628D01*
X230065904Y-114578628D02*
X230113523Y-114531009D01*
X230113523Y-114531009D02*
X230208761Y-114483390D01*
X230399237Y-114483390D02*
X230494475Y-114435771D01*
X230494475Y-114435771D02*
X230542094Y-114388152D01*
X230542094Y-114388152D02*
X230589713Y-114292914D01*
X230589713Y-114292914D02*
X230589713Y-114245295D01*
X230589713Y-114245295D02*
X230542094Y-114150057D01*
X230542094Y-114150057D02*
X230494475Y-114102438D01*
X230494475Y-114102438D02*
X230399237Y-114054819D01*
X230399237Y-114054819D02*
X230208761Y-114054819D01*
X230208761Y-114054819D02*
X230113523Y-114102438D01*
X230113523Y-114102438D02*
X230065904Y-114150057D01*
X230065904Y-114150057D02*
X230018285Y-114245295D01*
X230018285Y-114245295D02*
X230018285Y-114292914D01*
X230018285Y-114292914D02*
X230065904Y-114388152D01*
X230065904Y-114388152D02*
X230113523Y-114435771D01*
X230113523Y-114435771D02*
X230208761Y-114483390D01*
X230208761Y-114483390D02*
X230399237Y-114483390D01*
X230399237Y-114483390D02*
X230494475Y-114531009D01*
X230494475Y-114531009D02*
X230542094Y-114578628D01*
X230542094Y-114578628D02*
X230589713Y-114673866D01*
X230589713Y-114673866D02*
X230589713Y-114864342D01*
X230589713Y-114864342D02*
X230542094Y-114959580D01*
X230542094Y-114959580D02*
X230494475Y-115007200D01*
X230494475Y-115007200D02*
X230399237Y-115054819D01*
X230399237Y-115054819D02*
X230208761Y-115054819D01*
X230208761Y-115054819D02*
X230113523Y-115007200D01*
X230113523Y-115007200D02*
X230065904Y-114959580D01*
X230065904Y-114959580D02*
X230018285Y-114864342D01*
X230018285Y-114864342D02*
X230018285Y-114673866D01*
X230018285Y-114673866D02*
X230065904Y-114578628D01*
X230065904Y-114578628D02*
X230113523Y-114531009D01*
X230113523Y-114531009D02*
X230208761Y-114483390D01*
%TO.C,KB2*%
D12*
X211381000Y-116505000D02*
G75*
G02*
X210619000Y-116505000I-381000J0D01*
G01*
X210619000Y-116505000D02*
G75*
G02*
X211381000Y-116505000I381000J0D01*
G01*
%TD*%
M02*
