%TF.GenerationSoftware,KiCad,Pcbnew,10.0.6*%
%TF.CreationDate,2026-10-08T10:13:52+01:00*%
%TF.ProjectId,Issue4B,49737375-6534-4422-9e6b-696361645f70,4B*%
%TF.SameCoordinates,Original*%
%TF.FileFunction,Profile,NP*%
%FSLAX46Y46*%
G04 Gerber Fmt 4.6, Leading zero omitted, Abs format (unit mm)*
G04 Created by KiCad (PCBNEW 10.0.6) date 2026-10-08 10:13:52*
%MOMM*%
%LPD*%
G01*
G04 APERTURE LIST*
%TA.AperFunction,Profile*%
%ADD10C,0.305000*%
%TD*%
%TA.AperFunction,Profile*%
%ADD11C,0.100000*%
%TD*%
G04 APERTURE END LIST*
D10*
X43876000Y-26564000D02*
X43876000Y-156612000D01*
X43876000Y-26564000D02*
X169869000Y-26564000D01*
X43876000Y-156612000D02*
X256982000Y-156612000D01*
D11*
X49845000Y-151579000D02*
G75*
G02*
X46543000Y-151579000I-1651000J0D01*
G01*
X46543000Y-151579000D02*
G75*
G02*
X49845000Y-151579000I1651000J0D01*
G01*
X50480000Y-71061000D02*
G75*
G02*
X46162000Y-71061000I-2159000J0D01*
G01*
X46162000Y-71061000D02*
G75*
G02*
X50480000Y-71061000I2159000J0D01*
G01*
X152080000Y-31564000D02*
G75*
G02*
X148778000Y-31564000I-1651000J0D01*
G01*
X148778000Y-31564000D02*
G75*
G02*
X152080000Y-31564000I1651000J0D01*
G01*
X151729000Y-115130000D02*
G75*
G02*
X149129000Y-115130000I-1300000J0D01*
G01*
X149129000Y-115130000D02*
G75*
G02*
X151729000Y-115130000I1300000J0D01*
G01*
D10*
X169869000Y-35073000D02*
X169869000Y-26564000D01*
X169869000Y-35073000D02*
X172400000Y-35073000D01*
X172400000Y-26564000D02*
X172400000Y-35073000D01*
X172400000Y-26564000D02*
X256982000Y-26564000D01*
D11*
X253920000Y-111146000D02*
G75*
G02*
X249602000Y-111146000I-2159000J0D01*
G01*
X249602000Y-111146000D02*
G75*
G02*
X253920000Y-111146000I2159000J0D01*
G01*
X254696000Y-71061000D02*
G75*
G02*
X250378000Y-71061000I-2159000J0D01*
G01*
X250378000Y-71061000D02*
G75*
G02*
X254696000Y-71061000I2159000J0D01*
G01*
X254315000Y-151151000D02*
G75*
G02*
X251013000Y-151151000I-1651000J0D01*
G01*
X251013000Y-151151000D02*
G75*
G02*
X254315000Y-151151000I1651000J0D01*
G01*
D10*
X256982000Y-26564000D02*
X256982000Y-156612000D01*
%TO.C,LS1*%
X241035200Y-141822000D02*
G75*
G02*
X225795200Y-141822000I-7620000J0D01*
G01*
X225795200Y-141822000D02*
G75*
G02*
X241035200Y-141822000I7620000J0D01*
G01*
%TD*%
M02*
