M48
; DRILL file KiCad 10.0.6 date 2026-10-08T10:13:57
; FORMAT={-:-/ absolute / metric / decimal}
; #@! TF.CreationDate,2026-10-08T10:13:57+01:00
; #@! TF.GenerationSoftware,Kicad,Pcbnew,10.0.6
; #@! TF.FileFunction,Plated,1,2,PTH
FMAT,2
METRIC
; #@! TA.AperFunction,Plated,PTH,ComponentDrill
T1C0.700
; #@! TA.AperFunction,Plated,PTH,ComponentDrill
T2C0.750
; #@! TA.AperFunction,Plated,PTH,ViaDrill
T3C0.762
; #@! TA.AperFunction,Plated,PTH,ComponentDrill
T4C0.780
; #@! TA.AperFunction,Plated,PTH,ComponentDrill
T5C0.800
; #@! TA.AperFunction,Plated,PTH,ComponentDrill
T6C0.864
; #@! TA.AperFunction,Plated,PTH,ViaDrill
T7C0.889
; #@! TA.AperFunction,Plated,PTH,ComponentDrill
T8C1.000
; #@! TA.AperFunction,Plated,PTH,ViaDrill
T9C1.001
; #@! TA.AperFunction,Plated,PTH,ViaDrill
T10C1.016
; #@! TA.AperFunction,Plated,PTH,ComponentDrill
T11C1.016
; #@! TA.AperFunction,Plated,PTH,ComponentDrill
T12C1.100
; #@! TA.AperFunction,Plated,PTH,ComponentDrill
T13C1.200
; #@! TA.AperFunction,Plated,PTH,ComponentDrill
T14C1.220
; #@! TA.AperFunction,Plated,PTH,ComponentDrill
T15C1.400
; #@! TA.AperFunction,Plated,PTH,ComponentDrill
T16C1.935
; #@! TA.AperFunction,Plated,PTH,ComponentDrill
T17C2.000
; #@! TA.AperFunction,Plated,PTH,ComponentDrill
T18C2.200
; #@! TA.AperFunction,Plated,PTH,ComponentDrill
T19C3.000
%
G90
G05
T1
X150.0Y-43.1
X150.0Y-55.8
X224.9Y-123.8
X237.6Y-123.8
T2
X62.573Y-66.06
X65.215Y-66.06
X67.831Y-66.06
T3
X49.279Y-65.52
X51.108Y-62.33
X51.8Y-94.01
X61.9Y-94.6
X67.7Y-147.7
X77.8Y-147.8
X81.6Y-62.2
X87.99Y-147.7
X98.1Y-120.0
X98.1Y-147.814
X100.6Y-119.939
X102.5Y-118.7
X102.6Y-105.3
X104.5Y-118.1
X105.7Y-119.95
X108.2Y-147.84
X108.3Y-117.3
X108.3Y-121.9
X114.093Y-121.154
X118.614Y-147.773
X119.6Y-90.2
X128.6Y-147.9
X133.0Y-37.3
X138.6Y-140.3
X200.2Y-52.0
X223.7Y-151.8
T4
X47.13Y-34.79
X47.13Y-37.29
X47.13Y-39.79
T5
X47.32Y-60.7
X47.32Y-63.526
X49.82Y-125.7
X49.82Y-128.24
X49.82Y-130.78
X49.82Y-133.32
X49.82Y-135.86
X49.82Y-138.4
X49.82Y-140.94
X49.82Y-143.48
X49.831Y-121.3
X53.765Y-66.11
X54.372Y-76.1
X54.393Y-68.62
X54.393Y-71.07
X54.393Y-73.56
X54.393Y-83.71
X54.393Y-86.26
X54.393Y-88.78
X54.393Y-91.26
X54.393Y-93.95
X54.393Y-96.46
X54.393Y-98.96
X54.393Y-101.5
X54.393Y-104.0
X54.393Y-106.5
X54.393Y-109.1
X56.381Y-66.11
X57.44Y-125.7
X57.44Y-128.24
X57.44Y-130.78
X57.44Y-133.32
X57.44Y-135.86
X57.44Y-138.4
X57.44Y-140.94
X57.44Y-143.48
X59.023Y-66.11
X59.991Y-147.7
X59.992Y-125.6
X59.992Y-128.14
X59.992Y-130.68
X59.992Y-133.22
X59.992Y-135.76
X59.992Y-138.3
X59.992Y-140.84
X59.992Y-143.38
X60.02Y-60.7
X60.02Y-63.526
X62.5Y-61.0
X62.531Y-121.3
X62.769Y-63.526
X67.072Y-76.1
X67.093Y-68.62
X67.093Y-71.07
X67.093Y-73.56
X67.093Y-83.71
X67.093Y-86.26
X67.093Y-88.78
X67.093Y-91.26
X67.093Y-93.95
X67.093Y-96.46
X67.093Y-98.96
X67.093Y-101.5
X67.093Y-104.0
X67.093Y-106.5
X67.093Y-109.1
X67.612Y-125.6
X67.612Y-128.14
X67.612Y-130.68
X67.612Y-133.22
X67.612Y-135.76
X67.612Y-138.3
X67.612Y-140.84
X67.612Y-143.38
X69.643Y-71.01
X69.643Y-73.55
X69.643Y-76.09
X69.643Y-78.63
X69.643Y-81.17
X69.643Y-83.71
X69.643Y-86.25
X69.643Y-88.79
X69.643Y-91.33
X70.131Y-121.2
X70.186Y-125.6
X70.186Y-128.14
X70.186Y-130.68
X70.186Y-133.22
X70.186Y-135.76
X70.186Y-138.3
X70.186Y-140.84
X70.186Y-143.38
X72.691Y-147.7
X75.2Y-61.0
X75.469Y-63.526
X77.263Y-71.01
X77.263Y-73.55
X77.263Y-76.09
X77.263Y-78.63
X77.263Y-81.17
X77.263Y-83.71
X77.263Y-86.25
X77.263Y-88.79
X77.263Y-91.33
X77.7Y-60.94
X77.7Y-63.46
X77.7Y-66.01
X77.7Y-68.46
X77.806Y-125.6
X77.806Y-128.14
X77.806Y-130.68
X77.806Y-133.22
X77.806Y-135.76
X77.806Y-138.3
X77.806Y-140.84
X77.806Y-143.38
X79.7Y-71.0
X79.7Y-73.54
X79.7Y-76.08
X79.7Y-78.71
X79.7Y-83.71
X79.7Y-86.25
X79.7Y-88.86
X79.7Y-91.32
X79.7Y-93.899
X79.7Y-96.57
X79.714Y-81.12
X79.8Y-108.4
X79.8Y-111.1
X79.8Y-113.7
X80.3Y-147.8
X80.371Y-125.6
X80.371Y-128.14
X80.371Y-130.68
X80.371Y-133.22
X80.371Y-135.76
X80.371Y-138.3
X80.371Y-140.84
X80.371Y-143.38
X82.33Y-81.12
X82.831Y-121.2
X84.972Y-81.12
X87.991Y-125.6
X87.991Y-128.14
X87.991Y-130.68
X87.991Y-133.22
X87.991Y-135.76
X87.991Y-138.3
X87.991Y-140.84
X87.991Y-143.38
X90.4Y-60.94
X90.4Y-63.46
X90.4Y-66.01
X90.4Y-68.46
X90.508Y-121.2
X90.564Y-125.6
X90.564Y-128.14
X90.564Y-130.68
X90.564Y-133.22
X90.564Y-135.76
X90.564Y-138.3
X90.564Y-140.84
X90.564Y-143.38
X92.4Y-71.0
X92.4Y-73.54
X92.4Y-76.08
X92.4Y-78.71
X92.4Y-83.71
X92.4Y-86.25
X92.4Y-88.86
X92.4Y-91.32
X92.4Y-93.899
X92.4Y-96.57
X92.5Y-108.4
X92.5Y-111.1
X92.5Y-113.7
X93.0Y-147.8
X94.0Y-39.3
X94.0Y-51.7
X95.5Y-86.23
X95.5Y-88.8
X95.5Y-91.4
X95.5Y-93.9
X95.5Y-96.5
X95.648Y-111.7
X95.655Y-81.188
X95.665Y-104.2
X95.665Y-106.7
X95.673Y-101.5
X95.676Y-109.1
X95.697Y-98.93
X95.726Y-74.74
X96.4Y-39.3
X96.4Y-51.7
X98.184Y-125.6
X98.184Y-128.14
X98.184Y-130.68
X98.184Y-133.22
X98.184Y-135.76
X98.184Y-138.3
X98.184Y-140.84
X98.184Y-143.38
X98.2Y-78.572
X98.2Y-81.188
X98.2Y-83.83
X99.0Y-39.3
X99.0Y-51.7
X100.791Y-125.6
X100.791Y-128.14
X100.791Y-130.68
X100.791Y-133.22
X100.791Y-135.76
X100.791Y-138.3
X100.791Y-140.84
X100.791Y-143.38
X100.807Y-147.8
X101.8Y-39.3
X101.8Y-51.7
X103.208Y-121.2
X104.3Y-39.3
X104.3Y-51.7
X105.727Y-78.5
X105.727Y-81.142
X105.727Y-83.758
X106.8Y-39.3
X106.8Y-51.7
X108.2Y-86.23
X108.2Y-88.8
X108.2Y-91.4
X108.2Y-93.9
X108.2Y-96.5
X108.272Y-81.142
X108.348Y-111.7
X108.365Y-104.2
X108.365Y-106.7
X108.373Y-101.5
X108.376Y-109.1
X108.397Y-98.93
X108.411Y-125.6
X108.411Y-128.14
X108.411Y-130.68
X108.411Y-133.22
X108.411Y-135.76
X108.411Y-138.3
X108.411Y-140.84
X108.411Y-143.38
X108.426Y-74.74
X109.5Y-39.3
X109.5Y-51.7
X110.7Y-66.0
X110.7Y-68.54
X110.7Y-71.08
X110.7Y-73.62
X110.7Y-76.16
X110.7Y-78.7
X110.7Y-81.24
X110.7Y-83.78
X110.7Y-86.32
X110.7Y-88.86
X110.7Y-91.4
X110.7Y-93.94
X110.7Y-96.48
X110.7Y-99.02
X110.7Y-101.56
X110.7Y-104.1
X110.7Y-106.64
X110.7Y-109.18
X110.7Y-111.72
X110.7Y-114.26
X110.849Y-121.3
X110.982Y-125.6
X110.982Y-128.14
X110.982Y-130.68
X110.982Y-133.22
X110.982Y-135.76
X110.982Y-138.3
X110.982Y-140.84
X110.982Y-143.38
X112.36Y-41.4
X112.36Y-44.2
X112.36Y-46.7
X112.36Y-49.0
X112.36Y-51.7
X112.36Y-54.3
X112.36Y-56.9
X112.36Y-59.5
X112.36Y-62.0
X113.507Y-147.8
X118.602Y-125.6
X118.602Y-128.14
X118.602Y-130.68
X118.602Y-133.22
X118.602Y-135.76
X118.602Y-138.3
X118.602Y-140.84
X118.602Y-143.38
X121.023Y-147.8
X121.191Y-125.6
X121.191Y-128.14
X121.191Y-130.68
X121.191Y-133.22
X121.191Y-135.76
X121.191Y-138.3
X121.191Y-140.84
X121.191Y-143.38
X123.549Y-121.3
X125.06Y-41.4
X125.06Y-44.2
X125.06Y-46.7
X125.06Y-49.0
X125.06Y-51.7
X125.06Y-54.3
X125.06Y-56.9
X125.06Y-59.5
X125.06Y-62.0
X125.94Y-66.0
X125.94Y-68.54
X125.94Y-71.08
X125.94Y-73.62
X125.94Y-76.16
X125.94Y-78.7
X125.94Y-81.24
X125.94Y-83.78
X125.94Y-86.32
X125.94Y-88.86
X125.94Y-91.4
X125.94Y-93.94
X125.94Y-96.48
X125.94Y-99.02
X125.94Y-101.56
X125.94Y-104.1
X125.94Y-106.64
X125.94Y-109.18
X125.94Y-111.72
X125.94Y-114.26
X128.6Y-96.32
X128.6Y-98.87
X128.6Y-101.4
X128.6Y-103.9
X128.6Y-106.5
X128.6Y-109.0
X128.6Y-111.6
X128.6Y-114.1
X128.6Y-116.6
X128.6Y-119.2
X128.811Y-125.6
X128.811Y-128.14
X128.811Y-130.68
X128.811Y-133.22
X128.811Y-135.76
X128.811Y-138.3
X128.811Y-140.84
X128.811Y-143.38
X133.723Y-147.8
X137.4Y-43.1
X137.4Y-45.64
X137.4Y-48.18
X137.4Y-50.72
X137.4Y-53.26
X137.4Y-55.8
X137.4Y-58.34
X137.4Y-60.88
X138.6Y-125.7
X138.6Y-128.2
X138.6Y-130.8
X138.6Y-133.3
X139.3Y-68.6
X139.3Y-71.14
X139.3Y-73.68
X139.3Y-76.22
X139.3Y-78.76
X139.3Y-81.3
X139.3Y-83.84
X139.3Y-86.38
X141.3Y-96.32
X141.3Y-98.87
X141.3Y-101.4
X141.3Y-103.9
X141.3Y-106.5
X141.3Y-109.0
X141.3Y-111.6
X141.3Y-114.1
X141.3Y-116.6
X141.3Y-119.2
X145.0Y-97.9
X145.0Y-100.4
X145.0Y-102.9
X145.0Y-105.5
X145.0Y-107.9
X145.0Y-110.6
X145.02Y-43.1
X145.02Y-45.64
X145.02Y-48.18
X145.02Y-50.72
X145.02Y-53.26
X145.02Y-55.8
X145.02Y-58.34
X145.02Y-60.88
X146.2Y-120.1
X146.92Y-68.6
X146.92Y-71.14
X146.92Y-73.68
X146.92Y-76.22
X146.92Y-78.76
X146.92Y-81.3
X146.92Y-83.84
X146.92Y-86.38
X151.3Y-125.7
X151.3Y-128.2
X151.3Y-130.8
X151.3Y-133.3
X152.6Y-43.1
X152.6Y-45.64
X152.6Y-48.18
X152.6Y-50.72
X152.6Y-53.26
X152.6Y-55.8
X152.6Y-58.34
X152.6Y-60.88
X152.6Y-68.6
X152.6Y-71.14
X152.6Y-73.68
X152.6Y-76.22
X152.6Y-78.76
X152.6Y-81.3
X152.6Y-83.84
X152.8Y-147.8
X155.2Y-125.6
X155.2Y-128.14
X155.2Y-130.68
X155.2Y-133.22
X155.2Y-135.76
X155.2Y-138.3
X155.2Y-140.84
X155.2Y-143.38
X157.7Y-97.9
X157.7Y-100.4
X157.7Y-102.9
X157.7Y-105.5
X157.7Y-107.9
X157.7Y-110.6
X158.9Y-120.1
X160.22Y-43.1
X160.22Y-45.64
X160.22Y-48.18
X160.22Y-50.72
X160.22Y-53.26
X160.22Y-55.8
X160.22Y-58.34
X160.22Y-60.88
X160.22Y-68.6
X160.22Y-71.14
X160.22Y-73.68
X160.22Y-76.22
X160.22Y-78.76
X160.22Y-81.3
X160.22Y-83.84
X160.3Y-97.9
X160.3Y-100.44
X160.3Y-102.98
X160.3Y-105.52
X160.3Y-108.06
X160.3Y-110.6
X160.3Y-113.14
X160.3Y-115.68
X161.5Y-120.1
X162.8Y-39.2
X162.82Y-125.6
X162.82Y-128.14
X162.82Y-130.68
X162.82Y-133.22
X162.82Y-135.76
X162.82Y-138.3
X162.82Y-140.84
X162.82Y-143.38
X163.9Y-49.907
X163.9Y-52.523
X163.9Y-55.164
X165.3Y-125.6
X165.3Y-128.14
X165.3Y-130.68
X165.3Y-133.22
X165.3Y-135.76
X165.3Y-138.3
X165.3Y-140.84
X165.3Y-143.38
X165.5Y-147.8
X167.7Y-43.07
X167.7Y-45.61
X167.7Y-48.15
X167.7Y-50.69
X167.7Y-53.23
X167.7Y-55.77
X167.7Y-58.31
X167.7Y-60.85
X167.9Y-68.47
X167.9Y-71.01
X167.9Y-73.55
X167.9Y-76.09
X167.9Y-78.63
X167.9Y-81.17
X167.9Y-83.71
X167.92Y-97.9
X167.92Y-100.44
X167.92Y-102.98
X167.92Y-105.52
X167.92Y-108.06
X167.92Y-110.6
X167.92Y-113.14
X167.92Y-115.68
X168.0Y-147.8
X170.4Y-97.9
X170.4Y-100.44
X170.4Y-102.98
X170.4Y-105.52
X170.4Y-108.06
X170.4Y-110.6
X170.4Y-113.14
X170.4Y-115.68
X172.92Y-125.6
X172.92Y-128.14
X172.92Y-130.68
X172.92Y-133.22
X172.92Y-135.76
X172.92Y-138.3
X172.92Y-140.84
X172.92Y-143.38
X174.2Y-120.1
X175.32Y-43.07
X175.32Y-45.61
X175.32Y-48.15
X175.32Y-50.69
X175.32Y-53.23
X175.32Y-55.77
X175.32Y-58.31
X175.32Y-60.85
X175.4Y-125.6
X175.4Y-128.14
X175.4Y-130.68
X175.4Y-133.22
X175.4Y-135.76
X175.4Y-138.3
X175.4Y-140.84
X175.4Y-143.38
X175.5Y-39.2
X175.52Y-68.47
X175.52Y-71.01
X175.52Y-73.55
X175.52Y-76.09
X175.52Y-78.63
X175.52Y-81.17
X175.52Y-83.71
X176.9Y-120.1
X178.02Y-97.9
X178.02Y-100.44
X178.02Y-102.98
X178.02Y-105.52
X178.02Y-108.06
X178.02Y-110.6
X178.02Y-113.14
X178.02Y-115.68
X180.5Y-97.9
X180.5Y-100.44
X180.5Y-102.98
X180.5Y-105.52
X180.5Y-108.06
X180.5Y-110.6
X180.5Y-113.14
X180.5Y-115.68
X180.7Y-147.8
X183.0Y-147.8
X183.02Y-125.6
X183.02Y-128.14
X183.02Y-130.68
X183.02Y-133.22
X183.02Y-135.76
X183.02Y-138.3
X183.02Y-140.84
X183.02Y-143.38
X183.1Y-43.2
X183.1Y-45.74
X183.1Y-48.28
X183.1Y-50.82
X183.1Y-53.36
X183.1Y-55.9
X183.1Y-58.44
X183.1Y-60.98
X183.1Y-63.52
X183.1Y-66.06
X183.1Y-68.6
X183.1Y-71.14
X183.1Y-73.68
X183.1Y-76.22
X183.1Y-78.76
X183.1Y-81.3
X183.1Y-83.84
X183.1Y-86.38
X183.1Y-88.92
X183.1Y-91.46
X185.6Y-125.6
X185.6Y-128.14
X185.6Y-130.68
X185.6Y-133.22
X185.6Y-135.76
X185.6Y-138.3
X185.6Y-140.84
X185.6Y-143.38
X188.12Y-97.9
X188.12Y-100.44
X188.12Y-102.98
X188.12Y-105.52
X188.12Y-108.06
X188.12Y-110.6
X188.12Y-113.14
X188.12Y-115.68
X189.6Y-120.1
X190.6Y-97.9
X190.6Y-100.44
X190.6Y-102.98
X190.6Y-105.52
X190.6Y-108.06
X190.6Y-110.6
X190.6Y-113.14
X190.6Y-115.68
X191.7Y-120.0
X193.22Y-125.6
X193.22Y-128.14
X193.22Y-130.68
X193.22Y-133.22
X193.22Y-135.76
X193.22Y-138.3
X193.22Y-140.84
X193.22Y-143.38
X195.7Y-147.8
X198.22Y-97.9
X198.22Y-100.44
X198.22Y-102.98
X198.22Y-105.52
X198.22Y-108.06
X198.22Y-110.6
X198.22Y-113.14
X198.22Y-115.68
X198.34Y-43.2
X198.34Y-45.74
X198.34Y-48.28
X198.34Y-50.82
X198.34Y-53.36
X198.34Y-55.9
X198.34Y-58.44
X198.34Y-60.98
X198.34Y-63.52
X198.34Y-66.06
X198.34Y-68.6
X198.34Y-71.14
X198.34Y-73.68
X198.34Y-76.22
X198.34Y-78.76
X198.34Y-81.3
X198.34Y-83.84
X198.34Y-86.38
X198.34Y-88.92
X198.34Y-91.46
X204.4Y-120.0
X205.8Y-43.1
X205.8Y-45.64
X205.8Y-48.18
X205.8Y-50.72
X205.8Y-53.26
X205.8Y-55.8
X205.8Y-58.34
X205.8Y-60.88
X205.8Y-63.42
X205.8Y-65.96
X205.8Y-68.5
X205.8Y-71.04
X205.8Y-73.58
X205.8Y-76.12
X209.6Y-120.8
X209.7Y-80.6
X209.7Y-83.1
X209.7Y-85.7
X209.7Y-88.3
X209.7Y-90.8
X209.7Y-93.4
X209.7Y-95.9
X209.7Y-98.5
X209.7Y-100.8
X209.7Y-103.3
X209.7Y-106.0
X209.7Y-108.5
X209.8Y-125.6
X209.8Y-128.2
X209.8Y-130.7
X211.542Y-134.2
X211.7Y-39.26
X214.158Y-134.2
X216.8Y-134.2
X221.04Y-43.1
X221.04Y-45.64
X221.04Y-48.18
X221.04Y-50.72
X221.04Y-53.26
X221.04Y-55.8
X221.04Y-58.34
X221.04Y-60.88
X221.04Y-63.42
X221.04Y-65.96
X221.04Y-68.5
X221.04Y-71.04
X221.04Y-73.58
X221.04Y-76.12
X222.3Y-120.8
X222.4Y-80.6
X222.4Y-83.1
X222.4Y-85.7
X222.4Y-88.3
X222.4Y-90.8
X222.4Y-93.4
X222.4Y-95.9
X222.4Y-98.5
X222.4Y-100.8
X222.4Y-103.3
X222.4Y-106.0
X222.4Y-108.5
X222.5Y-125.6
X222.5Y-128.2
X222.5Y-130.7
X224.4Y-39.26
X224.9Y-126.3
X224.96Y-129.07
X225.0Y-83.8
X225.0Y-88.9
X225.0Y-91.4
X225.0Y-93.9
X225.0Y-102.65
X225.0Y-120.7
X234.3Y-52.6
X234.3Y-65.3
X237.6Y-126.3
X237.66Y-129.07
X237.7Y-83.8
X237.7Y-88.9
X237.7Y-91.4
X237.7Y-93.9
X237.7Y-102.65
X237.7Y-120.7
X237.8Y-111.842
X237.8Y-114.458
X237.8Y-117.1
X240.2Y-81.1
X240.2Y-83.6
X240.2Y-86.3
X240.2Y-88.9
X240.2Y-91.4
X240.2Y-93.9
X240.2Y-102.7
X242.8Y-111.6
X242.8Y-114.242
X242.8Y-116.858
X252.9Y-81.1
X252.9Y-83.6
X252.9Y-86.3
X252.9Y-88.9
X252.9Y-91.4
X252.9Y-93.9
X252.9Y-102.7
T6
X73.82Y-103.195
X76.36Y-103.195
X78.9Y-103.195
X81.44Y-103.195
X83.98Y-103.195
T7
X46.1Y-111.01
X46.77Y-82.19
X46.783Y-102.8
X46.783Y-114.8
X48.51Y-106.99
X49.23Y-112.13
X56.0Y-60.8
X57.705Y-105.304
X57.705Y-113.686
X58.213Y-76.856
X58.213Y-87.524
X59.991Y-71.014
X63.85Y-100.2
X64.563Y-74.824
X65.325Y-113.686
X66.595Y-63.394
X68.881Y-61.108
X70.405Y-67.966
X71.4Y-72.3
X71.675Y-64.664
X72.0Y-93.9
X72.3Y-90.2
X74.59Y-72.4
X74.723Y-98.954
X76.501Y-96.922
X82.2Y-78.1
X82.3Y-67.9
X82.851Y-114.956
X82.9Y-88.286
X83.613Y-112.924
X86.6Y-60.9
X86.661Y-112.924
X86.915Y-110.384
X87.3Y-69.8
X87.3Y-74.8
X87.3Y-87.524
X87.3Y-96.414
X89.8Y-78.634
X89.83Y-116.734
X93.011Y-102.8
X94.25Y-45.5
X98.7Y-98.954
X99.361Y-106.574
X100.5Y-45.5
X100.631Y-92.7
X101.2Y-97.7
X101.2Y-102.8
X101.3Y-100.3
X102.5Y-59.7
X102.5Y-68.6
X103.171Y-131.974
X103.984Y-99.665
X104.441Y-95.144
X104.441Y-111.654
X105.1Y-97.8
X106.2Y-54.1
X109.3Y-57.7
X110.1Y-63.5
X112.823Y-134.514
X114.0Y-76.1
X114.093Y-137.054
X114.093Y-140.864
X114.6Y-86.4
X115.2Y-91.5
X115.8Y-39.3
X115.8Y-82.6
X117.1Y-89.0
X117.7Y-80.0
X117.8Y-99.0
X118.4Y-112.4
X119.0Y-101.6
X119.0Y-104.2
X119.173Y-119.274
X119.6Y-30.8
X119.7Y-96.6
X120.3Y-114.3
X120.9Y-67.3
X121.0Y-71.1
X121.0Y-73.6
X121.0Y-94.6
X121.4Y-58.4
X121.6Y-92.2
X121.6Y-101.6
X121.6Y-107.9
X122.1Y-43.0
X122.9Y-137.0
X124.1Y-82.6
X124.1Y-117.5
X124.1Y-125.7
X124.1Y-131.4
X126.0Y-118.2
X126.6Y-55.774
X127.2Y-53.234
X129.1Y-92.8
X130.44Y-62.21
X131.0Y-128.2
X131.6Y-125.7
X131.7Y-93.4
X131.7Y-134.5
X132.3Y-66.7
X132.3Y-96.0
X132.3Y-98.5
X132.3Y-115.6
X132.9Y-130.8
X133.0Y-105.4
X133.0Y-123.8
X133.6Y-68.6
X133.6Y-71.1
X133.6Y-73.7
X133.6Y-87.0
X133.7Y-119.3
X133.92Y-60.97
X134.2Y-46.884
X134.3Y-84.5
X134.8Y-142.2
X135.5Y-69.9
X135.5Y-92.8
X135.5Y-133.244
X136.1Y-66.0
X136.1Y-90.2
X136.7Y-39.1
X136.8Y-73.7
X136.8Y-76.2
X136.8Y-120.036
X137.4Y-63.5
X137.4Y-92.2
X138.0Y-66.1
X138.0Y-113.0
X138.7Y-135.8
X139.9Y-89.6
X140.4Y-37.4
X140.6Y-52.6
X140.9Y-55.8
X140.9Y-65.4
X141.1Y-43.1
X141.2Y-121.9
X141.3Y-146.1
X141.4Y-149.9
X141.8Y-44.9
X142.2Y-58.4
X142.5Y-48.1
X143.1Y-38.6
X143.1Y-54.6
X143.1Y-76.2
X143.1Y-78.7
X143.1Y-81.3
X143.1Y-88.4
X143.3Y-96.6
X143.7Y-65.9
X143.7Y-121.9
X143.8Y-120.1
X143.8Y-149.932
X145.0Y-40.5
X145.6Y-130.8
X145.6Y-136.5
X146.4Y-123.8
X146.9Y-151.735
X147.5Y-132.0
X147.6Y-37.9
X148.1Y-135.2
X148.2Y-102.9
X148.2Y-105.4
X148.2Y-108.6
X148.9Y-82.5
X148.9Y-88.3
X149.5Y-123.2
X150.087Y-49.447
X150.087Y-51.93
X150.1Y-36.1
X150.1Y-97.2
X150.1Y-106.7
X151.3Y-104.1
X151.9Y-63.5
X151.9Y-123.2
X152.6Y-87.0
X152.6Y-101.7
X152.6Y-109.2
X153.2Y-34.2
X153.3Y-38.6
X153.9Y-111.1
X154.4Y-85.8
X154.5Y-115.7
X154.56Y-48.76
X155.1Y-31.6
X155.1Y-80.0
X155.1Y-88.3
X155.1Y-98.5
X155.2Y-64.7
X155.7Y-34.184
X155.73Y-50.63
X155.8Y-72.4
X155.8Y-78.0
X155.8Y-113.1
X156.3Y-29.1
X156.3Y-74.9
X156.4Y-44.344
X157.0Y-41.804
X157.1Y-116.9
X160.3Y-86.3
X162.1Y-62.124
X162.1Y-72.3
X163.4Y-101.7
X164.0Y-67.9
X164.0Y-111.2
X164.6Y-43.074
X164.6Y-58.314
X165.1Y-76.1
X165.4Y-119.9
X167.6Y-86.3
X168.4Y-36.1
X168.4Y-122.0
X169.1Y-128.7
X169.7Y-77.5
X169.7Y-125.1
X170.3Y-122.6
X170.6Y-69.8
X170.6Y-73.7
X171.2Y-58.314
X171.3Y-71.7
X171.3Y-83.8
X171.6Y-60.9
X172.0Y-46.8
X172.0Y-54.6
X172.1Y-80.6
X172.2Y-50.059
X172.3Y-91.4
X173.6Y-34.5
X174.2Y-92.2
X174.5Y-66.544
X174.9Y-114.3
X175.4Y-117.0
X175.5Y-87.1
X176.7Y-34.8
X177.3Y-123.9
X178.0Y-128.3
X179.2Y-79.4
X179.2Y-130.7
X179.3Y-34.8
X179.8Y-83.8
X179.9Y-92.8
X180.0Y-73.7
X180.387Y-65.934
X180.5Y-81.9
X180.6Y-76.2
X180.7Y-71.1
X181.8Y-34.9
X184.3Y-34.9
X184.9Y-104.2
X185.3Y-71.1
X185.5Y-93.4
X185.6Y-81.9
X185.7Y-58.4
X185.9Y-73.7
X186.0Y-79.3
X186.2Y-106.7
X186.2Y-120.1
X186.8Y-34.8
X186.8Y-41.1
X187.2Y-46.884
X187.5Y-62.8
X187.8Y-67.3
X187.8Y-75.5
X187.9Y-65.4
X188.1Y-55.3
X188.1Y-60.2
X188.4Y-79.904
X188.4Y-85.8
X188.7Y-51.964
X189.1Y-71.7
X189.4Y-34.8
X189.5Y-125.6
X190.0Y-93.4
X190.3Y-87.8
X191.0Y-74.8
X191.0Y-83.206
X191.2Y-39.264
X191.4Y-57.1
X191.8Y-151.7
X191.9Y-34.8
X191.9Y-41.1
X192.5Y-87.7
X193.8Y-43.1
X193.8Y-99.1
X193.9Y-36.1
X193.9Y-95.8
X194.2Y-85.1
X194.4Y-88.3
X194.7Y-64.1
X194.9Y-74.824
X195.1Y-104.2
X195.8Y-39.3
X195.8Y-49.424
X195.8Y-51.964
X196.3Y-145.5
X196.4Y-35.2
X196.5Y-57.044
X197.6Y-36.724
X197.6Y-94.0
X198.4Y-118.1
X199.6Y-35.0
X200.2Y-87.6
X200.2Y-94.6
X200.2Y-125.2
X200.8Y-121.2
X200.9Y-84.4
X201.4Y-80.0
X202.1Y-35.4
X202.2Y-92.0
X202.8Y-88.9
X203.4Y-94.7
X203.4Y-129.6
X203.4Y-133.9
X203.6Y-43.0
X203.8Y-69.1
X205.2Y-35.5
X205.4Y-37.4
X205.8Y-127.6
X205.9Y-80.6
X205.9Y-84.4
X205.9Y-97.8
X205.9Y-134.5
X205.9Y-137.1
X206.0Y-123.3
X206.5Y-119.5
X206.6Y-116.3
X207.1Y-35.4
X208.8Y-45.6
X208.8Y-68.5
X209.1Y-78.0
X209.1Y-111.1
X209.4Y-55.8
X209.7Y-35.45
X210.0Y-53.2
X211.7Y-144.9
X212.2Y-35.4
X212.2Y-124.4
X213.0Y-74.2
X213.0Y-93.4
X213.6Y-90.2
X213.6Y-95.9
X214.12Y-130.8
X214.2Y-43.1
X214.2Y-46.8
X214.2Y-98.5
X214.69Y-142.56
X214.8Y-87.6
X214.8Y-118.58
X214.9Y-101.0
X215.3Y-54.5
X215.4Y-49.4
X215.5Y-104.7
X216.1Y-97.2
X216.7Y-35.4
X217.3Y-78.6
X217.3Y-81.9
X217.94Y-129.51
X218.8Y-108.5
X219.1Y-146.0
X219.2Y-35.4
X219.2Y-120.0
X219.3Y-101.0
X220.5Y-110.4
X221.7Y-35.4
X221.9Y-135.276
X223.8Y-72.9
X224.2Y-35.4
X224.3Y-109.1
X224.9Y-57.0
X224.9Y-131.4
X226.3Y-72.3
X226.7Y-109.8
X226.8Y-35.4
X227.5Y-78.7
X228.2Y-61.5
X228.2Y-74.2
X228.6Y-131.4
X228.7Y-97.1
X228.8Y-65.4
X229.4Y-35.4
X229.4Y-59.0
X230.1Y-63.5
X230.7Y-92.7
X230.7Y-100.3
X231.9Y-81.8
X231.9Y-120.7
X232.6Y-116.2
X233.3Y-100.9
X233.8Y-123.9
X233.8Y-126.4
X233.9Y-87.0
X233.9Y-97.2
X235.1Y-85.0
X235.7Y-110.5
X235.8Y-99.7
X236.4Y-66.6
X236.4Y-106.7
X237.6Y-78.7
X237.7Y-74.9
X239.5Y-74.8
X239.7Y-108.6
X240.2Y-99.7
X240.2Y-135.2
X240.8Y-106.2
X241.0Y-69.1
X242.1Y-82.5
X242.7Y-151.7
X242.8Y-74.2
X242.9Y-133.5
X243.125Y-120.29
X243.6Y-88.6
X244.7Y-93.9
X244.7Y-118.0
X245.61Y-104.82
X245.68Y-100.53
X245.9Y-91.5
X247.86Y-71.82
X248.36Y-100.53
X251.0Y-76.2
X252.3Y-116.2
X253.0Y-75.5
X253.6Y-122.7
T8
X240.2Y-122.58
X240.2Y-130.2
X247.82Y-122.58
X247.82Y-130.2
T9
X51.8Y-101.494
X53.6Y-117.4
X53.641Y-121.1
X65.833Y-121.306
X71.675Y-109.876
X72.183Y-107.844
X72.691Y-118.512
X73.961Y-111.654
X73.961Y-115.464
X75.231Y-121.306
X75.993Y-118.512
X86.0Y-117.496
T10
X48.561Y-79.396
X48.561Y-92.096
X57.5Y-147.8
X87.4Y-92.1
X99.361Y-86.254
X242.3Y-37.4
X249.879Y-50.93
T11
X46.33Y-31.14
X46.33Y-43.64
X46.33Y-53.64
X93.062Y-62.12
X93.062Y-67.2
X96.848Y-55.856
X101.986Y-55.776
X211.0Y-114.6
X213.54Y-114.6
X216.08Y-114.6
X218.62Y-114.6
X221.16Y-114.6
X223.7Y-114.6
X226.24Y-114.6
X228.78Y-114.6
T12
X253.0Y-43.12
X253.0Y-45.66
X253.0Y-48.2
T13
X49.83Y-98.44
X49.83Y-118.44
X49.831Y-75.58
X49.831Y-95.9
X130.2Y-41.8
X130.2Y-64.4
X130.9Y-68.47
X130.9Y-88.79
X132.63Y-137.77
X132.635Y-143.9
X152.95Y-137.77
X152.955Y-143.9
X200.8Y-148.0
X201.3Y-123.3
X201.3Y-143.62
X204.1Y-96.8
X204.1Y-116.8
X221.12Y-148.0
X225.0Y-69.7
X225.0Y-76.1
X225.0Y-107.2
X225.1Y-98.3
X245.32Y-69.7
X245.32Y-76.1
X245.32Y-107.2
X245.42Y-98.3
T14
X126.3Y-29.35
X126.3Y-32.16
X126.3Y-34.5
X133.92Y-29.35
X133.92Y-32.16
X133.92Y-34.5
X137.77Y-29.35
X137.77Y-32.16
X137.77Y-34.5
X145.39Y-29.35
X145.39Y-32.16
X145.39Y-34.5
X237.149Y-57.673
X238.251Y-63.927
X238.509Y-54.043
X239.611Y-60.297
T15
X247.222Y-136.791
X247.253Y-146.883
T16
X243.087Y-54.88
X243.087Y-58.69
X243.087Y-63.516
X251.723Y-54.88
X251.723Y-58.69
X251.723Y-63.516
T17
X50.83Y-44.64
X89.83Y-44.64
T18
X243.32Y-29.47
X253.44Y-33.64
T19
X97.655Y-31.56
X97.655Y-35.7
X107.307Y-35.7
X112.592Y-31.56
X112.592Y-35.7
X122.244Y-35.7
X243.528Y-34.044
X248.1Y-30.488
X248.1Y-37.6
M30
