%TF.GenerationSoftware,KiCad,Pcbnew,10.0.6*%
%TF.CreationDate,2026-10-08T10:13:52+01:00*%
%TF.ProjectId,Issue4B,49737375-6534-4422-9e6b-696361645f70,4B*%
%TF.SameCoordinates,Original*%
%TF.FileFunction,Soldermask,Top*%
%TF.FilePolarity,Negative*%
%FSLAX46Y46*%
G04 Gerber Fmt 4.6, Leading zero omitted, Abs format (unit mm)*
G04 Created by KiCad (PCBNEW 10.0.6) date 2026-10-08 10:13:52*
%MOMM*%
%LPD*%
G01*
G04 APERTURE LIST*
G04 Aperture macros list*
%AMRoundRect*
0 Rectangle with rounded corners*
0 $1 Rounding radius*
0 $2 $3 $4 $5 $6 $7 $8 $9 X,Y pos of 4 corners*
0 Add a 4 corners polygon primitive as box body*
4,1,4,$2,$3,$4,$5,$6,$7,$8,$9,$2,$3,0*
0 Add four circle primitives for the rounded corners*
1,1,$1+$1,$2,$3*
1,1,$1+$1,$4,$5*
1,1,$1+$1,$6,$7*
1,1,$1+$1,$8,$9*
0 Add four rect primitives between the rounded corners*
20,1,$1+$1,$2,$3,$4,$5,0*
20,1,$1+$1,$4,$5,$6,$7,0*
20,1,$1+$1,$6,$7,$8,$9,0*
20,1,$1+$1,$8,$9,$2,$3,0*%
G04 Aperture macros list end*
%ADD10C,0.000000*%
%ADD11C,3.157500*%
%ADD12C,2.078000*%
%ADD13C,0.505000*%
%ADD14C,0.454000*%
%ADD15C,1.062000*%
%ADD16C,1.600000*%
%ADD17C,1.778000*%
%ADD18C,2.000000*%
%ADD19C,3.000000*%
%ADD20R,3.500000X3.500000*%
%ADD21RoundRect,0.875000X-0.875000X0.875000X-0.875000X-0.875000X0.875000X-0.875000X0.875000X0.875000X0*%
%ADD22C,2.034000*%
%ADD23C,2.400000*%
%ADD24C,2.260000*%
%ADD25C,1.500000*%
%ADD26C,2.600000*%
%ADD27C,3.800000*%
%ADD28RoundRect,0.875000X-0.875000X-0.875000X0.875000X-0.875000X0.875000X0.875000X-0.875000X0.875000X0*%
%ADD29R,1.403000X1.403000*%
%ADD30C,1.403000*%
%ADD31R,1.337000X1.337000*%
%ADD32C,1.337000*%
%ADD33R,2.000000X6.000000*%
%ADD34C,3.500000*%
%ADD35R,2.000000X1.905000*%
%ADD36O,2.000000X1.905000*%
%ADD37C,1.524000*%
%ADD38C,1.700000*%
%ADD39C,1.050000*%
%ADD40C,1.400000*%
G04 APERTURE END LIST*
D10*
G36*
X161613000Y-27266400D02*
G01*
X161618300Y-33419700D01*
X160134900Y-33417600D01*
X160128100Y-27264100D01*
X161613000Y-27266400D01*
G37*
G36*
X164153000Y-27266400D02*
G01*
X164158300Y-33419700D01*
X162674900Y-33417600D01*
X162668100Y-27264100D01*
X164153000Y-27266400D01*
G37*
G36*
X166693000Y-27266400D02*
G01*
X166698300Y-33419700D01*
X165214900Y-33417600D01*
X165208100Y-27264100D01*
X166693000Y-27266400D01*
G37*
G36*
X169233000Y-27266400D02*
G01*
X169238300Y-33419700D01*
X167754900Y-33417600D01*
X167748100Y-27264100D01*
X169233000Y-27266400D01*
G37*
G36*
X174313000Y-27266400D02*
G01*
X174318300Y-33419700D01*
X172834900Y-33417600D01*
X172828100Y-27264100D01*
X174313000Y-27266400D01*
G37*
G36*
X176853000Y-27266400D02*
G01*
X176858300Y-33419700D01*
X175374900Y-33417600D01*
X175368100Y-27264100D01*
X176853000Y-27266400D01*
G37*
G36*
X179393000Y-27266400D02*
G01*
X179398300Y-33419700D01*
X177914900Y-33417600D01*
X177908100Y-27264100D01*
X179393000Y-27266400D01*
G37*
G36*
X181933000Y-27266400D02*
G01*
X181938300Y-33419700D01*
X180454900Y-33417600D01*
X180448100Y-27264100D01*
X181933000Y-27266400D01*
G37*
G36*
X184473000Y-27266400D02*
G01*
X184478300Y-33419700D01*
X182994900Y-33417600D01*
X182988100Y-27264100D01*
X184473000Y-27266400D01*
G37*
G36*
X187013000Y-27266400D02*
G01*
X187018300Y-33419700D01*
X185534900Y-33417600D01*
X185528100Y-27264100D01*
X187013000Y-27266400D01*
G37*
G36*
X189553000Y-27266400D02*
G01*
X189558300Y-33419700D01*
X188074900Y-33417600D01*
X188068100Y-27264100D01*
X189553000Y-27266400D01*
G37*
G36*
X192093000Y-27266400D02*
G01*
X192098300Y-33419700D01*
X190614900Y-33417600D01*
X190608100Y-27264100D01*
X192093000Y-27266400D01*
G37*
G36*
X194633000Y-27266400D02*
G01*
X194638300Y-33419700D01*
X193154900Y-33417600D01*
X193148100Y-27264100D01*
X194633000Y-27266400D01*
G37*
G36*
X197173000Y-27266400D02*
G01*
X197178300Y-33419700D01*
X195694900Y-33417600D01*
X195688100Y-27264100D01*
X197173000Y-27266400D01*
G37*
G36*
X199713000Y-27266400D02*
G01*
X199718300Y-33419700D01*
X198234900Y-33417600D01*
X198228100Y-27264100D01*
X199713000Y-27266400D01*
G37*
G36*
X202253000Y-27266400D02*
G01*
X202258300Y-33419700D01*
X200774900Y-33417600D01*
X200768100Y-27264100D01*
X202253000Y-27266400D01*
G37*
G36*
X204793000Y-27266400D02*
G01*
X204798300Y-33419700D01*
X203314900Y-33417600D01*
X203308100Y-27264100D01*
X204793000Y-27266400D01*
G37*
G36*
X207333000Y-27266400D02*
G01*
X207338300Y-33419700D01*
X205854900Y-33417600D01*
X205848100Y-27264100D01*
X207333000Y-27266400D01*
G37*
G36*
X209873000Y-27266400D02*
G01*
X209878300Y-33419700D01*
X208394900Y-33417600D01*
X208388100Y-27264100D01*
X209873000Y-27266400D01*
G37*
G36*
X212413000Y-27266400D02*
G01*
X212418300Y-33419700D01*
X210934900Y-33417600D01*
X210928100Y-27264100D01*
X212413000Y-27266400D01*
G37*
G36*
X214953000Y-27266400D02*
G01*
X214953000Y-33414400D01*
X213474900Y-33417600D01*
X213468100Y-27264100D01*
X214953000Y-27266400D01*
G37*
G36*
X217493000Y-27266400D02*
G01*
X217493000Y-33414400D01*
X216014900Y-33417600D01*
X216008100Y-27264100D01*
X217493000Y-27266400D01*
G37*
G36*
X220033000Y-27266400D02*
G01*
X220038300Y-33419700D01*
X218554900Y-33417600D01*
X218548100Y-27264100D01*
X220033000Y-27266400D01*
G37*
G36*
X222573000Y-27266400D02*
G01*
X222578300Y-33419700D01*
X221094900Y-33417600D01*
X221088100Y-27264100D01*
X222573000Y-27266400D01*
G37*
G36*
X225113000Y-27266400D02*
G01*
X225118300Y-33419700D01*
X223634900Y-33417600D01*
X223628100Y-27264100D01*
X225113000Y-27266400D01*
G37*
G36*
X227653000Y-27266400D02*
G01*
X227658300Y-33419700D01*
X226174900Y-33417600D01*
X226168100Y-27264100D01*
X227653000Y-27266400D01*
G37*
G36*
X230193000Y-27266400D02*
G01*
X230198300Y-33419700D01*
X228714900Y-33417600D01*
X228708100Y-27264100D01*
X230193000Y-27266400D01*
G37*
G36*
X249475000Y-50440000D02*
G01*
X231949000Y-50440000D01*
X231949000Y-40534000D01*
X249475000Y-40534000D01*
X249475000Y-50440000D01*
G37*
D11*
X91440250Y-44598000D02*
G75*
G02*
X88282750Y-44598000I-1578750J0D01*
G01*
X88282750Y-44598000D02*
G75*
G02*
X91440250Y-44598000I1578750J0D01*
G01*
D12*
X98622000Y-31821800D02*
G75*
G02*
X96544000Y-31821800I-1039000J0D01*
G01*
X96544000Y-31821800D02*
G75*
G02*
X98622000Y-31821800I1039000J0D01*
G01*
X98622000Y-35962000D02*
G75*
G02*
X96544000Y-35962000I-1039000J0D01*
G01*
X96544000Y-35962000D02*
G75*
G02*
X98622000Y-35962000I1039000J0D01*
G01*
X108274000Y-35962000D02*
G75*
G02*
X106196000Y-35962000I-1039000J0D01*
G01*
X106196000Y-35962000D02*
G75*
G02*
X108274000Y-35962000I1039000J0D01*
G01*
X113354000Y-31821800D02*
G75*
G02*
X111276000Y-31821800I-1039000J0D01*
G01*
X111276000Y-31821800D02*
G75*
G02*
X113354000Y-31821800I1039000J0D01*
G01*
X113354000Y-35962000D02*
G75*
G02*
X111276000Y-35962000I-1039000J0D01*
G01*
X111276000Y-35962000D02*
G75*
G02*
X113354000Y-35962000I1039000J0D01*
G01*
X123006000Y-35962000D02*
G75*
G02*
X120928000Y-35962000I-1039000J0D01*
G01*
X120928000Y-35962000D02*
G75*
G02*
X123006000Y-35962000I1039000J0D01*
G01*
D13*
X160128100Y-27264100D02*
X160134900Y-33417600D01*
X160134900Y-33417600D02*
X161618300Y-33419700D01*
X161613000Y-27266400D02*
X160128100Y-27264100D01*
X161618300Y-33419700D02*
X161613000Y-27266400D01*
X162668100Y-27264100D02*
X162674900Y-33417600D01*
X162674900Y-33417600D02*
X164158300Y-33419700D01*
X164153000Y-27266400D02*
X162668100Y-27264100D01*
X164158300Y-33419700D02*
X164153000Y-27266400D01*
X165208100Y-27264100D02*
X165214900Y-33417600D01*
X165214900Y-33417600D02*
X166698300Y-33419700D01*
X166693000Y-27266400D02*
X165208100Y-27264100D01*
X166698300Y-33419700D02*
X166693000Y-27266400D01*
X167748100Y-27264100D02*
X167754900Y-33417600D01*
X167754900Y-33417600D02*
X169238300Y-33419700D01*
X169233000Y-27266400D02*
X167748100Y-27264100D01*
X169238300Y-33419700D02*
X169233000Y-27266400D01*
X172828100Y-27264100D02*
X172834900Y-33417600D01*
X172834900Y-33417600D02*
X174318300Y-33419700D01*
X174313000Y-27266400D02*
X172828100Y-27264100D01*
X174318300Y-33419700D02*
X174313000Y-27266400D01*
X175368100Y-27264100D02*
X175374900Y-33417600D01*
X175374900Y-33417600D02*
X176858300Y-33419700D01*
X176853000Y-27266400D02*
X175368100Y-27264100D01*
X176858300Y-33419700D02*
X176853000Y-27266400D01*
X177908100Y-27264100D02*
X177914900Y-33417600D01*
X177914900Y-33417600D02*
X179398300Y-33419700D01*
X179393000Y-27266400D02*
X177908100Y-27264100D01*
X179398300Y-33419700D02*
X179393000Y-27266400D01*
X180448100Y-27264100D02*
X180454900Y-33417600D01*
X180454900Y-33417600D02*
X181938300Y-33419700D01*
X181933000Y-27266400D02*
X180448100Y-27264100D01*
X181938300Y-33419700D02*
X181933000Y-27266400D01*
X182988100Y-27264100D02*
X182994900Y-33417600D01*
X182994900Y-33417600D02*
X184478300Y-33419700D01*
X184473000Y-27266400D02*
X182988100Y-27264100D01*
X184478300Y-33419700D02*
X184473000Y-27266400D01*
X185528100Y-27264100D02*
X185534900Y-33417600D01*
X185534900Y-33417600D02*
X187018300Y-33419700D01*
X187013000Y-27266400D02*
X185528100Y-27264100D01*
X187018300Y-33419700D02*
X187013000Y-27266400D01*
X188068100Y-27264100D02*
X188074900Y-33417600D01*
X188074900Y-33417600D02*
X189558300Y-33419700D01*
X189553000Y-27266400D02*
X188068100Y-27264100D01*
X189558300Y-33419700D02*
X189553000Y-27266400D01*
X190608100Y-27264100D02*
X190614900Y-33417600D01*
X190614900Y-33417600D02*
X192098300Y-33419700D01*
X192093000Y-27266400D02*
X190608100Y-27264100D01*
X192098300Y-33419700D02*
X192093000Y-27266400D01*
X193148100Y-27264100D02*
X193154900Y-33417600D01*
X193154900Y-33417600D02*
X194638300Y-33419700D01*
X194633000Y-27266400D02*
X193148100Y-27264100D01*
X194638300Y-33419700D02*
X194633000Y-27266400D01*
X195688100Y-27264100D02*
X195694900Y-33417600D01*
X195694900Y-33417600D02*
X197178300Y-33419700D01*
X197173000Y-27266400D02*
X195688100Y-27264100D01*
X197178300Y-33419700D02*
X197173000Y-27266400D01*
X198228100Y-27264100D02*
X198234900Y-33417600D01*
X198234900Y-33417600D02*
X199718300Y-33419700D01*
X199713000Y-27266400D02*
X198228100Y-27264100D01*
X199718300Y-33419700D02*
X199713000Y-27266400D01*
X200768100Y-27264100D02*
X200774900Y-33417600D01*
X200774900Y-33417600D02*
X202258300Y-33419700D01*
X202253000Y-27266400D02*
X200768100Y-27264100D01*
X202258300Y-33419700D02*
X202253000Y-27266400D01*
X203308100Y-27264100D02*
X203314900Y-33417600D01*
X203314900Y-33417600D02*
X204798300Y-33419700D01*
X204793000Y-27266400D02*
X203308100Y-27264100D01*
X204798300Y-33419700D02*
X204793000Y-27266400D01*
X205848100Y-27264100D02*
X205854900Y-33417600D01*
X205854900Y-33417600D02*
X207338300Y-33419700D01*
X207333000Y-27266400D02*
X205848100Y-27264100D01*
X207338300Y-33419700D02*
X207333000Y-27266400D01*
X208388100Y-27264100D02*
X208394900Y-33417600D01*
X208394900Y-33417600D02*
X209878300Y-33419700D01*
X209873000Y-27266400D02*
X208388100Y-27264100D01*
X209878300Y-33419700D02*
X209873000Y-27266400D01*
X210928100Y-27264100D02*
X210934900Y-33417600D01*
X210934900Y-33417600D02*
X212418300Y-33419700D01*
X212413000Y-27266400D02*
X210928100Y-27264100D01*
X212418300Y-33419700D02*
X212413000Y-27266400D01*
X213468100Y-27264100D02*
X213474900Y-33417600D01*
X213474900Y-33417600D02*
X214953000Y-33414400D01*
X214953000Y-27266400D02*
X213468100Y-27264100D01*
X214953000Y-33414400D02*
X214953000Y-27266400D01*
X216008100Y-27264100D02*
X216014900Y-33417600D01*
X216014900Y-33417600D02*
X217493000Y-33414400D01*
X217493000Y-27266400D02*
X216008100Y-27264100D01*
X217493000Y-33414400D02*
X217493000Y-27266400D01*
X218548100Y-27264100D02*
X218554900Y-33417600D01*
X218554900Y-33417600D02*
X220038300Y-33419700D01*
X220033000Y-27266400D02*
X218548100Y-27264100D01*
X220038300Y-33419700D02*
X220033000Y-27266400D01*
X221088100Y-27264100D02*
X221094900Y-33417600D01*
X221094900Y-33417600D02*
X222578300Y-33419700D01*
X222573000Y-27266400D02*
X221088100Y-27264100D01*
X222578300Y-33419700D02*
X222573000Y-27266400D01*
X223628100Y-27264100D02*
X223634900Y-33417600D01*
X223634900Y-33417600D02*
X225118300Y-33419700D01*
X225113000Y-27266400D02*
X223628100Y-27264100D01*
X225118300Y-33419700D02*
X225113000Y-27266400D01*
X226168100Y-27264100D02*
X226174900Y-33417600D01*
X226174900Y-33417600D02*
X227658300Y-33419700D01*
X227653000Y-27266400D02*
X226168100Y-27264100D01*
X227658300Y-33419700D02*
X227653000Y-27266400D01*
X228708100Y-27264100D02*
X228714900Y-33417600D01*
X228714900Y-33417600D02*
X230198300Y-33419700D01*
X230193000Y-27266400D02*
X228708100Y-27264100D01*
X230198300Y-33419700D02*
X230193000Y-27266400D01*
D14*
X231949000Y-40534000D02*
X249475000Y-40534000D01*
X231949000Y-50440000D02*
X231949000Y-40534000D01*
D15*
X241370000Y-129688000D02*
G75*
G02*
X240308000Y-129688000I-531000J0D01*
G01*
X240308000Y-129688000D02*
G75*
G02*
X241370000Y-129688000I531000J0D01*
G01*
X248990000Y-129688000D02*
G75*
G02*
X247928000Y-129688000I-531000J0D01*
G01*
X247928000Y-129688000D02*
G75*
G02*
X248990000Y-129688000I531000J0D01*
G01*
D14*
X249475000Y-40534000D02*
X249475000Y-50440000D01*
X249475000Y-50440000D02*
X231949000Y-50440000D01*
D16*
%TO.C,C100*%
X62769500Y-63526000D03*
X75469500Y-63526000D03*
%TD*%
%TO.C,C56*%
X152800000Y-147800000D03*
X165500000Y-147800000D03*
%TD*%
D17*
%TO.C,X1*%
X101986000Y-55776000D03*
X96847700Y-55855600D03*
%TD*%
D18*
%TO.C,C46*%
X225100000Y-98300000D03*
X245420000Y-98300000D03*
%TD*%
D16*
%TO.C,C60*%
X146200000Y-120100000D03*
X158900000Y-120100000D03*
%TD*%
%TO.C,IC1*%
X110700000Y-66000000D03*
X110700000Y-68540000D03*
X110700000Y-71080000D03*
X110700000Y-73620000D03*
X110700000Y-76160000D03*
X110700000Y-78700000D03*
X110700000Y-81240000D03*
X110700000Y-83780000D03*
X110700000Y-86320000D03*
X110700000Y-88860000D03*
X110700000Y-91400000D03*
X110700000Y-93940000D03*
X110700000Y-96480000D03*
X110700000Y-99020000D03*
X110700000Y-101560000D03*
X110700000Y-104100000D03*
X110700000Y-106640000D03*
X110700000Y-109180000D03*
X110700000Y-111720000D03*
X110700000Y-114260000D03*
X125940000Y-114260000D03*
X125940000Y-111720000D03*
X125940000Y-109180000D03*
X125940000Y-106640000D03*
X125940000Y-104100000D03*
X125940000Y-101560000D03*
X125940000Y-99020000D03*
X125940000Y-96480000D03*
X125940000Y-93940000D03*
X125940000Y-91400000D03*
X125940000Y-88860000D03*
X125940000Y-86320000D03*
X125940000Y-83780000D03*
X125940000Y-81240000D03*
X125940000Y-78700000D03*
X125940000Y-76160000D03*
X125940000Y-73620000D03*
X125940000Y-71080000D03*
X125940000Y-68540000D03*
X125940000Y-66000000D03*
%TD*%
%TO.C,IC17*%
X165300000Y-125600000D03*
X165300000Y-128140000D03*
X165300000Y-130680000D03*
X165300000Y-133220000D03*
X165300000Y-135760000D03*
X165300000Y-138300000D03*
X165300000Y-140840000D03*
X165300000Y-143380000D03*
X172920000Y-143380000D03*
X172920000Y-140840000D03*
X172920000Y-138300000D03*
X172920000Y-135760000D03*
X172920000Y-133220000D03*
X172920000Y-130680000D03*
X172920000Y-128140000D03*
X172920000Y-125600000D03*
%TD*%
%TO.C,C3*%
X90507800Y-121200000D03*
X103207800Y-121200000D03*
%TD*%
%TO.C,R53*%
X62500000Y-61000000D03*
X75200000Y-61000000D03*
%TD*%
%TO.C,R60*%
X240200000Y-88900000D03*
X252900000Y-88900000D03*
%TD*%
%TO.C,R10*%
X128600000Y-116600000D03*
X141300000Y-116600000D03*
%TD*%
%TO.C,R43*%
X79700000Y-76080000D03*
X92400000Y-76080000D03*
%TD*%
%TO.C,IC9*%
X90564300Y-125600000D03*
X90564300Y-128140000D03*
X90564300Y-130680000D03*
X90564300Y-133220000D03*
X90564300Y-135760000D03*
X90564300Y-138300000D03*
X90564300Y-140840000D03*
X90564300Y-143380000D03*
X98184300Y-143380000D03*
X98184300Y-140840000D03*
X98184300Y-138300000D03*
X98184300Y-135760000D03*
X98184300Y-133220000D03*
X98184300Y-130680000D03*
X98184300Y-128140000D03*
X98184300Y-125600000D03*
%TD*%
%TO.C,D13*%
X104300000Y-39300000D03*
X104300000Y-51700000D03*
%TD*%
%TO.C,C26*%
X162800000Y-39200000D03*
X175500000Y-39200000D03*
%TD*%
%TO.C,C54*%
X224960000Y-129070000D03*
X237660000Y-129070000D03*
%TD*%
%TO.C,D4*%
X222400000Y-98500000D03*
X209700000Y-98500000D03*
%TD*%
%TO.C,R28*%
X209700000Y-85700000D03*
X222400000Y-85700000D03*
%TD*%
%TO.C,IC14*%
X69643000Y-71010000D03*
X69643000Y-73550000D03*
X69643000Y-76090000D03*
X69643000Y-78630000D03*
X69643000Y-81170000D03*
X69643000Y-83710000D03*
X69643000Y-86250000D03*
X69643000Y-88790000D03*
X69643000Y-91330000D03*
X77263000Y-91330000D03*
X77263000Y-88790000D03*
X77263000Y-86250000D03*
X77263000Y-83710000D03*
X77263000Y-81170000D03*
X77263000Y-78630000D03*
X77263000Y-76090000D03*
X77263000Y-73550000D03*
X77263000Y-71010000D03*
%TD*%
%TO.C,C42*%
X47320000Y-60700000D03*
X60020000Y-60700000D03*
%TD*%
%TO.C,R59*%
X240200000Y-93900000D03*
X252900000Y-93900000D03*
%TD*%
%TO.C,C62*%
X183000000Y-147800000D03*
X195700000Y-147800000D03*
%TD*%
D19*
%TO.C,LS1*%
X247222000Y-136790800D03*
X247252800Y-146883100D03*
%TD*%
D16*
%TO.C,R21*%
X112360000Y-56900000D03*
X125060000Y-56900000D03*
%TD*%
%TO.C,R49*%
X54393000Y-68620000D03*
X67093000Y-68620000D03*
%TD*%
%TO.C,C59*%
X161500000Y-120100000D03*
X174200000Y-120100000D03*
%TD*%
%TO.C,R2*%
X128600000Y-111600000D03*
X141300000Y-111600000D03*
%TD*%
D20*
%TO.C,J7*%
X248100000Y-37600000D03*
D21*
X248100000Y-30488000D03*
X243528000Y-34044000D03*
%TD*%
D16*
%TO.C,C55*%
X168000000Y-147800000D03*
X180700000Y-147800000D03*
%TD*%
%TO.C,R14*%
X145000000Y-102900000D03*
X157700000Y-102900000D03*
%TD*%
D22*
%TO.C,OKI-H1*%
X126300000Y-34500000D03*
X133920000Y-34500000D03*
%TD*%
D23*
%TO.C,R34*%
X130200000Y-41800000D03*
X130200000Y-64400000D03*
%TD*%
D16*
%TO.C,IC22*%
X160300000Y-97900000D03*
X160300000Y-100440000D03*
X160300000Y-102980000D03*
X160300000Y-105520000D03*
X160300000Y-108060000D03*
X160300000Y-110600000D03*
X160300000Y-113140000D03*
X160300000Y-115680000D03*
X167920000Y-115680000D03*
X167920000Y-113140000D03*
X167920000Y-110600000D03*
X167920000Y-108060000D03*
X167920000Y-105520000D03*
X167920000Y-102980000D03*
X167920000Y-100440000D03*
X167920000Y-97900000D03*
%TD*%
%TO.C,R50*%
X54393000Y-73560000D03*
X67093000Y-73560000D03*
%TD*%
D18*
%TO.C,C79*%
X201300000Y-123300000D03*
X201300000Y-143620000D03*
%TD*%
D16*
%TO.C,C6*%
X80300000Y-147800000D03*
X93000000Y-147800000D03*
%TD*%
D24*
%TO.C,D15*%
X237700000Y-120700000D03*
X225000000Y-120700000D03*
%TD*%
D25*
%TO.C,TV1*%
X46330000Y-53640000D03*
X46330000Y-43640000D03*
X46330000Y-31140000D03*
D19*
X50830000Y-44640000D03*
X89830000Y-44640000D03*
%TD*%
D16*
%TO.C,IC19*%
X190600000Y-97900000D03*
X190600000Y-100440000D03*
X190600000Y-102980000D03*
X190600000Y-105520000D03*
X190600000Y-108060000D03*
X190600000Y-110600000D03*
X190600000Y-113140000D03*
X190600000Y-115680000D03*
X198220000Y-115680000D03*
X198220000Y-113140000D03*
X198220000Y-110600000D03*
X198220000Y-108060000D03*
X198220000Y-105520000D03*
X198220000Y-102980000D03*
X198220000Y-100440000D03*
X198220000Y-97900000D03*
%TD*%
%TO.C,R11*%
X145000000Y-110600000D03*
X157700000Y-110600000D03*
%TD*%
%TO.C,R17*%
X112360000Y-59500000D03*
X125060000Y-59500000D03*
%TD*%
%TO.C,C52*%
X79700000Y-93899400D03*
X92400000Y-93899400D03*
%TD*%
%TO.C,R27*%
X209800000Y-128200000D03*
X222500000Y-128200000D03*
%TD*%
D22*
%TO.C,TI-3*%
X137770000Y-32160000D03*
X145390000Y-32160000D03*
%TD*%
D16*
%TO.C,D11*%
X237700000Y-91400000D03*
X225000000Y-91400000D03*
%TD*%
%TO.C,R7*%
X128600000Y-98870000D03*
X141300000Y-98870000D03*
%TD*%
D22*
%TO.C,L1*%
X238251333Y-63926765D03*
X237148667Y-57673235D03*
%TD*%
D26*
%TO.C,H2*%
X253440000Y-33640000D03*
D27*
X253440000Y-33640000D03*
%TD*%
D16*
%TO.C,C70*%
X95676100Y-109100000D03*
X108376100Y-109100000D03*
%TD*%
D20*
%TO.C,EAR1*%
X97655000Y-31559800D03*
D28*
X97655000Y-35700000D03*
D21*
X107307000Y-35700000D03*
%TD*%
D18*
%TO.C,C44*%
X132635000Y-143900000D03*
X152955000Y-143900000D03*
%TD*%
D26*
%TO.C,H1*%
X243320000Y-29470000D03*
D27*
X243320000Y-29470000D03*
%TD*%
D16*
%TO.C,C32*%
X99000000Y-39300000D03*
X99000000Y-51700000D03*
%TD*%
%TO.C,C41*%
X211700000Y-39260000D03*
X224400000Y-39260000D03*
%TD*%
%TO.C,C57*%
X191700000Y-120000000D03*
X204400000Y-120000000D03*
%TD*%
%TO.C,IC3*%
X137400000Y-43100000D03*
X137400000Y-45640000D03*
X137400000Y-48180000D03*
X137400000Y-50720000D03*
X137400000Y-53260000D03*
X137400000Y-55800000D03*
X137400000Y-58340000D03*
X137400000Y-60880000D03*
X145020000Y-60880000D03*
X145020000Y-58340000D03*
X145020000Y-55800000D03*
X145020000Y-53260000D03*
X145020000Y-50720000D03*
X145020000Y-48180000D03*
X145020000Y-45640000D03*
X145020000Y-43100000D03*
%TD*%
%TO.C,R37*%
X94000000Y-39300000D03*
X94000000Y-51700000D03*
%TD*%
D29*
%TO.C,KB1*%
X73820000Y-103195000D03*
D30*
X76360000Y-103195000D03*
X78900000Y-103195000D03*
X81440000Y-103195000D03*
X83980000Y-103195000D03*
%TD*%
D16*
%TO.C,IC11*%
X70186300Y-125600000D03*
X70186300Y-128140000D03*
X70186300Y-130680000D03*
X70186300Y-133220000D03*
X70186300Y-135760000D03*
X70186300Y-138300000D03*
X70186300Y-140840000D03*
X70186300Y-143380000D03*
X77806300Y-143380000D03*
X77806300Y-140840000D03*
X77806300Y-138300000D03*
X77806300Y-135760000D03*
X77806300Y-133220000D03*
X77806300Y-130680000D03*
X77806300Y-128140000D03*
X77806300Y-125600000D03*
%TD*%
%TO.C,IC24*%
X152600000Y-68600000D03*
X152600000Y-71140000D03*
X152600000Y-73680000D03*
X152600000Y-76220000D03*
X152600000Y-78760000D03*
X152600000Y-81300000D03*
X152600000Y-83840000D03*
X160220000Y-83840000D03*
X160220000Y-81300000D03*
X160220000Y-78760000D03*
X160220000Y-76220000D03*
X160220000Y-73680000D03*
X160220000Y-71140000D03*
X160220000Y-68600000D03*
%TD*%
D19*
%TO.C,T1*%
X243087000Y-54879800D03*
X243087000Y-63515800D03*
X251723000Y-63515800D03*
X251723000Y-54879800D03*
X251723000Y-58689800D03*
X243087000Y-58689800D03*
%TD*%
D16*
%TO.C,C1*%
X49831000Y-121300000D03*
X62531000Y-121300000D03*
%TD*%
%TO.C,C43*%
X240200000Y-86300000D03*
X252900000Y-86300000D03*
%TD*%
%TO.C,C66*%
X240200000Y-81100000D03*
X252900000Y-81100000D03*
%TD*%
%TO.C,C7*%
X100807000Y-147800000D03*
X113507000Y-147800000D03*
%TD*%
%TO.C,R52*%
X54393000Y-71070000D03*
X67093000Y-71070000D03*
%TD*%
%TO.C,R44*%
X79700000Y-73540000D03*
X92400000Y-73540000D03*
%TD*%
D31*
%TO.C,SW1*%
X47130000Y-34790000D03*
D32*
X47130000Y-37290000D03*
X47130000Y-39790000D03*
%TD*%
D16*
%TO.C,C68*%
X95665300Y-106700000D03*
X108365300Y-106700000D03*
%TD*%
%TO.C,IC13*%
X49819700Y-125700000D03*
X49819700Y-128240000D03*
X49819700Y-130780000D03*
X49819700Y-133320000D03*
X49819700Y-135860000D03*
X49819700Y-138400000D03*
X49819700Y-140940000D03*
X49819700Y-143480000D03*
X57439700Y-143480000D03*
X57439700Y-140940000D03*
X57439700Y-138400000D03*
X57439700Y-135860000D03*
X57439700Y-133320000D03*
X57439700Y-130780000D03*
X57439700Y-128240000D03*
X57439700Y-125700000D03*
%TD*%
%TO.C,R22*%
X112360000Y-49000000D03*
X125060000Y-49000000D03*
%TD*%
%TO.C,R13*%
X145000000Y-105500000D03*
X157700000Y-105500000D03*
%TD*%
%TO.C,R65*%
X54393000Y-109100000D03*
X67093000Y-109100000D03*
%TD*%
%TO.C,R76*%
X95725625Y-74740000D03*
X108425625Y-74740000D03*
%TD*%
%TO.C,D18*%
X225000000Y-93900000D03*
X237700000Y-93900000D03*
%TD*%
%TO.C,R24*%
X79700000Y-83710000D03*
X92400000Y-83710000D03*
%TD*%
%TO.C,TR9*%
X98200000Y-83830000D03*
X95655000Y-81188400D03*
X98200000Y-81188400D03*
X98200000Y-78572200D03*
%TD*%
%TO.C,IC23*%
X167900000Y-68470000D03*
X167900000Y-71010000D03*
X167900000Y-73550000D03*
X167900000Y-76090000D03*
X167900000Y-78630000D03*
X167900000Y-81170000D03*
X167900000Y-83710000D03*
X175520000Y-83710000D03*
X175520000Y-81170000D03*
X175520000Y-78630000D03*
X175520000Y-76090000D03*
X175520000Y-73550000D03*
X175520000Y-71010000D03*
X175520000Y-68470000D03*
%TD*%
D22*
%TO.C,TI-4*%
X137770000Y-34500000D03*
X145390000Y-34500000D03*
%TD*%
D16*
%TO.C,D2*%
X222400000Y-93400000D03*
X209700000Y-93400000D03*
%TD*%
D33*
%TO.C,E1*%
X160983300Y-30060000D03*
X163523300Y-30060000D03*
X166063300Y-30060000D03*
X168603300Y-30060000D03*
X173683300Y-30060000D03*
X176223300Y-30060000D03*
X178763300Y-30060000D03*
X181303300Y-30060000D03*
X183843300Y-30060000D03*
X186383300Y-30060000D03*
X188923300Y-30060000D03*
X191463300Y-30060000D03*
X194003300Y-30060000D03*
X196543300Y-30060000D03*
X199083300Y-30060000D03*
X201623300Y-30060000D03*
X204163300Y-30060000D03*
X206703300Y-30060000D03*
X209243300Y-30060000D03*
X211783300Y-30060000D03*
X214323300Y-30060000D03*
X216863300Y-30060000D03*
X219403300Y-30060000D03*
X221943300Y-30060000D03*
X224483300Y-30060000D03*
X227023300Y-30060000D03*
X229563300Y-30060000D03*
%TD*%
D16*
%TO.C,C29*%
X112360000Y-41400000D03*
X125060000Y-41400000D03*
%TD*%
%TO.C,IC8*%
X100790700Y-125600000D03*
X100790700Y-128140000D03*
X100790700Y-130680000D03*
X100790700Y-133220000D03*
X100790700Y-135760000D03*
X100790700Y-138300000D03*
X100790700Y-140840000D03*
X100790700Y-143380000D03*
X108410700Y-143380000D03*
X108410700Y-140840000D03*
X108410700Y-138300000D03*
X108410700Y-135760000D03*
X108410700Y-133220000D03*
X108410700Y-130680000D03*
X108410700Y-128140000D03*
X108410700Y-125600000D03*
%TD*%
%TO.C,TR3*%
X84971900Y-81120000D03*
X82330300Y-81120000D03*
X79714100Y-81120000D03*
%TD*%
%TO.C,R12*%
X145000000Y-107900000D03*
X157700000Y-107900000D03*
%TD*%
%TO.C,C31*%
X109500000Y-39300000D03*
X109500000Y-51700000D03*
%TD*%
%TO.C,C72*%
X95500000Y-88800000D03*
X108200000Y-88800000D03*
%TD*%
%TO.C,R74*%
X95500000Y-91400000D03*
X108200000Y-91400000D03*
%TD*%
%TO.C,R58*%
X240200000Y-91400000D03*
X252900000Y-91400000D03*
%TD*%
%TO.C,IC12*%
X59992200Y-125600000D03*
X59992200Y-128140000D03*
X59992200Y-130680000D03*
X59992200Y-133220000D03*
X59992200Y-135760000D03*
X59992200Y-138300000D03*
X59992200Y-140840000D03*
X59992200Y-143380000D03*
X67612200Y-143380000D03*
X67612200Y-140840000D03*
X67612200Y-138300000D03*
X67612200Y-135760000D03*
X67612200Y-133220000D03*
X67612200Y-130680000D03*
X67612200Y-128140000D03*
X67612200Y-125600000D03*
%TD*%
D18*
%TO.C,C74*%
X225000000Y-107200000D03*
X245320000Y-107200000D03*
%TD*%
D16*
%TO.C,D17*%
X222300000Y-120800000D03*
X209600000Y-120800000D03*
%TD*%
D18*
%TO.C,C45*%
X152950000Y-137770000D03*
X132630000Y-137770000D03*
%TD*%
D16*
%TO.C,R79*%
X225000000Y-102650000D03*
X237700000Y-102650000D03*
%TD*%
%TO.C,TR5*%
X242800000Y-111600000D03*
X242800000Y-114241600D03*
X242800000Y-116857800D03*
%TD*%
%TO.C,C8*%
X121022600Y-147800000D03*
X133722600Y-147800000D03*
%TD*%
D18*
%TO.C,C34*%
X225000000Y-69700000D03*
X245320000Y-69700000D03*
%TD*%
%TO.C,C80*%
X200800000Y-148000000D03*
X221120000Y-148000000D03*
%TD*%
D16*
%TO.C,D7*%
X222400000Y-106000000D03*
X209700000Y-106000000D03*
%TD*%
%TO.C,R35*%
X106800000Y-39300000D03*
X106800000Y-51700000D03*
%TD*%
D34*
%TO.C,REG1*%
X236340000Y-45660000D03*
D35*
X253000000Y-48200000D03*
D36*
X253000000Y-45660000D03*
X253000000Y-43120000D03*
%TD*%
D16*
%TO.C,IC10*%
X80371000Y-125600000D03*
X80371000Y-128140000D03*
X80371000Y-130680000D03*
X80371000Y-133220000D03*
X80371000Y-135760000D03*
X80371000Y-138300000D03*
X80371000Y-140840000D03*
X80371000Y-143380000D03*
X87991000Y-143380000D03*
X87991000Y-140840000D03*
X87991000Y-138300000D03*
X87991000Y-135760000D03*
X87991000Y-133220000D03*
X87991000Y-130680000D03*
X87991000Y-128140000D03*
X87991000Y-125600000D03*
%TD*%
%TO.C,R29*%
X209700000Y-83100000D03*
X222400000Y-83100000D03*
%TD*%
%TO.C,D8*%
X222400000Y-108500000D03*
X209700000Y-108500000D03*
%TD*%
%TO.C,TR6*%
X163900000Y-55164400D03*
X163900000Y-52522800D03*
X163900000Y-49906600D03*
%TD*%
%TO.C,C63*%
X138600000Y-128200000D03*
X151300000Y-128200000D03*
%TD*%
%TO.C,R26*%
X209800000Y-125600000D03*
X222500000Y-125600000D03*
%TD*%
%TO.C,R31*%
X209700000Y-88300000D03*
X222400000Y-88300000D03*
%TD*%
%TO.C,TR8*%
X105727425Y-78500000D03*
X108272425Y-81141600D03*
X105727425Y-81141600D03*
X105727425Y-83757800D03*
%TD*%
D37*
%TO.C,KB2*%
X211000000Y-114600000D03*
X213540000Y-114600000D03*
X216080000Y-114600000D03*
X218620000Y-114600000D03*
X221160000Y-114600000D03*
X223700000Y-114600000D03*
X226240000Y-114600000D03*
X228780000Y-114600000D03*
%TD*%
D16*
%TO.C,C53*%
X79800000Y-108400000D03*
X92500000Y-108400000D03*
%TD*%
%TO.C,IC6*%
X121191200Y-125600000D03*
X121191200Y-128140000D03*
X121191200Y-130680000D03*
X121191200Y-133220000D03*
X121191200Y-135760000D03*
X121191200Y-138300000D03*
X121191200Y-140840000D03*
X121191200Y-143380000D03*
X128811200Y-143380000D03*
X128811200Y-140840000D03*
X128811200Y-138300000D03*
X128811200Y-135760000D03*
X128811200Y-133220000D03*
X128811200Y-130680000D03*
X128811200Y-128140000D03*
X128811200Y-125600000D03*
%TD*%
%TO.C,R23*%
X112360000Y-54300000D03*
X125060000Y-54300000D03*
%TD*%
D18*
%TO.C,C50*%
X225000000Y-76100000D03*
X245320000Y-76100000D03*
%TD*%
D16*
%TO.C,R73*%
X79700000Y-91320000D03*
X92400000Y-91320000D03*
%TD*%
%TO.C,C33*%
X79800000Y-113700000D03*
X92500000Y-113700000D03*
%TD*%
%TO.C,R45*%
X79700000Y-71000000D03*
X92400000Y-71000000D03*
%TD*%
%TO.C,IC21*%
X170400000Y-97900000D03*
X170400000Y-100440000D03*
X170400000Y-102980000D03*
X170400000Y-105520000D03*
X170400000Y-108060000D03*
X170400000Y-110600000D03*
X170400000Y-113140000D03*
X170400000Y-115680000D03*
X178020000Y-115680000D03*
X178020000Y-113140000D03*
X178020000Y-110600000D03*
X178020000Y-108060000D03*
X178020000Y-105520000D03*
X178020000Y-102980000D03*
X178020000Y-100440000D03*
X178020000Y-97900000D03*
%TD*%
%TO.C,C101*%
X234300000Y-52600000D03*
X234300000Y-65300000D03*
%TD*%
%TO.C,R56*%
X79700000Y-96570000D03*
X92400000Y-96570000D03*
%TD*%
%TO.C,R6*%
X128600000Y-101400000D03*
X141300000Y-101400000D03*
%TD*%
%TO.C,R16*%
X145000000Y-97900000D03*
X157700000Y-97900000D03*
%TD*%
D22*
%TO.C,OKI-L1*%
X126300000Y-32160000D03*
X133920000Y-32160000D03*
%TD*%
D16*
%TO.C,R66*%
X54393000Y-106500000D03*
X67093000Y-106500000D03*
%TD*%
D17*
%TO.C,X2*%
X93062000Y-67200000D03*
X93062000Y-62120000D03*
%TD*%
D18*
%TO.C,C28*%
X130900000Y-88790000D03*
X130900000Y-68470000D03*
%TD*%
D16*
%TO.C,IC25*%
X139300000Y-68600000D03*
X139300000Y-71140000D03*
X139300000Y-73680000D03*
X139300000Y-76220000D03*
X139300000Y-78760000D03*
X139300000Y-81300000D03*
X139300000Y-83840000D03*
X139300000Y-86380000D03*
X146920000Y-86380000D03*
X146920000Y-83840000D03*
X146920000Y-81300000D03*
X146920000Y-78760000D03*
X146920000Y-76220000D03*
X146920000Y-73680000D03*
X146920000Y-71140000D03*
X146920000Y-68600000D03*
%TD*%
%TO.C,R72*%
X54393000Y-83710000D03*
X67093000Y-83710000D03*
%TD*%
%TO.C,C67*%
X79700000Y-88860000D03*
X92400000Y-88860000D03*
%TD*%
%TO.C,TR7*%
X216800000Y-134200000D03*
X214158400Y-134200000D03*
X211542200Y-134200000D03*
%TD*%
%TO.C,R70*%
X138600000Y-130800000D03*
X151300000Y-130800000D03*
%TD*%
%TO.C,C2*%
X70130700Y-121200000D03*
X82830700Y-121200000D03*
%TD*%
%TO.C,IC18*%
X155200000Y-125600000D03*
X155200000Y-128140000D03*
X155200000Y-130680000D03*
X155200000Y-133220000D03*
X155200000Y-135760000D03*
X155200000Y-138300000D03*
X155200000Y-140840000D03*
X155200000Y-143380000D03*
X162820000Y-143380000D03*
X162820000Y-140840000D03*
X162820000Y-138300000D03*
X162820000Y-135760000D03*
X162820000Y-133220000D03*
X162820000Y-130680000D03*
X162820000Y-128140000D03*
X162820000Y-125600000D03*
%TD*%
%TO.C,IC4*%
X152600000Y-43100000D03*
X152600000Y-45640000D03*
X152600000Y-48180000D03*
X152600000Y-50720000D03*
X152600000Y-53260000D03*
X152600000Y-55800000D03*
X152600000Y-58340000D03*
X152600000Y-60880000D03*
X160220000Y-60880000D03*
X160220000Y-58340000D03*
X160220000Y-55800000D03*
X160220000Y-53260000D03*
X160220000Y-50720000D03*
X160220000Y-48180000D03*
X160220000Y-45640000D03*
X160220000Y-43100000D03*
%TD*%
%TO.C,R9*%
X128600000Y-119200000D03*
X141300000Y-119200000D03*
%TD*%
D38*
%TO.C,JROM1*%
X240200000Y-130200000D03*
X240200000Y-122580000D03*
X247820000Y-130200000D03*
X247820000Y-122580000D03*
%TD*%
D16*
%TO.C,IC26*%
X167700000Y-43070000D03*
X167700000Y-45610000D03*
X167700000Y-48150000D03*
X167700000Y-50690000D03*
X167700000Y-53230000D03*
X167700000Y-55770000D03*
X167700000Y-58310000D03*
X167700000Y-60850000D03*
X175320000Y-60850000D03*
X175320000Y-58310000D03*
X175320000Y-55770000D03*
X175320000Y-53230000D03*
X175320000Y-50690000D03*
X175320000Y-48150000D03*
X175320000Y-45610000D03*
X175320000Y-43070000D03*
%TD*%
%TO.C,R68*%
X54393000Y-101500000D03*
X67093000Y-101500000D03*
%TD*%
D18*
%TO.C,C25*%
X49830000Y-98440000D03*
X49830000Y-118440000D03*
%TD*%
D16*
%TO.C,C71*%
X95665300Y-104200000D03*
X108365300Y-104200000D03*
%TD*%
%TO.C,C48*%
X79700000Y-78710000D03*
X92400000Y-78710000D03*
%TD*%
%TO.C,R51*%
X47320000Y-63526000D03*
X60020000Y-63526000D03*
%TD*%
%TO.C,R71*%
X138600000Y-133300000D03*
X151300000Y-133300000D03*
%TD*%
%TO.C,D19*%
X252900000Y-102700000D03*
X240200000Y-102700000D03*
%TD*%
%TO.C,C35*%
X101800000Y-39300000D03*
X101800000Y-51700000D03*
%TD*%
%TO.C,R46*%
X77700000Y-60940000D03*
X90400000Y-60940000D03*
%TD*%
%TO.C,R42*%
X54393000Y-86260000D03*
X67093000Y-86260000D03*
%TD*%
%TO.C,C30*%
X95500000Y-96500000D03*
X108200000Y-96500000D03*
%TD*%
%TO.C,R30*%
X209700000Y-80600000D03*
X222400000Y-80600000D03*
%TD*%
%TO.C,IC20*%
X180500000Y-97900000D03*
X180500000Y-100440000D03*
X180500000Y-102980000D03*
X180500000Y-105520000D03*
X180500000Y-108060000D03*
X180500000Y-110600000D03*
X180500000Y-113140000D03*
X180500000Y-115680000D03*
X188120000Y-115680000D03*
X188120000Y-113140000D03*
X188120000Y-110600000D03*
X188120000Y-108060000D03*
X188120000Y-105520000D03*
X188120000Y-102980000D03*
X188120000Y-100440000D03*
X188120000Y-97900000D03*
%TD*%
%TO.C,IC15*%
X185600000Y-125600000D03*
X185600000Y-128140000D03*
X185600000Y-130680000D03*
X185600000Y-133220000D03*
X185600000Y-135760000D03*
X185600000Y-138300000D03*
X185600000Y-140840000D03*
X185600000Y-143380000D03*
X193220000Y-143380000D03*
X193220000Y-140840000D03*
X193220000Y-138300000D03*
X193220000Y-135760000D03*
X193220000Y-133220000D03*
X193220000Y-130680000D03*
X193220000Y-128140000D03*
X193220000Y-125600000D03*
%TD*%
%TO.C,C58*%
X176900000Y-120100000D03*
X189600000Y-120100000D03*
%TD*%
%TO.C,C76*%
X54372100Y-76100000D03*
X67072100Y-76100000D03*
%TD*%
%TO.C,R1*%
X128600000Y-114100000D03*
X141300000Y-114100000D03*
%TD*%
%TO.C,TR4*%
X237800000Y-117100000D03*
X237800000Y-114458400D03*
X237800000Y-111842200D03*
%TD*%
%TO.C,C40*%
X54393000Y-93950000D03*
X67093000Y-93950000D03*
%TD*%
%TO.C,IC16*%
X175400000Y-125600000D03*
X175400000Y-128140000D03*
X175400000Y-130680000D03*
X175400000Y-133220000D03*
X175400000Y-135760000D03*
X175400000Y-138300000D03*
X175400000Y-140840000D03*
X175400000Y-143380000D03*
X183020000Y-143380000D03*
X183020000Y-140840000D03*
X183020000Y-138300000D03*
X183020000Y-135760000D03*
X183020000Y-133220000D03*
X183020000Y-130680000D03*
X183020000Y-128140000D03*
X183020000Y-125600000D03*
%TD*%
D39*
%TO.C,TR2*%
X62573000Y-66060000D03*
X65214600Y-66060000D03*
X67830800Y-66060000D03*
%TD*%
D16*
%TO.C,R62*%
X225000000Y-88900000D03*
X237700000Y-88900000D03*
%TD*%
%TO.C,R20*%
X112360000Y-62000000D03*
X125060000Y-62000000D03*
%TD*%
%TO.C,R15*%
X145000000Y-100400000D03*
X157700000Y-100400000D03*
%TD*%
%TO.C,R63*%
X79800000Y-111100000D03*
X92500000Y-111100000D03*
%TD*%
%TO.C,R47*%
X54393000Y-91260000D03*
X67093000Y-91260000D03*
%TD*%
%TO.C,C39*%
X77700000Y-66010000D03*
X90400000Y-66010000D03*
%TD*%
%TO.C,D3*%
X222400000Y-95900000D03*
X209700000Y-95900000D03*
%TD*%
%TO.C,R3*%
X128600000Y-109000000D03*
X141300000Y-109000000D03*
%TD*%
%TO.C,R77*%
X95500000Y-93900000D03*
X108200000Y-93900000D03*
%TD*%
%TO.C,D9*%
X222500000Y-130700000D03*
X209800000Y-130700000D03*
%TD*%
%TO.C,R36*%
X96400000Y-39300000D03*
X96400000Y-51700000D03*
%TD*%
D18*
%TO.C,C27*%
X204100000Y-96800000D03*
X204100000Y-116800000D03*
%TD*%
D16*
%TO.C,R5*%
X128600000Y-103900000D03*
X141300000Y-103900000D03*
%TD*%
D22*
%TO.C,TI1*%
X126300000Y-29350000D03*
X133920000Y-29350000D03*
%TD*%
D16*
%TO.C,TR1*%
X59023000Y-66110000D03*
X56381400Y-66110000D03*
X53765200Y-66110000D03*
%TD*%
%TO.C,R19*%
X112360000Y-51700000D03*
X125060000Y-51700000D03*
%TD*%
%TO.C,IC5*%
X205800000Y-43100000D03*
X205800000Y-45640000D03*
X205800000Y-48180000D03*
X205800000Y-50720000D03*
X205800000Y-53260000D03*
X205800000Y-55800000D03*
X205800000Y-58340000D03*
X205800000Y-60880000D03*
X205800000Y-63420000D03*
X205800000Y-65960000D03*
X205800000Y-68500000D03*
X205800000Y-71040000D03*
X205800000Y-73580000D03*
X205800000Y-76120000D03*
X221040000Y-76120000D03*
X221040000Y-73580000D03*
X221040000Y-71040000D03*
X221040000Y-68500000D03*
X221040000Y-65960000D03*
X221040000Y-63420000D03*
X221040000Y-60880000D03*
X221040000Y-58340000D03*
X221040000Y-55800000D03*
X221040000Y-53260000D03*
X221040000Y-50720000D03*
X221040000Y-48180000D03*
X221040000Y-45640000D03*
X221040000Y-43100000D03*
%TD*%
%TO.C,C4*%
X110848800Y-121300000D03*
X123548800Y-121300000D03*
%TD*%
D18*
%TO.C,C65*%
X49831000Y-95900000D03*
X49831000Y-75580000D03*
%TD*%
D16*
%TO.C,R18*%
X112360000Y-46700000D03*
X125060000Y-46700000D03*
%TD*%
D40*
%TO.C,R57*%
X224900000Y-123800000D03*
X237600000Y-123800000D03*
%TD*%
D16*
%TO.C,D6*%
X222400000Y-103300000D03*
X209700000Y-103300000D03*
%TD*%
%TO.C,C5*%
X59991000Y-147700000D03*
X72691000Y-147700000D03*
%TD*%
%TO.C,R25*%
X79700000Y-86250000D03*
X92400000Y-86250000D03*
%TD*%
%TO.C,R48*%
X54393000Y-88780000D03*
X67093000Y-88780000D03*
%TD*%
%TO.C,IC7*%
X110981800Y-125600000D03*
X110981800Y-128140000D03*
X110981800Y-130680000D03*
X110981800Y-133220000D03*
X110981800Y-135760000D03*
X110981800Y-138300000D03*
X110981800Y-140840000D03*
X110981800Y-143380000D03*
X118601800Y-143380000D03*
X118601800Y-140840000D03*
X118601800Y-138300000D03*
X118601800Y-135760000D03*
X118601800Y-133220000D03*
X118601800Y-130680000D03*
X118601800Y-128140000D03*
X118601800Y-125600000D03*
%TD*%
%TO.C,C75*%
X95697500Y-98930000D03*
X108397500Y-98930000D03*
%TD*%
%TO.C,R67*%
X54393000Y-104000000D03*
X67093000Y-104000000D03*
%TD*%
%TO.C,C73*%
X112360000Y-44200000D03*
X125060000Y-44200000D03*
%TD*%
%TO.C,R61*%
X240200000Y-83600000D03*
X252900000Y-83600000D03*
%TD*%
D20*
%TO.C,MIC1*%
X112591850Y-31559800D03*
D28*
X112591850Y-35700000D03*
D21*
X122243850Y-35700000D03*
%TD*%
D40*
%TO.C,R32*%
X150000000Y-43100000D03*
X150000000Y-55800000D03*
%TD*%
D16*
%TO.C,IC2*%
X183100000Y-43200000D03*
X183100000Y-45740000D03*
X183100000Y-48280000D03*
X183100000Y-50820000D03*
X183100000Y-53360000D03*
X183100000Y-55900000D03*
X183100000Y-58440000D03*
X183100000Y-60980000D03*
X183100000Y-63520000D03*
X183100000Y-66060000D03*
X183100000Y-68600000D03*
X183100000Y-71140000D03*
X183100000Y-73680000D03*
X183100000Y-76220000D03*
X183100000Y-78760000D03*
X183100000Y-81300000D03*
X183100000Y-83840000D03*
X183100000Y-86380000D03*
X183100000Y-88920000D03*
X183100000Y-91460000D03*
X198340000Y-91460000D03*
X198340000Y-88920000D03*
X198340000Y-86380000D03*
X198340000Y-83840000D03*
X198340000Y-81300000D03*
X198340000Y-78760000D03*
X198340000Y-76220000D03*
X198340000Y-73680000D03*
X198340000Y-71140000D03*
X198340000Y-68600000D03*
X198340000Y-66060000D03*
X198340000Y-63520000D03*
X198340000Y-60980000D03*
X198340000Y-58440000D03*
X198340000Y-55900000D03*
X198340000Y-53360000D03*
X198340000Y-50820000D03*
X198340000Y-48280000D03*
X198340000Y-45740000D03*
X198340000Y-43200000D03*
%TD*%
%TO.C,R75*%
X95648100Y-111700000D03*
X108348100Y-111700000D03*
%TD*%
%TO.C,R33*%
X224900000Y-126300000D03*
X237600000Y-126300000D03*
%TD*%
D22*
%TO.C,OKI1*%
X137770000Y-29350000D03*
X145390000Y-29350000D03*
%TD*%
%TO.C,L2*%
X238508667Y-54043235D03*
X239611333Y-60296765D03*
%TD*%
D16*
%TO.C,D1*%
X222400000Y-90800000D03*
X209700000Y-90800000D03*
%TD*%
%TO.C,C64*%
X138600000Y-125700000D03*
X151300000Y-125700000D03*
%TD*%
%TO.C,D5*%
X222400000Y-100800000D03*
X209700000Y-100800000D03*
%TD*%
%TO.C,C49*%
X225000000Y-83800000D03*
X237700000Y-83800000D03*
%TD*%
%TO.C,C69*%
X95673000Y-101500000D03*
X108373000Y-101500000D03*
%TD*%
%TO.C,R8*%
X128600000Y-96320000D03*
X141300000Y-96320000D03*
%TD*%
%TO.C,R78*%
X95500000Y-86230000D03*
X108200000Y-86230000D03*
%TD*%
%TO.C,C38*%
X77700000Y-63460000D03*
X90400000Y-63460000D03*
%TD*%
%TO.C,R64*%
X54393000Y-96460000D03*
X67093000Y-96460000D03*
%TD*%
%TO.C,C37*%
X77700000Y-68460000D03*
X90400000Y-68460000D03*
%TD*%
%TO.C,R4*%
X128600000Y-106500000D03*
X141300000Y-106500000D03*
%TD*%
%TO.C,R69*%
X54393000Y-98960000D03*
X67093000Y-98960000D03*
%TD*%
M02*
