ISO-10303-21;
HEADER;
/* Generated by software containing ST-Developer
 * from STEP Tools, Inc. (www.steptools.com) 
 */

FILE_DESCRIPTION(
/* description */ (''),
/* implementation_level */ '2;1');

FILE_NAME(
/* name */ 'CAP_AXIAL_THT_L5.1-D3.1-P12.70.step',
/* time_stamp */ '2026-09-27T19:45:02+02:00',
/* author */ (''),
/* organization */ (''),
/* preprocessor_version */ 'ST-DEVELOPER v20.2',
/* originating_system */ 'Autodesk Translation Framework v15.15.0.0',
/* authorisation */ '');

FILE_SCHEMA (('AUTOMOTIVE_DESIGN { 1 0 10303 214 3 1 1 }'));
ENDSEC;

DATA;
#10=MECHANICAL_DESIGN_GEOMETRIC_PRESENTATION_REPRESENTATION('',(#23,#24),
#528);
#11=ITEM_DEFINED_TRANSFORMATION($,$,#233,#268);
#12=ITEM_DEFINED_TRANSFORMATION($,$,#232,#269);
#13=(
REPRESENTATION_RELATIONSHIP($,$,#543,#542)
REPRESENTATION_RELATIONSHIP_WITH_TRANSFORMATION(#11)
SHAPE_REPRESENTATION_RELATIONSHIP()
);
#14=(
REPRESENTATION_RELATIONSHIP($,$,#542,#541)
REPRESENTATION_RELATIONSHIP_WITH_TRANSFORMATION(#12)
SHAPE_REPRESENTATION_RELATIONSHIP()
);
#15=CONTEXT_DEPENDENT_SHAPE_REPRESENTATION(#13,#539);
#16=CONTEXT_DEPENDENT_SHAPE_REPRESENTATION(#14,#540);
#17=NEXT_ASSEMBLY_USAGE_OCCURRENCE('Pins:1','Pins:1','Pins:1',#546,#547,
'Pins:1');
#18=NEXT_ASSEMBLY_USAGE_OCCURRENCE('Capacitor Body:1',
'Capacitor Body:1','Capacitor Body:1',#545,#546,'Capacitor Body:1');
#19=SHAPE_REPRESENTATION_RELATIONSHIP('SRR','None',#543,#21);
#20=SHAPE_REPRESENTATION_RELATIONSHIP('SRR','None',#542,#22);
#21=ADVANCED_BREP_SHAPE_REPRESENTATION('',(#25),#527);
#22=ADVANCED_BREP_SHAPE_REPRESENTATION('',(#26),#526);
#23=STYLED_ITEM('',(#562),#25);
#24=STYLED_ITEM('',(#561),#26);
#25=MANIFOLD_SOLID_BREP('Body1',#217);
#26=MANIFOLD_SOLID_BREP('Body1',#218);
#27=TOROIDAL_SURFACE('',#248,0.508,0.254);
#28=TOROIDAL_SURFACE('',#255,0.508000000000001,0.254);
#29=PLANE('',#240);
#30=PLANE('',#247);
#31=PLANE('',#264);
#32=PLANE('',#267);
#33=LINE('',#389,#37);
#34=LINE('',#430,#38);
#35=LINE('',#441,#39);
#36=LINE('',#483,#40);
#37=VECTOR('',#284,0.254);
#38=VECTOR('',#301,0.254);
#39=VECTOR('',#316,0.254);
#40=VECTOR('',#335,1.3);
#41=CYLINDRICAL_SURFACE('',#237,0.254);
#42=CYLINDRICAL_SURFACE('',#244,0.254);
#43=CYLINDRICAL_SURFACE('',#252,0.254);
#44=CYLINDRICAL_SURFACE('',#261,1.3);
#45=FACE_OUTER_BOUND('',#59,.T.);
#46=FACE_OUTER_BOUND('',#60,.T.);
#47=FACE_OUTER_BOUND('',#61,.T.);
#48=FACE_OUTER_BOUND('',#62,.T.);
#49=FACE_OUTER_BOUND('',#63,.T.);
#50=FACE_OUTER_BOUND('',#64,.T.);
#51=FACE_OUTER_BOUND('',#65,.T.);
#52=FACE_OUTER_BOUND('',#66,.T.);
#53=FACE_OUTER_BOUND('',#67,.T.);
#54=FACE_OUTER_BOUND('',#68,.T.);
#55=FACE_OUTER_BOUND('',#69,.T.);
#56=FACE_OUTER_BOUND('',#70,.T.);
#57=FACE_OUTER_BOUND('',#71,.T.);
#58=FACE_OUTER_BOUND('',#72,.T.);
#59=EDGE_LOOP('',(#143,#144,#145,#146));
#60=EDGE_LOOP('',(#147,#148,#149,#150,#151));
#61=EDGE_LOOP('',(#152));
#62=EDGE_LOOP('',(#153,#154,#155,#156));
#63=EDGE_LOOP('',(#157,#158,#159,#160,#161));
#64=EDGE_LOOP('',(#162));
#65=EDGE_LOOP('',(#163,#164,#165,#166,#167,#168));
#66=EDGE_LOOP('',(#169,#170,#171,#172,#173,#174));
#67=EDGE_LOOP('',(#175,#176,#177,#178,#179,#180));
#68=EDGE_LOOP('',(#181,#182,#183,#184,#185));
#69=EDGE_LOOP('',(#186,#187,#188,#189,#190,#191));
#70=EDGE_LOOP('',(#192));
#71=EDGE_LOOP('',(#193,#194,#195,#196,#197));
#72=EDGE_LOOP('',(#198));
#73=CIRCLE('',#234,0.104);
#74=CIRCLE('',#235,0.15);
#75=CIRCLE('',#236,0.254);
#76=CIRCLE('',#238,0.254);
#77=CIRCLE('',#239,0.254);
#78=CIRCLE('',#241,0.254);
#79=CIRCLE('',#242,0.15);
#80=CIRCLE('',#243,0.104);
#81=CIRCLE('',#245,0.254);
#82=CIRCLE('',#246,0.254);
#83=CIRCLE('',#249,0.254);
#84=CIRCLE('',#250,0.254);
#85=CIRCLE('',#251,0.254);
#86=CIRCLE('',#253,0.254);
#87=CIRCLE('',#254,0.254);
#88=CIRCLE('',#256,0.254000000000001);
#89=CIRCLE('',#257,0.3);
#90=CIRCLE('',#258,1.);
#91=CIRCLE('',#259,1.3);
#92=CIRCLE('',#260,1.3);
#93=CIRCLE('',#262,1.3);
#94=CIRCLE('',#263,1.3);
#95=CIRCLE('',#265,0.3);
#96=CIRCLE('',#266,1.);
#97=VERTEX_POINT('',#382);
#98=VERTEX_POINT('',#384);
#99=VERTEX_POINT('',#388);
#100=VERTEX_POINT('',#390);
#101=VERTEX_POINT('',#421);
#102=VERTEX_POINT('',#423);
#103=VERTEX_POINT('',#427);
#104=VERTEX_POINT('',#428);
#105=VERTEX_POINT('',#434);
#106=VERTEX_POINT('',#436);
#107=VERTEX_POINT('',#440);
#108=VERTEX_POINT('',#442);
#109=VERTEX_POINT('',#474);
#110=VERTEX_POINT('',#476);
#111=VERTEX_POINT('',#478);
#112=VERTEX_POINT('',#482);
#113=VERTEX_POINT('',#484);
#114=VERTEX_POINT('',#515);
#115=EDGE_CURVE('',#97,#97,#73,.T.);
#116=EDGE_CURVE('',#97,#98,#74,.T.);
#117=EDGE_CURVE('',#98,#98,#75,.T.);
#118=EDGE_CURVE('',#98,#99,#33,.T.);
#119=EDGE_CURVE('',#99,#100,#76,.T.);
#120=EDGE_CURVE('',#100,#99,#77,.T.);
#121=EDGE_CURVE('',#101,#101,#78,.T.);
#122=EDGE_CURVE('',#101,#102,#79,.T.);
#123=EDGE_CURVE('',#102,#102,#80,.T.);
#124=EDGE_CURVE('',#103,#104,#81,.T.);
#125=EDGE_CURVE('',#103,#101,#34,.T.);
#126=EDGE_CURVE('',#104,#103,#82,.T.);
#127=EDGE_CURVE('',#100,#105,#83,.T.);
#128=EDGE_CURVE('',#105,#106,#84,.T.);
#129=EDGE_CURVE('',#106,#105,#85,.T.);
#130=EDGE_CURVE('',#106,#107,#35,.T.);
#131=EDGE_CURVE('',#107,#108,#86,.T.);
#132=EDGE_CURVE('',#108,#107,#87,.T.);
#133=EDGE_CURVE('',#108,#104,#88,.T.);
#134=EDGE_CURVE('',#109,#109,#89,.T.);
#135=EDGE_CURVE('',#109,#110,#90,.T.);
#136=EDGE_CURVE('',#110,#111,#91,.T.);
#137=EDGE_CURVE('',#111,#110,#92,.T.);
#138=EDGE_CURVE('',#111,#112,#36,.T.);
#139=EDGE_CURVE('',#113,#112,#93,.T.);
#140=EDGE_CURVE('',#112,#113,#94,.T.);
#141=EDGE_CURVE('',#114,#114,#95,.T.);
#142=EDGE_CURVE('',#114,#113,#96,.T.);
#143=ORIENTED_EDGE('',*,*,#115,.T.);
#144=ORIENTED_EDGE('',*,*,#116,.T.);
#145=ORIENTED_EDGE('',*,*,#117,.T.);
#146=ORIENTED_EDGE('',*,*,#116,.F.);
#147=ORIENTED_EDGE('',*,*,#117,.F.);
#148=ORIENTED_EDGE('',*,*,#118,.T.);
#149=ORIENTED_EDGE('',*,*,#119,.T.);
#150=ORIENTED_EDGE('',*,*,#120,.T.);
#151=ORIENTED_EDGE('',*,*,#118,.F.);
#152=ORIENTED_EDGE('',*,*,#115,.F.);
#153=ORIENTED_EDGE('',*,*,#121,.T.);
#154=ORIENTED_EDGE('',*,*,#122,.T.);
#155=ORIENTED_EDGE('',*,*,#123,.T.);
#156=ORIENTED_EDGE('',*,*,#122,.F.);
#157=ORIENTED_EDGE('',*,*,#124,.F.);
#158=ORIENTED_EDGE('',*,*,#125,.T.);
#159=ORIENTED_EDGE('',*,*,#121,.F.);
#160=ORIENTED_EDGE('',*,*,#125,.F.);
#161=ORIENTED_EDGE('',*,*,#126,.F.);
#162=ORIENTED_EDGE('',*,*,#123,.F.);
#163=ORIENTED_EDGE('',*,*,#119,.F.);
#164=ORIENTED_EDGE('',*,*,#120,.F.);
#165=ORIENTED_EDGE('',*,*,#127,.T.);
#166=ORIENTED_EDGE('',*,*,#128,.T.);
#167=ORIENTED_EDGE('',*,*,#129,.T.);
#168=ORIENTED_EDGE('',*,*,#127,.F.);
#169=ORIENTED_EDGE('',*,*,#129,.F.);
#170=ORIENTED_EDGE('',*,*,#130,.T.);
#171=ORIENTED_EDGE('',*,*,#131,.T.);
#172=ORIENTED_EDGE('',*,*,#132,.T.);
#173=ORIENTED_EDGE('',*,*,#130,.F.);
#174=ORIENTED_EDGE('',*,*,#128,.F.);
#175=ORIENTED_EDGE('',*,*,#131,.F.);
#176=ORIENTED_EDGE('',*,*,#132,.F.);
#177=ORIENTED_EDGE('',*,*,#133,.T.);
#178=ORIENTED_EDGE('',*,*,#126,.T.);
#179=ORIENTED_EDGE('',*,*,#124,.T.);
#180=ORIENTED_EDGE('',*,*,#133,.F.);
#181=ORIENTED_EDGE('',*,*,#134,.T.);
#182=ORIENTED_EDGE('',*,*,#135,.T.);
#183=ORIENTED_EDGE('',*,*,#136,.T.);
#184=ORIENTED_EDGE('',*,*,#137,.T.);
#185=ORIENTED_EDGE('',*,*,#135,.F.);
#186=ORIENTED_EDGE('',*,*,#137,.F.);
#187=ORIENTED_EDGE('',*,*,#138,.T.);
#188=ORIENTED_EDGE('',*,*,#139,.F.);
#189=ORIENTED_EDGE('',*,*,#140,.F.);
#190=ORIENTED_EDGE('',*,*,#138,.F.);
#191=ORIENTED_EDGE('',*,*,#136,.F.);
#192=ORIENTED_EDGE('',*,*,#134,.F.);
#193=ORIENTED_EDGE('',*,*,#141,.T.);
#194=ORIENTED_EDGE('',*,*,#142,.T.);
#195=ORIENTED_EDGE('',*,*,#139,.T.);
#196=ORIENTED_EDGE('',*,*,#140,.T.);
#197=ORIENTED_EDGE('',*,*,#142,.F.);
#198=ORIENTED_EDGE('',*,*,#141,.F.);
#199=(
BOUNDED_SURFACE()
B_SPLINE_SURFACE(2,2,((#355,#356,#357,#358,#359,#360,#361,#362,#363),(#364,
#365,#366,#367,#368,#369,#370,#371,#372),(#373,#374,#375,#376,#377,#378,
#379,#380,#381)),.UNSPECIFIED.,.F.,.T.,.F.)
B_SPLINE_SURFACE_WITH_KNOTS((3,3),(3,2,2,2,3),(-7.01792844955348E-16,1.5707963267949),
(-3.14159265358979,-1.5707963267949,0.,1.5707963267949,3.14159265358979),
 .UNSPECIFIED.)
GEOMETRIC_REPRESENTATION_ITEM()
RATIONAL_B_SPLINE_SURFACE(((1.,0.707106781186548,1.,0.707106781186548,1.,
0.707106781186548,1.,0.707106781186548,1.),(0.707106781186543,0.499999999999997,
0.707106781186543,0.499999999999997,0.707106781186543,0.499999999999997,
0.707106781186543,0.499999999999997,0.707106781186543),(1.,0.707106781186548,
1.,0.707106781186548,1.,0.707106781186548,1.,0.707106781186548,1.)))
REPRESENTATION_ITEM('')
SURFACE()
);
#200=(
BOUNDED_SURFACE()
B_SPLINE_SURFACE(2,2,((#394,#395,#396,#397,#398,#399,#400,#401,#402),(#403,
#404,#405,#406,#407,#408,#409,#410,#411),(#412,#413,#414,#415,#416,#417,
#418,#419,#420)),.UNSPECIFIED.,.F.,.T.,.F.)
B_SPLINE_SURFACE_WITH_KNOTS((3,3),(3,2,2,2,3),(-1.5707963267949,0.),(-3.14159265358979,
-1.5707963267949,0.,1.5707963267949,3.14159265358979),.UNSPECIFIED.)
GEOMETRIC_REPRESENTATION_ITEM()
RATIONAL_B_SPLINE_SURFACE(((1.,0.707106781186548,1.,0.707106781186548,1.,
0.707106781186548,1.,0.707106781186548,1.),(0.707106781186551,0.500000000000002,
0.707106781186551,0.500000000000002,0.707106781186551,0.500000000000002,
0.707106781186551,0.500000000000002,0.707106781186551),(1.,0.707106781186548,
1.,0.707106781186548,1.,0.707106781186548,1.,0.707106781186548,1.)))
REPRESENTATION_ITEM('')
SURFACE()
);
#201=(
BOUNDED_SURFACE()
B_SPLINE_SURFACE(2,2,((#447,#448,#449,#450,#451,#452,#453,#454,#455),(#456,
#457,#458,#459,#460,#461,#462,#463,#464),(#465,#466,#467,#468,#469,#470,
#471,#472,#473)),.UNSPECIFIED.,.F.,.T.,.F.)
B_SPLINE_SURFACE_WITH_KNOTS((3,3),(3,2,2,2,3),(0.,1.5707963267949),(-3.14159265358979,
-1.5707963267949,0.,1.5707963267949,3.14159265358979),.UNSPECIFIED.)
GEOMETRIC_REPRESENTATION_ITEM()
RATIONAL_B_SPLINE_SURFACE(((1.,0.707106781186548,1.,0.707106781186548,1.,
0.707106781186548,1.,0.707106781186548,1.),(0.707106781186548,0.5,0.707106781186548,
0.5,0.707106781186548,0.5,0.707106781186548,0.5,0.707106781186548),(1.,
0.707106781186548,1.,0.707106781186548,1.,0.707106781186548,1.,0.707106781186548,
1.)))
REPRESENTATION_ITEM('')
SURFACE()
);
#202=(
BOUNDED_SURFACE()
B_SPLINE_SURFACE(2,2,((#488,#489,#490,#491,#492,#493,#494,#495,#496),(#497,
#498,#499,#500,#501,#502,#503,#504,#505),(#506,#507,#508,#509,#510,#511,
#512,#513,#514)),.UNSPECIFIED.,.F.,.T.,.F.)
B_SPLINE_SURFACE_WITH_KNOTS((3,3),(3,2,2,2,3),(0.,1.5707963267949),(-3.14159265358979,
-1.5707963267949,0.,1.5707963267949,3.14159265358979),.UNSPECIFIED.)
GEOMETRIC_REPRESENTATION_ITEM()
RATIONAL_B_SPLINE_SURFACE(((1.,0.707106781186548,1.,0.707106781186548,1.,
0.707106781186548,1.,0.707106781186548,1.),(0.707106781186547,0.5,0.707106781186547,
0.5,0.707106781186547,0.5,0.707106781186547,0.5,0.707106781186547),(1.,
0.707106781186548,1.,0.707106781186548,1.,0.707106781186548,1.,0.707106781186548,
1.)))
REPRESENTATION_ITEM('')
SURFACE()
);
#203=ADVANCED_FACE('',(#45),#199,.F.);
#204=ADVANCED_FACE('',(#46),#41,.T.);
#205=ADVANCED_FACE('',(#47),#29,.T.);
#206=ADVANCED_FACE('',(#48),#200,.F.);
#207=ADVANCED_FACE('',(#49),#42,.T.);
#208=ADVANCED_FACE('',(#50),#30,.F.);
#209=ADVANCED_FACE('',(#51),#27,.T.);
#210=ADVANCED_FACE('',(#52),#43,.T.);
#211=ADVANCED_FACE('',(#53),#28,.T.);
#212=ADVANCED_FACE('',(#54),#201,.F.);
#213=ADVANCED_FACE('',(#55),#44,.T.);
#214=ADVANCED_FACE('',(#56),#31,.T.);
#215=ADVANCED_FACE('',(#57),#202,.F.);
#216=ADVANCED_FACE('',(#58),#32,.F.);
#217=CLOSED_SHELL('',(#203,#204,#205,#206,#207,#208,#209,#210,#211));
#218=CLOSED_SHELL('',(#212,#213,#214,#215,#216));
#219=DERIVED_UNIT_ELEMENT(#221,1.);
#220=DERIVED_UNIT_ELEMENT(#530,-3.);
#221=(
MASS_UNIT()
NAMED_UNIT(*)
SI_UNIT(.KILO.,.GRAM.)
);
#222=DERIVED_UNIT((#219,#220));
#223=MEASURE_REPRESENTATION_ITEM('density measure',
POSITIVE_RATIO_MEASURE(7850.),#222);
#224=PROPERTY_DEFINITION_REPRESENTATION(#229,#226);
#225=PROPERTY_DEFINITION_REPRESENTATION(#230,#227);
#226=REPRESENTATION('material name',(#228),#527);
#227=REPRESENTATION('density',(#223),#527);
#228=DESCRIPTIVE_REPRESENTATION_ITEM('Steel','Steel');
#229=PROPERTY_DEFINITION('material property','material name',#547);
#230=PROPERTY_DEFINITION('material property','density of part',#547);
#231=AXIS2_PLACEMENT_3D('',#352,#270,#271);
#232=AXIS2_PLACEMENT_3D('',#353,#272,#273);
#233=AXIS2_PLACEMENT_3D('',#354,#274,#275);
#234=AXIS2_PLACEMENT_3D('',#383,#276,#277);
#235=AXIS2_PLACEMENT_3D('',#385,#278,#279);
#236=AXIS2_PLACEMENT_3D('',#386,#280,#281);
#237=AXIS2_PLACEMENT_3D('',#387,#282,#283);
#238=AXIS2_PLACEMENT_3D('',#391,#285,#286);
#239=AXIS2_PLACEMENT_3D('',#392,#287,#288);
#240=AXIS2_PLACEMENT_3D('',#393,#289,#290);
#241=AXIS2_PLACEMENT_3D('',#422,#291,#292);
#242=AXIS2_PLACEMENT_3D('',#424,#293,#294);
#243=AXIS2_PLACEMENT_3D('',#425,#295,#296);
#244=AXIS2_PLACEMENT_3D('',#426,#297,#298);
#245=AXIS2_PLACEMENT_3D('',#429,#299,#300);
#246=AXIS2_PLACEMENT_3D('',#431,#302,#303);
#247=AXIS2_PLACEMENT_3D('',#432,#304,#305);
#248=AXIS2_PLACEMENT_3D('',#433,#306,#307);
#249=AXIS2_PLACEMENT_3D('',#435,#308,#309);
#250=AXIS2_PLACEMENT_3D('',#437,#310,#311);
#251=AXIS2_PLACEMENT_3D('',#438,#312,#313);
#252=AXIS2_PLACEMENT_3D('',#439,#314,#315);
#253=AXIS2_PLACEMENT_3D('',#443,#317,#318);
#254=AXIS2_PLACEMENT_3D('',#444,#319,#320);
#255=AXIS2_PLACEMENT_3D('',#445,#321,#322);
#256=AXIS2_PLACEMENT_3D('',#446,#323,#324);
#257=AXIS2_PLACEMENT_3D('',#475,#325,#326);
#258=AXIS2_PLACEMENT_3D('',#477,#327,#328);
#259=AXIS2_PLACEMENT_3D('',#479,#329,#330);
#260=AXIS2_PLACEMENT_3D('',#480,#331,#332);
#261=AXIS2_PLACEMENT_3D('',#481,#333,#334);
#262=AXIS2_PLACEMENT_3D('',#485,#336,#337);
#263=AXIS2_PLACEMENT_3D('',#486,#338,#339);
#264=AXIS2_PLACEMENT_3D('',#487,#340,#341);
#265=AXIS2_PLACEMENT_3D('',#516,#342,#343);
#266=AXIS2_PLACEMENT_3D('',#517,#344,#345);
#267=AXIS2_PLACEMENT_3D('',#518,#346,#347);
#268=AXIS2_PLACEMENT_3D('',#519,#348,#349);
#269=AXIS2_PLACEMENT_3D('',#520,#350,#351);
#270=DIRECTION('axis',(0.,0.,1.));
#271=DIRECTION('refdir',(1.,0.,0.));
#272=DIRECTION('axis',(0.,0.,1.));
#273=DIRECTION('refdir',(1.,0.,0.));
#274=DIRECTION('axis',(0.,0.,1.));
#275=DIRECTION('refdir',(1.,0.,0.));
#276=DIRECTION('center_axis',(-4.78540138334039E-15,0.,1.));
#277=DIRECTION('ref_axis',(-1.,0.,-4.78540138334039E-15));
#278=DIRECTION('center_axis',(-1.22464679914735E-16,-1.,-5.86042648674313E-31));
#279=DIRECTION('ref_axis',(1.,-1.22464679914735E-16,4.37095678986283E-15));
#280=DIRECTION('center_axis',(4.78540138334039E-15,0.,-1.));
#281=DIRECTION('ref_axis',(-1.,0.,-4.78073398891245E-15));
#282=DIRECTION('center_axis',(0.,0.,-1.));
#283=DIRECTION('ref_axis',(-1.,0.,0.));
#284=DIRECTION('',(0.,0.,1.));
#285=DIRECTION('center_axis',(4.78540138334039E-15,0.,-1.));
#286=DIRECTION('ref_axis',(-1.,0.,-4.78540138334039E-15));
#287=DIRECTION('center_axis',(4.78540138334039E-15,0.,-1.));
#288=DIRECTION('ref_axis',(-1.,0.,-4.78540138334039E-15));
#289=DIRECTION('center_axis',(4.78540138334039E-15,0.,-1.));
#290=DIRECTION('ref_axis',(-1.,0.,-4.78540138334039E-15));
#291=DIRECTION('center_axis',(0.,0.,-1.));
#292=DIRECTION('ref_axis',(1.,0.,0.));
#293=DIRECTION('center_axis',(1.22464679914735E-16,-1.,0.));
#294=DIRECTION('ref_axis',(-1.,-1.22464679914735E-16,0.));
#295=DIRECTION('center_axis',(0.,0.,1.));
#296=DIRECTION('ref_axis',(1.,0.,0.));
#297=DIRECTION('center_axis',(0.,0.,1.));
#298=DIRECTION('ref_axis',(1.,0.,0.));
#299=DIRECTION('center_axis',(0.,0.,1.));
#300=DIRECTION('ref_axis',(1.,0.,0.));
#301=DIRECTION('',(0.,0.,-1.));
#302=DIRECTION('center_axis',(0.,0.,1.));
#303=DIRECTION('ref_axis',(1.,0.,0.));
#304=DIRECTION('center_axis',(0.,0.,1.));
#305=DIRECTION('ref_axis',(1.,0.,0.));
#306=DIRECTION('center_axis',(0.,1.,0.));
#307=DIRECTION('ref_axis',(0.,0.,1.));
#308=DIRECTION('center_axis',(0.,-1.,0.));
#309=DIRECTION('ref_axis',(0.,0.,1.));
#310=DIRECTION('center_axis',(1.,0.,2.28167838920768E-15));
#311=DIRECTION('ref_axis',(2.28167838920768E-15,0.,-1.));
#312=DIRECTION('center_axis',(1.,0.,2.28167838920768E-15));
#313=DIRECTION('ref_axis',(2.28167838920768E-15,0.,-1.));
#314=DIRECTION('center_axis',(1.,0.,-4.75103998898133E-17));
#315=DIRECTION('ref_axis',(-4.7510399889813E-17,0.,-1.));
#316=DIRECTION('',(-1.,0.,4.75103998898133E-17));
#317=DIRECTION('center_axis',(1.,0.,2.28167838920768E-15));
#318=DIRECTION('ref_axis',(2.28167838920768E-15,0.,-1.));
#319=DIRECTION('center_axis',(1.,0.,2.28167838920768E-15));
#320=DIRECTION('ref_axis',(2.28167838920768E-15,0.,-1.));
#321=DIRECTION('center_axis',(0.,1.,0.));
#322=DIRECTION('ref_axis',(0.,0.,1.));
#323=DIRECTION('center_axis',(0.,-1.,0.));
#324=DIRECTION('ref_axis',(0.,0.,1.));
#325=DIRECTION('center_axis',(-1.,0.,0.));
#326=DIRECTION('ref_axis',(0.,1.,0.));
#327=DIRECTION('center_axis',(0.,-1.,-1.22464679914735E-16));
#328=DIRECTION('ref_axis',(0.,-1.22464679914735E-16,1.));
#329=DIRECTION('center_axis',(1.,0.,0.));
#330=DIRECTION('ref_axis',(0.,1.,0.));
#331=DIRECTION('center_axis',(1.,0.,0.));
#332=DIRECTION('ref_axis',(0.,1.,0.));
#333=DIRECTION('center_axis',(1.,0.,0.));
#334=DIRECTION('ref_axis',(0.,1.,0.));
#335=DIRECTION('',(-1.,0.,0.));
#336=DIRECTION('center_axis',(-1.,0.,0.));
#337=DIRECTION('ref_axis',(0.,1.,0.));
#338=DIRECTION('center_axis',(-1.,0.,0.));
#339=DIRECTION('ref_axis',(0.,1.,0.));
#340=DIRECTION('center_axis',(1.,0.,0.));
#341=DIRECTION('ref_axis',(0.,1.,0.));
#342=DIRECTION('center_axis',(1.,0.,0.));
#343=DIRECTION('ref_axis',(0.,1.,0.));
#344=DIRECTION('center_axis',(0.,-1.,1.22464679914735E-16));
#345=DIRECTION('ref_axis',(0.,-1.22464679914735E-16,-1.));
#346=DIRECTION('center_axis',(1.,0.,0.));
#347=DIRECTION('ref_axis',(0.,1.,0.));
#348=DIRECTION('',(0.,0.,1.));
#349=DIRECTION('',(1.,0.,0.));
#350=DIRECTION('',(0.,0.,1.));
#351=DIRECTION('',(1.,0.,0.));
#352=CARTESIAN_POINT('',(0.,0.,0.));
#353=CARTESIAN_POINT('',(0.,0.,0.));
#354=CARTESIAN_POINT('',(0.,0.,0.));
#355=CARTESIAN_POINT('Ctrl Pts',(6.604,0.,-3.35));
#356=CARTESIAN_POINT('Ctrl Pts',(6.604,-0.254,-3.35));
#357=CARTESIAN_POINT('Ctrl Pts',(6.35,-0.254,-3.35));
#358=CARTESIAN_POINT('Ctrl Pts',(6.096,-0.254,-3.35));
#359=CARTESIAN_POINT('Ctrl Pts',(6.096,0.,-3.35));
#360=CARTESIAN_POINT('Ctrl Pts',(6.096,0.254,-3.35));
#361=CARTESIAN_POINT('Ctrl Pts',(6.35,0.254,-3.35));
#362=CARTESIAN_POINT('Ctrl Pts',(6.604,0.254,-3.35));
#363=CARTESIAN_POINT('Ctrl Pts',(6.604,0.,-3.35));
#364=CARTESIAN_POINT('Ctrl Pts',(6.604,0.,-3.5));
#365=CARTESIAN_POINT('Ctrl Pts',(6.604,-0.254,-3.5));
#366=CARTESIAN_POINT('Ctrl Pts',(6.35,-0.254,-3.5));
#367=CARTESIAN_POINT('Ctrl Pts',(6.096,-0.254,-3.5));
#368=CARTESIAN_POINT('Ctrl Pts',(6.096,0.,-3.5));
#369=CARTESIAN_POINT('Ctrl Pts',(6.096,0.254,-3.5));
#370=CARTESIAN_POINT('Ctrl Pts',(6.35,0.254,-3.5));
#371=CARTESIAN_POINT('Ctrl Pts',(6.604,0.254,-3.5));
#372=CARTESIAN_POINT('Ctrl Pts',(6.604,0.,-3.5));
#373=CARTESIAN_POINT('Ctrl Pts',(6.454,0.,-3.5));
#374=CARTESIAN_POINT('Ctrl Pts',(6.454,-0.104,-3.5));
#375=CARTESIAN_POINT('Ctrl Pts',(6.35,-0.104,-3.5));
#376=CARTESIAN_POINT('Ctrl Pts',(6.246,-0.104,-3.5));
#377=CARTESIAN_POINT('Ctrl Pts',(6.246,0.,-3.5));
#378=CARTESIAN_POINT('Ctrl Pts',(6.246,0.104,-3.5));
#379=CARTESIAN_POINT('Ctrl Pts',(6.35,0.104,-3.5));
#380=CARTESIAN_POINT('Ctrl Pts',(6.454,0.104,-3.5));
#381=CARTESIAN_POINT('Ctrl Pts',(6.454,0.,-3.5));
#382=CARTESIAN_POINT('',(6.454,1.27363267111324E-17,-3.5));
#383=CARTESIAN_POINT('Origin',(6.35,0.,-3.5));
#384=CARTESIAN_POINT('',(6.604,-3.11060286983427E-17,-3.35));
#385=CARTESIAN_POINT('Origin',(6.454,-1.27363267111324E-17,-3.35));
#386=CARTESIAN_POINT('Origin',(6.35,0.,-3.35));
#387=CARTESIAN_POINT('Origin',(6.35,0.,0.792));
#388=CARTESIAN_POINT('',(6.604,-3.11060286983427E-17,0.792000000000002));
#389=CARTESIAN_POINT('',(6.604,-3.11060286983427E-17,0.792));
#390=CARTESIAN_POINT('',(6.096,-3.11060286983427E-17,0.791999999999999));
#391=CARTESIAN_POINT('Origin',(6.35,0.,0.792));
#392=CARTESIAN_POINT('Origin',(6.35,0.,0.792));
#393=CARTESIAN_POINT('Origin',(6.35,0.,-3.5));
#394=CARTESIAN_POINT('Ctrl Pts',(-6.454,0.,-3.5));
#395=CARTESIAN_POINT('Ctrl Pts',(-6.454,-0.104,-3.5));
#396=CARTESIAN_POINT('Ctrl Pts',(-6.35,-0.104,-3.5));
#397=CARTESIAN_POINT('Ctrl Pts',(-6.246,-0.104,-3.5));
#398=CARTESIAN_POINT('Ctrl Pts',(-6.246,0.,-3.5));
#399=CARTESIAN_POINT('Ctrl Pts',(-6.246,0.104,-3.5));
#400=CARTESIAN_POINT('Ctrl Pts',(-6.35,0.104,-3.5));
#401=CARTESIAN_POINT('Ctrl Pts',(-6.454,0.104,-3.5));
#402=CARTESIAN_POINT('Ctrl Pts',(-6.454,0.,-3.5));
#403=CARTESIAN_POINT('Ctrl Pts',(-6.604,0.,-3.5));
#404=CARTESIAN_POINT('Ctrl Pts',(-6.604,-0.254,-3.5));
#405=CARTESIAN_POINT('Ctrl Pts',(-6.35,-0.254,-3.5));
#406=CARTESIAN_POINT('Ctrl Pts',(-6.096,-0.254,-3.5));
#407=CARTESIAN_POINT('Ctrl Pts',(-6.096,0.,-3.5));
#408=CARTESIAN_POINT('Ctrl Pts',(-6.096,0.254,-3.5));
#409=CARTESIAN_POINT('Ctrl Pts',(-6.35,0.254,-3.5));
#410=CARTESIAN_POINT('Ctrl Pts',(-6.604,0.254,-3.5));
#411=CARTESIAN_POINT('Ctrl Pts',(-6.604,0.,-3.5));
#412=CARTESIAN_POINT('Ctrl Pts',(-6.604,0.,-3.35));
#413=CARTESIAN_POINT('Ctrl Pts',(-6.604,-0.254,-3.35));
#414=CARTESIAN_POINT('Ctrl Pts',(-6.35,-0.254,-3.35));
#415=CARTESIAN_POINT('Ctrl Pts',(-6.096,-0.254,-3.35));
#416=CARTESIAN_POINT('Ctrl Pts',(-6.096,0.,-3.35));
#417=CARTESIAN_POINT('Ctrl Pts',(-6.096,0.254,-3.35));
#418=CARTESIAN_POINT('Ctrl Pts',(-6.35,0.254,-3.35));
#419=CARTESIAN_POINT('Ctrl Pts',(-6.604,0.254,-3.35));
#420=CARTESIAN_POINT('Ctrl Pts',(-6.604,0.,-3.35));
#421=CARTESIAN_POINT('',(-6.604,3.11060286983427E-17,-3.35));
#422=CARTESIAN_POINT('Origin',(-6.35,0.,-3.35));
#423=CARTESIAN_POINT('',(-6.454,-1.27363267111324E-17,-3.5));
#424=CARTESIAN_POINT('Origin',(-6.454,-1.27363267111324E-17,-3.35));
#425=CARTESIAN_POINT('Origin',(-6.35,0.,-3.5));
#426=CARTESIAN_POINT('Origin',(-6.35,0.,-3.5));
#427=CARTESIAN_POINT('',(-6.604,-3.11060286983427E-17,0.792));
#428=CARTESIAN_POINT('',(-6.096,-3.11060286983427E-17,0.792));
#429=CARTESIAN_POINT('Origin',(-6.35,0.,0.792));
#430=CARTESIAN_POINT('',(-6.604,-3.11060286983427E-17,-3.5));
#431=CARTESIAN_POINT('Origin',(-6.35,0.,0.792));
#432=CARTESIAN_POINT('Origin',(-6.35,0.,-3.5));
#433=CARTESIAN_POINT('Origin',(5.842,0.,0.792));
#434=CARTESIAN_POINT('',(5.842,-3.11060286983427E-17,1.046));
#435=CARTESIAN_POINT('Origin',(5.842,-3.11060286983427E-17,0.792));
#436=CARTESIAN_POINT('',(5.842,-3.11060286983427E-17,1.554));
#437=CARTESIAN_POINT('Origin',(5.842,0.,1.3));
#438=CARTESIAN_POINT('Origin',(5.842,0.,1.3));
#439=CARTESIAN_POINT('Origin',(-5.842,0.,1.3));
#440=CARTESIAN_POINT('',(-5.842,-3.11060286983427E-17,1.554));
#441=CARTESIAN_POINT('',(-5.842,-3.11060286983427E-17,1.554));
#442=CARTESIAN_POINT('',(-5.842,-3.11060286983427E-17,1.046));
#443=CARTESIAN_POINT('Origin',(-5.842,0.,1.3));
#444=CARTESIAN_POINT('Origin',(-5.842,0.,1.3));
#445=CARTESIAN_POINT('Origin',(-5.842,0.,0.792));
#446=CARTESIAN_POINT('Origin',(-5.842,-3.11060286983427E-17,0.792));
#447=CARTESIAN_POINT('Ctrl Pts',(1.55,0.,2.6));
#448=CARTESIAN_POINT('Ctrl Pts',(1.55,-1.3,2.6));
#449=CARTESIAN_POINT('Ctrl Pts',(1.55,-1.3,1.3));
#450=CARTESIAN_POINT('Ctrl Pts',(1.55,-1.3,2.77555756156289E-16));
#451=CARTESIAN_POINT('Ctrl Pts',(1.55,0.,0.));
#452=CARTESIAN_POINT('Ctrl Pts',(1.55,1.3,2.77555756156289E-16));
#453=CARTESIAN_POINT('Ctrl Pts',(1.55,1.3,1.3));
#454=CARTESIAN_POINT('Ctrl Pts',(1.55,1.3,2.6));
#455=CARTESIAN_POINT('Ctrl Pts',(1.55,0.,2.6));
#456=CARTESIAN_POINT('Ctrl Pts',(2.55,0.,2.6));
#457=CARTESIAN_POINT('Ctrl Pts',(2.55,-1.3,2.6));
#458=CARTESIAN_POINT('Ctrl Pts',(2.55,-1.3,1.3));
#459=CARTESIAN_POINT('Ctrl Pts',(2.55,-1.3,2.77555756156289E-16));
#460=CARTESIAN_POINT('Ctrl Pts',(2.55,0.,0.));
#461=CARTESIAN_POINT('Ctrl Pts',(2.55,1.3,2.77555756156289E-16));
#462=CARTESIAN_POINT('Ctrl Pts',(2.55,1.3,1.3));
#463=CARTESIAN_POINT('Ctrl Pts',(2.55,1.3,2.6));
#464=CARTESIAN_POINT('Ctrl Pts',(2.55,0.,2.6));
#465=CARTESIAN_POINT('Ctrl Pts',(2.55,0.,1.6));
#466=CARTESIAN_POINT('Ctrl Pts',(2.55,-0.3,1.6));
#467=CARTESIAN_POINT('Ctrl Pts',(2.55,-0.3,1.3));
#468=CARTESIAN_POINT('Ctrl Pts',(2.55,-0.3,1.));
#469=CARTESIAN_POINT('Ctrl Pts',(2.55,0.,1.));
#470=CARTESIAN_POINT('Ctrl Pts',(2.55,0.3,1.));
#471=CARTESIAN_POINT('Ctrl Pts',(2.55,0.3,1.3));
#472=CARTESIAN_POINT('Ctrl Pts',(2.55,0.3,1.6));
#473=CARTESIAN_POINT('Ctrl Pts',(2.55,0.,1.6));
#474=CARTESIAN_POINT('',(2.55,-3.67394039744206E-17,1.6));
#475=CARTESIAN_POINT('Origin',(2.55,0.,1.3));
#476=CARTESIAN_POINT('',(1.55,-1.59204083889156E-16,2.6));
#477=CARTESIAN_POINT('Origin',(1.55,-3.67394039744206E-17,1.6));
#478=CARTESIAN_POINT('',(1.55,-1.3,1.3));
#479=CARTESIAN_POINT('Origin',(1.55,0.,1.3));
#480=CARTESIAN_POINT('Origin',(1.55,0.,1.3));
#481=CARTESIAN_POINT('Origin',(0.,0.,1.3));
#482=CARTESIAN_POINT('',(-1.55,-1.3,1.3));
#483=CARTESIAN_POINT('',(0.,-1.3,1.3));
#484=CARTESIAN_POINT('',(-1.55,-1.59204083889156E-16,0.));
#485=CARTESIAN_POINT('Origin',(-1.55,0.,1.3));
#486=CARTESIAN_POINT('Origin',(-1.55,0.,1.3));
#487=CARTESIAN_POINT('Origin',(2.55,0.,1.3));
#488=CARTESIAN_POINT('Ctrl Pts',(-1.55,0.,0.));
#489=CARTESIAN_POINT('Ctrl Pts',(-1.55,-1.3,2.77555756156289E-16));
#490=CARTESIAN_POINT('Ctrl Pts',(-1.55,-1.3,1.3));
#491=CARTESIAN_POINT('Ctrl Pts',(-1.55,-1.3,2.6));
#492=CARTESIAN_POINT('Ctrl Pts',(-1.55,0.,2.6));
#493=CARTESIAN_POINT('Ctrl Pts',(-1.55,1.3,2.6));
#494=CARTESIAN_POINT('Ctrl Pts',(-1.55,1.3,1.3));
#495=CARTESIAN_POINT('Ctrl Pts',(-1.55,1.3,2.77555756156289E-16));
#496=CARTESIAN_POINT('Ctrl Pts',(-1.55,0.,0.));
#497=CARTESIAN_POINT('Ctrl Pts',(-2.55,0.,0.));
#498=CARTESIAN_POINT('Ctrl Pts',(-2.55,-1.3,2.77555756156289E-16));
#499=CARTESIAN_POINT('Ctrl Pts',(-2.55,-1.3,1.3));
#500=CARTESIAN_POINT('Ctrl Pts',(-2.55,-1.3,2.6));
#501=CARTESIAN_POINT('Ctrl Pts',(-2.55,0.,2.6));
#502=CARTESIAN_POINT('Ctrl Pts',(-2.55,1.3,2.6));
#503=CARTESIAN_POINT('Ctrl Pts',(-2.55,1.3,1.3));
#504=CARTESIAN_POINT('Ctrl Pts',(-2.55,1.3,2.77555756156289E-16));
#505=CARTESIAN_POINT('Ctrl Pts',(-2.55,0.,0.));
#506=CARTESIAN_POINT('Ctrl Pts',(-2.55,0.,1.));
#507=CARTESIAN_POINT('Ctrl Pts',(-2.55,-0.3,1.));
#508=CARTESIAN_POINT('Ctrl Pts',(-2.55,-0.3,1.3));
#509=CARTESIAN_POINT('Ctrl Pts',(-2.55,-0.3,1.6));
#510=CARTESIAN_POINT('Ctrl Pts',(-2.55,0.,1.6));
#511=CARTESIAN_POINT('Ctrl Pts',(-2.55,0.3,1.6));
#512=CARTESIAN_POINT('Ctrl Pts',(-2.55,0.3,1.3));
#513=CARTESIAN_POINT('Ctrl Pts',(-2.55,0.3,1.));
#514=CARTESIAN_POINT('Ctrl Pts',(-2.55,0.,1.));
#515=CARTESIAN_POINT('',(-2.55,-3.67394039744206E-17,1.));
#516=CARTESIAN_POINT('Origin',(-2.55,0.,1.3));
#517=CARTESIAN_POINT('Origin',(-1.55,-3.67394039744206E-17,1.));
#518=CARTESIAN_POINT('Origin',(-2.55,0.,1.3));
#519=CARTESIAN_POINT('',(0.,0.,0.));
#520=CARTESIAN_POINT('',(0.,0.,0.));
#521=UNCERTAINTY_MEASURE_WITH_UNIT(LENGTH_MEASURE(0.01),#529,
'DISTANCE_ACCURACY_VALUE',
'Maximum model space distance between geometric entities at asserted c
onnectivities');
#522=UNCERTAINTY_MEASURE_WITH_UNIT(LENGTH_MEASURE(0.01),#529,
'DISTANCE_ACCURACY_VALUE',
'Maximum model space distance between geometric entities at asserted c
onnectivities');
#523=UNCERTAINTY_MEASURE_WITH_UNIT(LENGTH_MEASURE(0.01),#529,
'DISTANCE_ACCURACY_VALUE',
'Maximum model space distance between geometric entities at asserted c
onnectivities');
#524=UNCERTAINTY_MEASURE_WITH_UNIT(LENGTH_MEASURE(0.01),#529,
'DISTANCE_ACCURACY_VALUE',
'Maximum model space distance between geometric entities at asserted c
onnectivities');
#525=(
GEOMETRIC_REPRESENTATION_CONTEXT(3)
GLOBAL_UNCERTAINTY_ASSIGNED_CONTEXT((#521))
GLOBAL_UNIT_ASSIGNED_CONTEXT((#529,#531,#532))
REPRESENTATION_CONTEXT('','3D')
);
#526=(
GEOMETRIC_REPRESENTATION_CONTEXT(3)
GLOBAL_UNCERTAINTY_ASSIGNED_CONTEXT((#522))
GLOBAL_UNIT_ASSIGNED_CONTEXT((#529,#531,#532))
REPRESENTATION_CONTEXT('','3D')
);
#527=(
GEOMETRIC_REPRESENTATION_CONTEXT(3)
GLOBAL_UNCERTAINTY_ASSIGNED_CONTEXT((#523))
GLOBAL_UNIT_ASSIGNED_CONTEXT((#529,#531,#532))
REPRESENTATION_CONTEXT('','3D')
);
#528=(
GEOMETRIC_REPRESENTATION_CONTEXT(3)
GLOBAL_UNCERTAINTY_ASSIGNED_CONTEXT((#524))
GLOBAL_UNIT_ASSIGNED_CONTEXT((#529,#531,#532))
REPRESENTATION_CONTEXT('','3D')
);
#529=(
LENGTH_UNIT()
NAMED_UNIT(*)
SI_UNIT(.MILLI.,.METRE.)
);
#530=(
LENGTH_UNIT()
NAMED_UNIT(*)
SI_UNIT($,.METRE.)
);
#531=(
NAMED_UNIT(*)
PLANE_ANGLE_UNIT()
SI_UNIT($,.RADIAN.)
);
#532=(
NAMED_UNIT(*)
SI_UNIT($,.STERADIAN.)
SOLID_ANGLE_UNIT()
);
#533=SHAPE_DEFINITION_REPRESENTATION(#536,#541);
#534=SHAPE_DEFINITION_REPRESENTATION(#537,#542);
#535=SHAPE_DEFINITION_REPRESENTATION(#538,#543);
#536=PRODUCT_DEFINITION_SHAPE('',$,#545);
#537=PRODUCT_DEFINITION_SHAPE('',$,#546);
#538=PRODUCT_DEFINITION_SHAPE('',$,#547);
#539=PRODUCT_DEFINITION_SHAPE($,$,#17);
#540=PRODUCT_DEFINITION_SHAPE($,$,#18);
#541=SHAPE_REPRESENTATION('',(#231,#269),#525);
#542=SHAPE_REPRESENTATION('',(#232,#268),#526);
#543=SHAPE_REPRESENTATION('',(#233),#527);
#544=PRODUCT_DEFINITION_CONTEXT('part definition',#555,'design');
#545=PRODUCT_DEFINITION('CAP_AXIAL_THT_L5.1-D3.1-P12.70',
'CAP_AXIAL_THT_L5.1-D3.1-P12.70 v3',#548,#544);
#546=PRODUCT_DEFINITION('Capacitor Body','Capacitor Body',#549,#544);
#547=PRODUCT_DEFINITION('Pins','Pins',#550,#544);
#548=PRODUCT_DEFINITION_FORMATION('',$,#557);
#549=PRODUCT_DEFINITION_FORMATION('',$,#558);
#550=PRODUCT_DEFINITION_FORMATION('',$,#559);
#551=PRODUCT_RELATED_PRODUCT_CATEGORY(
'CAP_AXIAL_THT_L5.1-D3.1-P12.70 v3','CAP_AXIAL_THT_L5.1-D3.1-P12.70 v3',
(#557));
#552=PRODUCT_RELATED_PRODUCT_CATEGORY('Capacitor Body','Capacitor Body',
(#558));
#553=PRODUCT_RELATED_PRODUCT_CATEGORY('Pins','Pins',(#559));
#554=APPLICATION_PROTOCOL_DEFINITION('international standard',
'automotive_design',2009,#555);
#555=APPLICATION_CONTEXT(
'Core Data for Automotive Mechanical Design Process');
#556=PRODUCT_CONTEXT('part definition',#555,'mechanical');
#557=PRODUCT('CAP_AXIAL_THT_L5.1-D3.1-P12.70',
'CAP_AXIAL_THT_L5.1-D3.1-P12.70 v3',$,(#556));
#558=PRODUCT('Capacitor Body','Capacitor Body',$,(#556));
#559=PRODUCT('Pins','Pins',$,(#556));
#560=PRESENTATION_STYLE_ASSIGNMENT((#563));
#561=PRESENTATION_STYLE_ASSIGNMENT((#564));
#562=PRESENTATION_STYLE_ASSIGNMENT((#565));
#563=SURFACE_STYLE_USAGE(.BOTH.,#566);
#564=SURFACE_STYLE_USAGE(.BOTH.,#567);
#565=SURFACE_STYLE_USAGE(.BOTH.,#568);
#566=SURFACE_SIDE_STYLE('',(#569));
#567=SURFACE_SIDE_STYLE('',(#570));
#568=SURFACE_SIDE_STYLE('',(#571));
#569=SURFACE_STYLE_FILL_AREA(#572);
#570=SURFACE_STYLE_FILL_AREA(#573);
#571=SURFACE_STYLE_FILL_AREA(#574);
#572=FILL_AREA_STYLE('Steel - Satin',(#575));
#573=FILL_AREA_STYLE('Polymide (Kapton)',(#576));
#574=FILL_AREA_STYLE('Aluminum - Satin',(#577));
#575=FILL_AREA_STYLE_COLOUR('Steel - Satin',#578);
#576=FILL_AREA_STYLE_COLOUR('Polymide (Kapton)',#579);
#577=FILL_AREA_STYLE_COLOUR('Aluminum - Satin',#580);
#578=COLOUR_RGB('Steel - Satin',0.627450980392157,0.627450980392157,0.627450980392157);
#579=COLOUR_RGB('Polymide (Kapton)',0.784313725490196,0.556862745098039,
0.0274509803921569);
#580=COLOUR_RGB('Aluminum - Satin',0.96078431372549,0.96078431372549,0.964705882352941);
ENDSEC;
END-ISO-10303-21;
