ISO-10303-21;
HEADER;
/* Generated by software containing ST-Developer
 * from STEP Tools, Inc. (www.steptools.com) 
 */

FILE_DESCRIPTION(
/* description */ (''),
/* implementation_level */ '2;1');

FILE_NAME(
/* name */ 'DO-35_P12.70-D0.53.step',
/* time_stamp */ '2026-09-07T23:57:28+02:00',
/* author */ (''),
/* organization */ (''),
/* preprocessor_version */ 'ST-DEVELOPER v20.2',
/* originating_system */ 'Autodesk Translation Framework v15.15.0.0',
/* authorisation */ '');

FILE_SCHEMA (('AUTOMOTIVE_DESIGN { 1 0 10303 214 3 1 1 }'));
ENDSEC;

DATA;
#10=MECHANICAL_DESIGN_GEOMETRIC_PRESENTATION_REPRESENTATION('',(#33,#34,
#35,#36,#37,#38,#39,#40,#41,#42,#43,#44,#45),#918);
#11=ITEM_DEFINED_TRANSFORMATION($,$,#485,#559);
#12=ITEM_DEFINED_TRANSFORMATION($,$,#484,#560);
#13=(
REPRESENTATION_RELATIONSHIP($,$,#933,#932)
REPRESENTATION_RELATIONSHIP_WITH_TRANSFORMATION(#11)
SHAPE_REPRESENTATION_RELATIONSHIP()
);
#14=(
REPRESENTATION_RELATIONSHIP($,$,#932,#931)
REPRESENTATION_RELATIONSHIP_WITH_TRANSFORMATION(#12)
SHAPE_REPRESENTATION_RELATIONSHIP()
);
#15=CONTEXT_DEPENDENT_SHAPE_REPRESENTATION(#13,#929);
#16=CONTEXT_DEPENDENT_SHAPE_REPRESENTATION(#14,#930);
#17=NEXT_ASSEMBLY_USAGE_OCCURRENCE('Pins:1','Pins:1','Pins:1',#936,#937,
'Pins:1');
#18=NEXT_ASSEMBLY_USAGE_OCCURRENCE('Body:1','Body:1','Body:1',#935,#936,
'Body:1');
#19=FACE_BOUND('',#158,.T.);
#20=FACE_BOUND('',#160,.T.);
#21=FACE_BOUND('',#164,.T.);
#22=FACE_BOUND('',#167,.T.);
#23=FACE_BOUND('',#171,.T.);
#24=FACE_BOUND('',#173,.T.);
#25=FACE_BOUND('',#176,.T.);
#26=FACE_BOUND('',#179,.T.);
#27=FACE_BOUND('',#183,.T.);
#28=FACE_BOUND('',#185,.T.);
#29=SHAPE_REPRESENTATION_RELATIONSHIP('SRR','None',#933,#31);
#30=SHAPE_REPRESENTATION_RELATIONSHIP('SRR','None',#932,#32);
#31=ADVANCED_BREP_SHAPE_REPRESENTATION('',(#46),#917);
#32=ADVANCED_BREP_SHAPE_REPRESENTATION('',(#47,#48,#49,#50,#51,#52),#916);
#33=STYLED_ITEM('',(#955),#46);
#34=STYLED_ITEM('',(#951),#47);
#35=STYLED_ITEM('',(#952),#444);
#36=STYLED_ITEM('',(#950),#48);
#37=STYLED_ITEM('',(#952),#447);
#38=STYLED_ITEM('',(#952),#448);
#39=STYLED_ITEM('',(#952),#449);
#40=STYLED_ITEM('',(#950),#49);
#41=STYLED_ITEM('',(#953),#50);
#42=STYLED_ITEM('',(#952),#456);
#43=STYLED_ITEM('',(#952),#457);
#44=STYLED_ITEM('',(#950),#51);
#45=STYLED_ITEM('',(#954),#52);
#46=MANIFOLD_SOLID_BREP('Body1',#464);
#47=MANIFOLD_SOLID_BREP('Body1',#465);
#48=MANIFOLD_SOLID_BREP('Body2',#466);
#49=MANIFOLD_SOLID_BREP('Body5',#467);
#50=MANIFOLD_SOLID_BREP('Body6',#468);
#51=MANIFOLD_SOLID_BREP('Body7',#469);
#52=MANIFOLD_SOLID_BREP('Body8',#470);
#53=TOROIDAL_SURFACE('',#500,0.800000000000001,0.265);
#54=TOROIDAL_SURFACE('',#507,0.800000000000001,0.265);
#55=TOROIDAL_SURFACE('',#522,0.625,0.25);
#56=TOROIDAL_SURFACE('',#542,0.625,0.25);
#57=PLANE('',#492);
#58=PLANE('',#499);
#59=PLANE('',#509);
#60=PLANE('',#513);
#61=PLANE('',#520);
#62=PLANE('',#521);
#63=PLANE('',#529);
#64=PLANE('',#533);
#65=PLANE('',#540);
#66=PLANE('',#541);
#67=PLANE('',#546);
#68=PLANE('',#550);
#69=PLANE('',#557);
#70=PLANE('',#558);
#71=LINE('',#767,#84);
#72=LINE('',#808,#85);
#73=LINE('',#819,#86);
#74=LINE('',#831,#87);
#75=LINE('',#837,#88);
#76=LINE('',#843,#89);
#77=LINE('',#857,#90);
#78=LINE('',#864,#91);
#79=LINE('',#871,#92);
#80=LINE('',#877,#93);
#81=LINE('',#892,#94);
#82=LINE('',#899,#95);
#83=LINE('',#905,#96);
#84=VECTOR('',#575,0.265);
#85=VECTOR('',#592,0.265);
#86=VECTOR('',#607,0.265);
#87=VECTOR('',#624,0.375);
#88=VECTOR('',#631,0.375);
#89=VECTOR('',#638,0.875);
#90=VECTOR('',#657,0.875);
#91=VECTOR('',#666,0.375);
#92=VECTOR('',#675,0.375);
#93=VECTOR('',#682,0.875);
#94=VECTOR('',#703,0.375);
#95=VECTOR('',#712,0.375);
#96=VECTOR('',#719,0.875);
#97=CYLINDRICAL_SURFACE('',#489,0.265);
#98=CYLINDRICAL_SURFACE('',#496,0.265);
#99=CYLINDRICAL_SURFACE('',#504,0.265);
#100=CYLINDRICAL_SURFACE('',#511,0.375);
#101=CYLINDRICAL_SURFACE('',#514,0.375);
#102=CYLINDRICAL_SURFACE('',#517,0.875);
#103=CYLINDRICAL_SURFACE('',#527,0.875);
#104=CYLINDRICAL_SURFACE('',#531,0.375);
#105=CYLINDRICAL_SURFACE('',#534,0.375);
#106=CYLINDRICAL_SURFACE('',#537,0.875);
#107=CYLINDRICAL_SURFACE('',#548,0.375);
#108=CYLINDRICAL_SURFACE('',#551,0.375);
#109=CYLINDRICAL_SURFACE('',#554,0.875);
#110=FACE_OUTER_BOUND('',#143,.T.);
#111=FACE_OUTER_BOUND('',#144,.T.);
#112=FACE_OUTER_BOUND('',#145,.T.);
#113=FACE_OUTER_BOUND('',#146,.T.);
#114=FACE_OUTER_BOUND('',#147,.T.);
#115=FACE_OUTER_BOUND('',#148,.T.);
#116=FACE_OUTER_BOUND('',#149,.T.);
#117=FACE_OUTER_BOUND('',#150,.T.);
#118=FACE_OUTER_BOUND('',#151,.T.);
#119=FACE_OUTER_BOUND('',#152,.T.);
#120=FACE_OUTER_BOUND('',#153,.T.);
#121=FACE_OUTER_BOUND('',#154,.T.);
#122=FACE_OUTER_BOUND('',#155,.T.);
#123=FACE_OUTER_BOUND('',#156,.T.);
#124=FACE_OUTER_BOUND('',#157,.T.);
#125=FACE_OUTER_BOUND('',#159,.T.);
#126=FACE_OUTER_BOUND('',#161,.T.);
#127=FACE_OUTER_BOUND('',#162,.T.);
#128=FACE_OUTER_BOUND('',#163,.T.);
#129=FACE_OUTER_BOUND('',#165,.T.);
#130=FACE_OUTER_BOUND('',#166,.T.);
#131=FACE_OUTER_BOUND('',#168,.T.);
#132=FACE_OUTER_BOUND('',#169,.T.);
#133=FACE_OUTER_BOUND('',#170,.T.);
#134=FACE_OUTER_BOUND('',#172,.T.);
#135=FACE_OUTER_BOUND('',#174,.T.);
#136=FACE_OUTER_BOUND('',#175,.T.);
#137=FACE_OUTER_BOUND('',#177,.T.);
#138=FACE_OUTER_BOUND('',#178,.T.);
#139=FACE_OUTER_BOUND('',#180,.T.);
#140=FACE_OUTER_BOUND('',#181,.T.);
#141=FACE_OUTER_BOUND('',#182,.T.);
#142=FACE_OUTER_BOUND('',#184,.T.);
#143=EDGE_LOOP('',(#319,#320,#321,#322));
#144=EDGE_LOOP('',(#323,#324,#325,#326,#327));
#145=EDGE_LOOP('',(#328));
#146=EDGE_LOOP('',(#329,#330,#331,#332));
#147=EDGE_LOOP('',(#333,#334,#335,#336,#337));
#148=EDGE_LOOP('',(#338));
#149=EDGE_LOOP('',(#339,#340,#341,#342,#343,#344));
#150=EDGE_LOOP('',(#345,#346,#347,#348,#349,#350));
#151=EDGE_LOOP('',(#351,#352,#353,#354,#355,#356));
#152=EDGE_LOOP('',(#357));
#153=EDGE_LOOP('',(#358,#359,#360,#361));
#154=EDGE_LOOP('',(#362));
#155=EDGE_LOOP('',(#363,#364,#365,#366));
#156=EDGE_LOOP('',(#367,#368,#369,#370));
#157=EDGE_LOOP('',(#371));
#158=EDGE_LOOP('',(#372));
#159=EDGE_LOOP('',(#373));
#160=EDGE_LOOP('',(#374));
#161=EDGE_LOOP('',(#375,#376,#377,#378,#379));
#162=EDGE_LOOP('',(#380,#381,#382,#383,#384));
#163=EDGE_LOOP('',(#385));
#164=EDGE_LOOP('',(#386));
#165=EDGE_LOOP('',(#387,#388,#389,#390));
#166=EDGE_LOOP('',(#391));
#167=EDGE_LOOP('',(#392));
#168=EDGE_LOOP('',(#393,#394,#395,#396));
#169=EDGE_LOOP('',(#397,#398,#399,#400));
#170=EDGE_LOOP('',(#401));
#171=EDGE_LOOP('',(#402));
#172=EDGE_LOOP('',(#403));
#173=EDGE_LOOP('',(#404));
#174=EDGE_LOOP('',(#405,#406,#407,#408));
#175=EDGE_LOOP('',(#409));
#176=EDGE_LOOP('',(#410));
#177=EDGE_LOOP('',(#411,#412,#413,#414));
#178=EDGE_LOOP('',(#415));
#179=EDGE_LOOP('',(#416));
#180=EDGE_LOOP('',(#417,#418,#419,#420));
#181=EDGE_LOOP('',(#421,#422,#423,#424));
#182=EDGE_LOOP('',(#425));
#183=EDGE_LOOP('',(#426));
#184=EDGE_LOOP('',(#427));
#185=EDGE_LOOP('',(#428));
#186=CIRCLE('',#486,0.115);
#187=CIRCLE('',#487,0.15);
#188=CIRCLE('',#488,0.265);
#189=CIRCLE('',#490,0.265);
#190=CIRCLE('',#491,0.265);
#191=CIRCLE('',#493,0.265);
#192=CIRCLE('',#494,0.15);
#193=CIRCLE('',#495,0.115);
#194=CIRCLE('',#497,0.265);
#195=CIRCLE('',#498,0.265);
#196=CIRCLE('',#501,0.535000000000001);
#197=CIRCLE('',#502,0.265);
#198=CIRCLE('',#503,0.265);
#199=CIRCLE('',#505,0.265);
#200=CIRCLE('',#506,0.265);
#201=CIRCLE('',#508,0.535000000000001);
#202=CIRCLE('',#510,0.375);
#203=CIRCLE('',#512,0.375);
#204=CIRCLE('',#515,0.375);
#205=CIRCLE('',#516,0.375);
#206=CIRCLE('',#518,0.875);
#207=CIRCLE('',#519,0.875);
#208=CIRCLE('',#523,0.875);
#209=CIRCLE('',#524,0.25);
#210=CIRCLE('',#525,0.625);
#211=CIRCLE('',#526,0.875);
#212=CIRCLE('',#528,0.875);
#213=CIRCLE('',#530,0.375);
#214=CIRCLE('',#532,0.375);
#215=CIRCLE('',#535,0.375);
#216=CIRCLE('',#536,0.375);
#217=CIRCLE('',#538,0.875);
#218=CIRCLE('',#539,0.875);
#219=CIRCLE('',#543,0.625);
#220=CIRCLE('',#544,0.25);
#221=CIRCLE('',#545,0.875);
#222=CIRCLE('',#547,0.375);
#223=CIRCLE('',#549,0.375);
#224=CIRCLE('',#552,0.375);
#225=CIRCLE('',#553,0.375);
#226=CIRCLE('',#555,0.875);
#227=CIRCLE('',#556,0.875);
#228=VERTEX_POINT('',#760);
#229=VERTEX_POINT('',#762);
#230=VERTEX_POINT('',#766);
#231=VERTEX_POINT('',#768);
#232=VERTEX_POINT('',#799);
#233=VERTEX_POINT('',#801);
#234=VERTEX_POINT('',#805);
#235=VERTEX_POINT('',#806);
#236=VERTEX_POINT('',#812);
#237=VERTEX_POINT('',#814);
#238=VERTEX_POINT('',#818);
#239=VERTEX_POINT('',#820);
#240=VERTEX_POINT('',#826);
#241=VERTEX_POINT('',#829);
#242=VERTEX_POINT('',#834);
#243=VERTEX_POINT('',#836);
#244=VERTEX_POINT('',#840);
#245=VERTEX_POINT('',#842);
#246=VERTEX_POINT('',#848);
#247=VERTEX_POINT('',#849);
#248=VERTEX_POINT('',#851);
#249=VERTEX_POINT('',#856);
#250=VERTEX_POINT('',#860);
#251=VERTEX_POINT('',#863);
#252=VERTEX_POINT('',#868);
#253=VERTEX_POINT('',#870);
#254=VERTEX_POINT('',#874);
#255=VERTEX_POINT('',#876);
#256=VERTEX_POINT('',#882);
#257=VERTEX_POINT('',#884);
#258=VERTEX_POINT('',#888);
#259=VERTEX_POINT('',#891);
#260=VERTEX_POINT('',#896);
#261=VERTEX_POINT('',#898);
#262=VERTEX_POINT('',#902);
#263=VERTEX_POINT('',#904);
#264=EDGE_CURVE('',#228,#228,#186,.T.);
#265=EDGE_CURVE('',#228,#229,#187,.T.);
#266=EDGE_CURVE('',#229,#229,#188,.T.);
#267=EDGE_CURVE('',#229,#230,#71,.T.);
#268=EDGE_CURVE('',#230,#231,#189,.T.);
#269=EDGE_CURVE('',#231,#230,#190,.T.);
#270=EDGE_CURVE('',#232,#232,#191,.T.);
#271=EDGE_CURVE('',#232,#233,#192,.T.);
#272=EDGE_CURVE('',#233,#233,#193,.T.);
#273=EDGE_CURVE('',#234,#235,#194,.T.);
#274=EDGE_CURVE('',#234,#232,#72,.T.);
#275=EDGE_CURVE('',#235,#234,#195,.T.);
#276=EDGE_CURVE('',#231,#236,#196,.T.);
#277=EDGE_CURVE('',#236,#237,#197,.T.);
#278=EDGE_CURVE('',#237,#236,#198,.T.);
#279=EDGE_CURVE('',#237,#238,#73,.T.);
#280=EDGE_CURVE('',#238,#239,#199,.T.);
#281=EDGE_CURVE('',#239,#238,#200,.T.);
#282=EDGE_CURVE('',#239,#235,#201,.T.);
#283=EDGE_CURVE('',#240,#240,#202,.T.);
#284=EDGE_CURVE('',#241,#241,#203,.T.);
#285=EDGE_CURVE('',#241,#240,#74,.T.);
#286=EDGE_CURVE('',#242,#242,#204,.T.);
#287=EDGE_CURVE('',#242,#243,#75,.T.);
#288=EDGE_CURVE('',#243,#243,#205,.T.);
#289=EDGE_CURVE('',#244,#244,#206,.T.);
#290=EDGE_CURVE('',#244,#245,#76,.T.);
#291=EDGE_CURVE('',#245,#245,#207,.T.);
#292=EDGE_CURVE('',#246,#247,#208,.T.);
#293=EDGE_CURVE('',#247,#248,#209,.T.);
#294=EDGE_CURVE('',#248,#248,#210,.T.);
#295=EDGE_CURVE('',#247,#246,#211,.T.);
#296=EDGE_CURVE('',#246,#249,#77,.T.);
#297=EDGE_CURVE('',#249,#249,#212,.T.);
#298=EDGE_CURVE('',#250,#250,#213,.T.);
#299=EDGE_CURVE('',#250,#251,#78,.T.);
#300=EDGE_CURVE('',#251,#251,#214,.T.);
#301=EDGE_CURVE('',#252,#252,#215,.T.);
#302=EDGE_CURVE('',#252,#253,#79,.T.);
#303=EDGE_CURVE('',#253,#253,#216,.T.);
#304=EDGE_CURVE('',#254,#254,#217,.T.);
#305=EDGE_CURVE('',#254,#255,#80,.T.);
#306=EDGE_CURVE('',#255,#255,#218,.T.);
#307=EDGE_CURVE('',#256,#256,#219,.T.);
#308=EDGE_CURVE('',#256,#257,#220,.T.);
#309=EDGE_CURVE('',#257,#257,#221,.T.);
#310=EDGE_CURVE('',#258,#258,#222,.T.);
#311=EDGE_CURVE('',#258,#259,#81,.T.);
#312=EDGE_CURVE('',#259,#259,#223,.T.);
#313=EDGE_CURVE('',#260,#260,#224,.T.);
#314=EDGE_CURVE('',#260,#261,#82,.T.);
#315=EDGE_CURVE('',#261,#261,#225,.T.);
#316=EDGE_CURVE('',#262,#262,#226,.T.);
#317=EDGE_CURVE('',#262,#263,#83,.T.);
#318=EDGE_CURVE('',#263,#263,#227,.T.);
#319=ORIENTED_EDGE('',*,*,#264,.T.);
#320=ORIENTED_EDGE('',*,*,#265,.T.);
#321=ORIENTED_EDGE('',*,*,#266,.T.);
#322=ORIENTED_EDGE('',*,*,#265,.F.);
#323=ORIENTED_EDGE('',*,*,#266,.F.);
#324=ORIENTED_EDGE('',*,*,#267,.T.);
#325=ORIENTED_EDGE('',*,*,#268,.T.);
#326=ORIENTED_EDGE('',*,*,#269,.T.);
#327=ORIENTED_EDGE('',*,*,#267,.F.);
#328=ORIENTED_EDGE('',*,*,#264,.F.);
#329=ORIENTED_EDGE('',*,*,#270,.T.);
#330=ORIENTED_EDGE('',*,*,#271,.T.);
#331=ORIENTED_EDGE('',*,*,#272,.T.);
#332=ORIENTED_EDGE('',*,*,#271,.F.);
#333=ORIENTED_EDGE('',*,*,#273,.F.);
#334=ORIENTED_EDGE('',*,*,#274,.T.);
#335=ORIENTED_EDGE('',*,*,#270,.F.);
#336=ORIENTED_EDGE('',*,*,#274,.F.);
#337=ORIENTED_EDGE('',*,*,#275,.F.);
#338=ORIENTED_EDGE('',*,*,#272,.F.);
#339=ORIENTED_EDGE('',*,*,#268,.F.);
#340=ORIENTED_EDGE('',*,*,#269,.F.);
#341=ORIENTED_EDGE('',*,*,#276,.T.);
#342=ORIENTED_EDGE('',*,*,#277,.T.);
#343=ORIENTED_EDGE('',*,*,#278,.T.);
#344=ORIENTED_EDGE('',*,*,#276,.F.);
#345=ORIENTED_EDGE('',*,*,#278,.F.);
#346=ORIENTED_EDGE('',*,*,#279,.T.);
#347=ORIENTED_EDGE('',*,*,#280,.T.);
#348=ORIENTED_EDGE('',*,*,#281,.T.);
#349=ORIENTED_EDGE('',*,*,#279,.F.);
#350=ORIENTED_EDGE('',*,*,#277,.F.);
#351=ORIENTED_EDGE('',*,*,#280,.F.);
#352=ORIENTED_EDGE('',*,*,#281,.F.);
#353=ORIENTED_EDGE('',*,*,#282,.T.);
#354=ORIENTED_EDGE('',*,*,#275,.T.);
#355=ORIENTED_EDGE('',*,*,#273,.T.);
#356=ORIENTED_EDGE('',*,*,#282,.F.);
#357=ORIENTED_EDGE('',*,*,#283,.T.);
#358=ORIENTED_EDGE('',*,*,#284,.F.);
#359=ORIENTED_EDGE('',*,*,#285,.T.);
#360=ORIENTED_EDGE('',*,*,#283,.F.);
#361=ORIENTED_EDGE('',*,*,#285,.F.);
#362=ORIENTED_EDGE('',*,*,#284,.T.);
#363=ORIENTED_EDGE('',*,*,#286,.F.);
#364=ORIENTED_EDGE('',*,*,#287,.T.);
#365=ORIENTED_EDGE('',*,*,#288,.F.);
#366=ORIENTED_EDGE('',*,*,#287,.F.);
#367=ORIENTED_EDGE('',*,*,#289,.F.);
#368=ORIENTED_EDGE('',*,*,#290,.T.);
#369=ORIENTED_EDGE('',*,*,#291,.F.);
#370=ORIENTED_EDGE('',*,*,#290,.F.);
#371=ORIENTED_EDGE('',*,*,#291,.T.);
#372=ORIENTED_EDGE('',*,*,#288,.T.);
#373=ORIENTED_EDGE('',*,*,#289,.T.);
#374=ORIENTED_EDGE('',*,*,#286,.T.);
#375=ORIENTED_EDGE('',*,*,#292,.T.);
#376=ORIENTED_EDGE('',*,*,#293,.T.);
#377=ORIENTED_EDGE('',*,*,#294,.T.);
#378=ORIENTED_EDGE('',*,*,#293,.F.);
#379=ORIENTED_EDGE('',*,*,#295,.T.);
#380=ORIENTED_EDGE('',*,*,#292,.F.);
#381=ORIENTED_EDGE('',*,*,#296,.T.);
#382=ORIENTED_EDGE('',*,*,#297,.T.);
#383=ORIENTED_EDGE('',*,*,#296,.F.);
#384=ORIENTED_EDGE('',*,*,#295,.F.);
#385=ORIENTED_EDGE('',*,*,#294,.F.);
#386=ORIENTED_EDGE('',*,*,#298,.F.);
#387=ORIENTED_EDGE('',*,*,#298,.T.);
#388=ORIENTED_EDGE('',*,*,#299,.T.);
#389=ORIENTED_EDGE('',*,*,#300,.T.);
#390=ORIENTED_EDGE('',*,*,#299,.F.);
#391=ORIENTED_EDGE('',*,*,#297,.F.);
#392=ORIENTED_EDGE('',*,*,#300,.F.);
#393=ORIENTED_EDGE('',*,*,#301,.F.);
#394=ORIENTED_EDGE('',*,*,#302,.T.);
#395=ORIENTED_EDGE('',*,*,#303,.T.);
#396=ORIENTED_EDGE('',*,*,#302,.F.);
#397=ORIENTED_EDGE('',*,*,#304,.F.);
#398=ORIENTED_EDGE('',*,*,#305,.T.);
#399=ORIENTED_EDGE('',*,*,#306,.T.);
#400=ORIENTED_EDGE('',*,*,#305,.F.);
#401=ORIENTED_EDGE('',*,*,#304,.T.);
#402=ORIENTED_EDGE('',*,*,#301,.T.);
#403=ORIENTED_EDGE('',*,*,#306,.F.);
#404=ORIENTED_EDGE('',*,*,#303,.F.);
#405=ORIENTED_EDGE('',*,*,#307,.T.);
#406=ORIENTED_EDGE('',*,*,#308,.T.);
#407=ORIENTED_EDGE('',*,*,#309,.T.);
#408=ORIENTED_EDGE('',*,*,#308,.F.);
#409=ORIENTED_EDGE('',*,*,#307,.F.);
#410=ORIENTED_EDGE('',*,*,#310,.T.);
#411=ORIENTED_EDGE('',*,*,#310,.F.);
#412=ORIENTED_EDGE('',*,*,#311,.T.);
#413=ORIENTED_EDGE('',*,*,#312,.T.);
#414=ORIENTED_EDGE('',*,*,#311,.F.);
#415=ORIENTED_EDGE('',*,*,#309,.F.);
#416=ORIENTED_EDGE('',*,*,#312,.F.);
#417=ORIENTED_EDGE('',*,*,#313,.F.);
#418=ORIENTED_EDGE('',*,*,#314,.T.);
#419=ORIENTED_EDGE('',*,*,#315,.T.);
#420=ORIENTED_EDGE('',*,*,#314,.F.);
#421=ORIENTED_EDGE('',*,*,#316,.F.);
#422=ORIENTED_EDGE('',*,*,#317,.T.);
#423=ORIENTED_EDGE('',*,*,#318,.T.);
#424=ORIENTED_EDGE('',*,*,#317,.F.);
#425=ORIENTED_EDGE('',*,*,#316,.T.);
#426=ORIENTED_EDGE('',*,*,#313,.T.);
#427=ORIENTED_EDGE('',*,*,#318,.F.);
#428=ORIENTED_EDGE('',*,*,#315,.F.);
#429=(
BOUNDED_SURFACE()
B_SPLINE_SURFACE(2,2,((#733,#734,#735,#736,#737,#738,#739,#740,#741),(#742,
#743,#744,#745,#746,#747,#748,#749,#750),(#751,#752,#753,#754,#755,#756,
#757,#758,#759)),.UNSPECIFIED.,.F.,.T.,.F.)
B_SPLINE_SURFACE_WITH_KNOTS((3,3),(3,2,2,2,3),(-2.18197687344315E-16,1.5707963267949),
(-3.14159265358979,-1.5707963267949,0.,1.5707963267949,3.14159265358979),
 .UNSPECIFIED.)
GEOMETRIC_REPRESENTATION_ITEM()
RATIONAL_B_SPLINE_SURFACE(((1.,0.707106781186548,1.,0.707106781186548,1.,
0.707106781186548,1.,0.707106781186548,1.),(0.707106781186551,0.500000000000002,
0.707106781186551,0.500000000000002,0.707106781186551,0.500000000000002,
0.707106781186551,0.500000000000002,0.707106781186551),(1.,0.707106781186548,
1.,0.707106781186548,1.,0.707106781186548,1.,0.707106781186548,1.)))
REPRESENTATION_ITEM('')
SURFACE()
);
#430=(
BOUNDED_SURFACE()
B_SPLINE_SURFACE(2,2,((#772,#773,#774,#775,#776,#777,#778,#779,#780),(#781,
#782,#783,#784,#785,#786,#787,#788,#789),(#790,#791,#792,#793,#794,#795,
#796,#797,#798)),.UNSPECIFIED.,.F.,.T.,.F.)
B_SPLINE_SURFACE_WITH_KNOTS((3,3),(3,2,2,2,3),(-1.5707963267949,0.),(-3.14159265358979,
-1.5707963267949,0.,1.5707963267949,3.14159265358979),.UNSPECIFIED.)
GEOMETRIC_REPRESENTATION_ITEM()
RATIONAL_B_SPLINE_SURFACE(((1.,0.707106781186548,1.,0.707106781186548,1.,
0.707106781186548,1.,0.707106781186548,1.),(0.707106781186551,0.500000000000002,
0.707106781186551,0.500000000000002,0.707106781186551,0.500000000000002,
0.707106781186551,0.500000000000002,0.707106781186551),(1.,0.707106781186548,
1.,0.707106781186548,1.,0.707106781186548,1.,0.707106781186548,1.)))
REPRESENTATION_ITEM('')
SURFACE()
);
#431=ADVANCED_FACE('',(#110),#429,.F.);
#432=ADVANCED_FACE('',(#111),#97,.T.);
#433=ADVANCED_FACE('',(#112),#57,.T.);
#434=ADVANCED_FACE('',(#113),#430,.F.);
#435=ADVANCED_FACE('',(#114),#98,.T.);
#436=ADVANCED_FACE('',(#115),#58,.F.);
#437=ADVANCED_FACE('',(#116),#53,.T.);
#438=ADVANCED_FACE('',(#117),#99,.T.);
#439=ADVANCED_FACE('',(#118),#54,.T.);
#440=ADVANCED_FACE('',(#119),#59,.F.);
#441=ADVANCED_FACE('',(#120),#100,.T.);
#442=ADVANCED_FACE('',(#121),#60,.T.);
#443=ADVANCED_FACE('',(#122),#101,.F.);
#444=ADVANCED_FACE('',(#123),#102,.T.);
#445=ADVANCED_FACE('',(#124,#19),#61,.T.);
#446=ADVANCED_FACE('',(#125,#20),#62,.F.);
#447=ADVANCED_FACE('',(#126),#55,.T.);
#448=ADVANCED_FACE('',(#127),#103,.T.);
#449=ADVANCED_FACE('',(#128,#21),#63,.T.);
#450=ADVANCED_FACE('',(#129),#104,.F.);
#451=ADVANCED_FACE('',(#130,#22),#64,.F.);
#452=ADVANCED_FACE('',(#131),#105,.F.);
#453=ADVANCED_FACE('',(#132),#106,.T.);
#454=ADVANCED_FACE('',(#133,#23),#65,.T.);
#455=ADVANCED_FACE('',(#134,#24),#66,.F.);
#456=ADVANCED_FACE('',(#135),#56,.T.);
#457=ADVANCED_FACE('',(#136,#25),#67,.F.);
#458=ADVANCED_FACE('',(#137),#107,.F.);
#459=ADVANCED_FACE('',(#138,#26),#68,.T.);
#460=ADVANCED_FACE('',(#139),#108,.F.);
#461=ADVANCED_FACE('',(#140),#109,.T.);
#462=ADVANCED_FACE('',(#141,#27),#69,.F.);
#463=ADVANCED_FACE('',(#142,#28),#70,.T.);
#464=CLOSED_SHELL('',(#431,#432,#433,#434,#435,#436,#437,#438,#439));
#465=CLOSED_SHELL('',(#440,#441,#442));
#466=CLOSED_SHELL('',(#443,#444,#445,#446));
#467=CLOSED_SHELL('',(#447,#448,#449,#450,#451));
#468=CLOSED_SHELL('',(#452,#453,#454,#455));
#469=CLOSED_SHELL('',(#456,#457,#458,#459));
#470=CLOSED_SHELL('',(#460,#461,#462,#463));
#471=DERIVED_UNIT_ELEMENT(#473,1.);
#472=DERIVED_UNIT_ELEMENT(#920,-3.);
#473=(
MASS_UNIT()
NAMED_UNIT(*)
SI_UNIT(.KILO.,.GRAM.)
);
#474=DERIVED_UNIT((#471,#472));
#475=MEASURE_REPRESENTATION_ITEM('density measure',
POSITIVE_RATIO_MEASURE(7850.),#474);
#476=PROPERTY_DEFINITION_REPRESENTATION(#481,#478);
#477=PROPERTY_DEFINITION_REPRESENTATION(#482,#479);
#478=REPRESENTATION('material name',(#480),#917);
#479=REPRESENTATION('density',(#475),#917);
#480=DESCRIPTIVE_REPRESENTATION_ITEM('Steel','Steel');
#481=PROPERTY_DEFINITION('material property','material name',#937);
#482=PROPERTY_DEFINITION('material property','density of part',#937);
#483=AXIS2_PLACEMENT_3D('',#730,#561,#562);
#484=AXIS2_PLACEMENT_3D('',#731,#563,#564);
#485=AXIS2_PLACEMENT_3D('',#732,#565,#566);
#486=AXIS2_PLACEMENT_3D('',#761,#567,#568);
#487=AXIS2_PLACEMENT_3D('',#763,#569,#570);
#488=AXIS2_PLACEMENT_3D('',#764,#571,#572);
#489=AXIS2_PLACEMENT_3D('',#765,#573,#574);
#490=AXIS2_PLACEMENT_3D('',#769,#576,#577);
#491=AXIS2_PLACEMENT_3D('',#770,#578,#579);
#492=AXIS2_PLACEMENT_3D('',#771,#580,#581);
#493=AXIS2_PLACEMENT_3D('',#800,#582,#583);
#494=AXIS2_PLACEMENT_3D('',#802,#584,#585);
#495=AXIS2_PLACEMENT_3D('',#803,#586,#587);
#496=AXIS2_PLACEMENT_3D('',#804,#588,#589);
#497=AXIS2_PLACEMENT_3D('',#807,#590,#591);
#498=AXIS2_PLACEMENT_3D('',#809,#593,#594);
#499=AXIS2_PLACEMENT_3D('',#810,#595,#596);
#500=AXIS2_PLACEMENT_3D('',#811,#597,#598);
#501=AXIS2_PLACEMENT_3D('',#813,#599,#600);
#502=AXIS2_PLACEMENT_3D('',#815,#601,#602);
#503=AXIS2_PLACEMENT_3D('',#816,#603,#604);
#504=AXIS2_PLACEMENT_3D('',#817,#605,#606);
#505=AXIS2_PLACEMENT_3D('',#821,#608,#609);
#506=AXIS2_PLACEMENT_3D('',#822,#610,#611);
#507=AXIS2_PLACEMENT_3D('',#823,#612,#613);
#508=AXIS2_PLACEMENT_3D('',#824,#614,#615);
#509=AXIS2_PLACEMENT_3D('',#825,#616,#617);
#510=AXIS2_PLACEMENT_3D('',#827,#618,#619);
#511=AXIS2_PLACEMENT_3D('',#828,#620,#621);
#512=AXIS2_PLACEMENT_3D('',#830,#622,#623);
#513=AXIS2_PLACEMENT_3D('',#832,#625,#626);
#514=AXIS2_PLACEMENT_3D('',#833,#627,#628);
#515=AXIS2_PLACEMENT_3D('',#835,#629,#630);
#516=AXIS2_PLACEMENT_3D('',#838,#632,#633);
#517=AXIS2_PLACEMENT_3D('',#839,#634,#635);
#518=AXIS2_PLACEMENT_3D('',#841,#636,#637);
#519=AXIS2_PLACEMENT_3D('',#844,#639,#640);
#520=AXIS2_PLACEMENT_3D('',#845,#641,#642);
#521=AXIS2_PLACEMENT_3D('',#846,#643,#644);
#522=AXIS2_PLACEMENT_3D('',#847,#645,#646);
#523=AXIS2_PLACEMENT_3D('',#850,#647,#648);
#524=AXIS2_PLACEMENT_3D('',#852,#649,#650);
#525=AXIS2_PLACEMENT_3D('',#853,#651,#652);
#526=AXIS2_PLACEMENT_3D('',#854,#653,#654);
#527=AXIS2_PLACEMENT_3D('',#855,#655,#656);
#528=AXIS2_PLACEMENT_3D('',#858,#658,#659);
#529=AXIS2_PLACEMENT_3D('',#859,#660,#661);
#530=AXIS2_PLACEMENT_3D('',#861,#662,#663);
#531=AXIS2_PLACEMENT_3D('',#862,#664,#665);
#532=AXIS2_PLACEMENT_3D('',#865,#667,#668);
#533=AXIS2_PLACEMENT_3D('',#866,#669,#670);
#534=AXIS2_PLACEMENT_3D('',#867,#671,#672);
#535=AXIS2_PLACEMENT_3D('',#869,#673,#674);
#536=AXIS2_PLACEMENT_3D('',#872,#676,#677);
#537=AXIS2_PLACEMENT_3D('',#873,#678,#679);
#538=AXIS2_PLACEMENT_3D('',#875,#680,#681);
#539=AXIS2_PLACEMENT_3D('',#878,#683,#684);
#540=AXIS2_PLACEMENT_3D('',#879,#685,#686);
#541=AXIS2_PLACEMENT_3D('',#880,#687,#688);
#542=AXIS2_PLACEMENT_3D('',#881,#689,#690);
#543=AXIS2_PLACEMENT_3D('',#883,#691,#692);
#544=AXIS2_PLACEMENT_3D('',#885,#693,#694);
#545=AXIS2_PLACEMENT_3D('',#886,#695,#696);
#546=AXIS2_PLACEMENT_3D('',#887,#697,#698);
#547=AXIS2_PLACEMENT_3D('',#889,#699,#700);
#548=AXIS2_PLACEMENT_3D('',#890,#701,#702);
#549=AXIS2_PLACEMENT_3D('',#893,#704,#705);
#550=AXIS2_PLACEMENT_3D('',#894,#706,#707);
#551=AXIS2_PLACEMENT_3D('',#895,#708,#709);
#552=AXIS2_PLACEMENT_3D('',#897,#710,#711);
#553=AXIS2_PLACEMENT_3D('',#900,#713,#714);
#554=AXIS2_PLACEMENT_3D('',#901,#715,#716);
#555=AXIS2_PLACEMENT_3D('',#903,#717,#718);
#556=AXIS2_PLACEMENT_3D('',#906,#720,#721);
#557=AXIS2_PLACEMENT_3D('',#907,#722,#723);
#558=AXIS2_PLACEMENT_3D('',#908,#724,#725);
#559=AXIS2_PLACEMENT_3D('',#909,#726,#727);
#560=AXIS2_PLACEMENT_3D('',#910,#728,#729);
#561=DIRECTION('axis',(0.,0.,1.));
#562=DIRECTION('refdir',(1.,0.,0.));
#563=DIRECTION('axis',(0.,0.,1.));
#564=DIRECTION('refdir',(1.,0.,0.));
#565=DIRECTION('axis',(0.,0.,1.));
#566=DIRECTION('refdir',(1.,0.,0.));
#567=DIRECTION('center_axis',(-1.22464679914735E-16,0.,1.));
#568=DIRECTION('ref_axis',(-1.,0.,-1.22464679914735E-16));
#569=DIRECTION('center_axis',(-1.22464679914735E-16,-1.,-1.49975978266186E-32));
#570=DIRECTION('ref_axis',(1.,-1.22464679914735E-16,0.));
#571=DIRECTION('center_axis',(1.22464679914735E-16,0.,-1.));
#572=DIRECTION('ref_axis',(-1.,0.,-1.30922526488816E-16));
#573=DIRECTION('center_axis',(0.,0.,-1.));
#574=DIRECTION('ref_axis',(-1.,0.,0.));
#575=DIRECTION('',(0.,0.,1.));
#576=DIRECTION('center_axis',(1.22464679914735E-16,0.,-1.));
#577=DIRECTION('ref_axis',(-1.,0.,-1.22464679914735E-16));
#578=DIRECTION('center_axis',(1.22464679914735E-16,0.,-1.));
#579=DIRECTION('ref_axis',(-1.,0.,-1.22464679914735E-16));
#580=DIRECTION('center_axis',(1.22464679914735E-16,0.,-1.));
#581=DIRECTION('ref_axis',(-1.,0.,-1.22464679914735E-16));
#582=DIRECTION('center_axis',(0.,0.,-1.));
#583=DIRECTION('ref_axis',(1.,0.,0.));
#584=DIRECTION('center_axis',(1.22464679914735E-16,-1.,0.));
#585=DIRECTION('ref_axis',(-1.,-1.22464679914735E-16,0.));
#586=DIRECTION('center_axis',(0.,0.,1.));
#587=DIRECTION('ref_axis',(1.,0.,0.));
#588=DIRECTION('center_axis',(0.,0.,1.));
#589=DIRECTION('ref_axis',(1.,0.,0.));
#590=DIRECTION('center_axis',(0.,0.,1.));
#591=DIRECTION('ref_axis',(1.,0.,0.));
#592=DIRECTION('',(0.,0.,-1.));
#593=DIRECTION('center_axis',(0.,0.,1.));
#594=DIRECTION('ref_axis',(1.,0.,0.));
#595=DIRECTION('center_axis',(0.,0.,1.));
#596=DIRECTION('ref_axis',(1.,0.,0.));
#597=DIRECTION('center_axis',(0.,1.,0.));
#598=DIRECTION('ref_axis',(0.,0.,1.));
#599=DIRECTION('center_axis',(0.,-1.,0.));
#600=DIRECTION('ref_axis',(0.,0.,1.));
#601=DIRECTION('center_axis',(1.,0.,6.12323399573677E-17));
#602=DIRECTION('ref_axis',(6.12323399573677E-17,0.,-1.));
#603=DIRECTION('center_axis',(1.,0.,6.12323399573677E-17));
#604=DIRECTION('ref_axis',(6.12323399573677E-17,0.,-1.));
#605=DIRECTION('center_axis',(1.,0.,2.50050230771432E-17));
#606=DIRECTION('ref_axis',(2.50050230771432E-17,0.,-1.));
#607=DIRECTION('',(-1.,0.,-2.50050230771432E-17));
#608=DIRECTION('center_axis',(1.,0.,6.12323399573677E-17));
#609=DIRECTION('ref_axis',(6.12323399573677E-17,0.,-1.));
#610=DIRECTION('center_axis',(1.,0.,6.12323399573677E-17));
#611=DIRECTION('ref_axis',(6.12323399573677E-17,0.,-1.));
#612=DIRECTION('center_axis',(0.,1.,0.));
#613=DIRECTION('ref_axis',(0.,0.,1.));
#614=DIRECTION('center_axis',(0.,-1.,0.));
#615=DIRECTION('ref_axis',(0.,0.,1.));
#616=DIRECTION('center_axis',(1.,0.,0.));
#617=DIRECTION('ref_axis',(0.,1.,0.));
#618=DIRECTION('center_axis',(-1.,0.,0.));
#619=DIRECTION('ref_axis',(0.,1.,0.));
#620=DIRECTION('center_axis',(1.,0.,0.));
#621=DIRECTION('ref_axis',(0.,1.,0.));
#622=DIRECTION('center_axis',(1.,0.,0.));
#623=DIRECTION('ref_axis',(0.,1.,0.));
#624=DIRECTION('',(-1.,0.,0.));
#625=DIRECTION('center_axis',(1.,0.,0.));
#626=DIRECTION('ref_axis',(0.,1.,0.));
#627=DIRECTION('center_axis',(-1.,0.,0.));
#628=DIRECTION('ref_axis',(0.,1.,0.));
#629=DIRECTION('center_axis',(1.,0.,0.));
#630=DIRECTION('ref_axis',(0.,1.,0.));
#631=DIRECTION('',(1.,0.,0.));
#632=DIRECTION('center_axis',(-1.,0.,0.));
#633=DIRECTION('ref_axis',(0.,1.,0.));
#634=DIRECTION('center_axis',(-1.,0.,0.));
#635=DIRECTION('ref_axis',(0.,1.,0.));
#636=DIRECTION('center_axis',(-1.,0.,0.));
#637=DIRECTION('ref_axis',(0.,1.,0.));
#638=DIRECTION('',(1.,0.,0.));
#639=DIRECTION('center_axis',(1.,0.,0.));
#640=DIRECTION('ref_axis',(0.,1.,0.));
#641=DIRECTION('center_axis',(1.,0.,0.));
#642=DIRECTION('ref_axis',(0.,1.,0.));
#643=DIRECTION('center_axis',(1.,0.,0.));
#644=DIRECTION('ref_axis',(0.,1.,0.));
#645=DIRECTION('center_axis',(-1.,0.,0.));
#646=DIRECTION('ref_axis',(0.,0.,1.));
#647=DIRECTION('center_axis',(1.,0.,0.));
#648=DIRECTION('ref_axis',(0.,1.,0.));
#649=DIRECTION('center_axis',(0.,-1.,1.22464679914735E-16));
#650=DIRECTION('ref_axis',(0.,-1.22464679914735E-16,-1.));
#651=DIRECTION('center_axis',(-1.,0.,0.));
#652=DIRECTION('ref_axis',(0.,1.,0.));
#653=DIRECTION('center_axis',(1.,0.,0.));
#654=DIRECTION('ref_axis',(0.,1.,0.));
#655=DIRECTION('center_axis',(1.,0.,0.));
#656=DIRECTION('ref_axis',(0.,1.,0.));
#657=DIRECTION('',(-1.,0.,0.));
#658=DIRECTION('center_axis',(1.,0.,0.));
#659=DIRECTION('ref_axis',(0.,1.,0.));
#660=DIRECTION('center_axis',(1.,0.,0.));
#661=DIRECTION('ref_axis',(0.,0.,-1.));
#662=DIRECTION('center_axis',(1.,0.,0.));
#663=DIRECTION('ref_axis',(0.,1.,0.));
#664=DIRECTION('center_axis',(1.,0.,0.));
#665=DIRECTION('ref_axis',(0.,1.,0.));
#666=DIRECTION('',(-1.,0.,0.));
#667=DIRECTION('center_axis',(-1.,0.,0.));
#668=DIRECTION('ref_axis',(0.,1.,0.));
#669=DIRECTION('center_axis',(1.,0.,0.));
#670=DIRECTION('ref_axis',(0.,1.,0.));
#671=DIRECTION('center_axis',(1.,0.,0.));
#672=DIRECTION('ref_axis',(0.,1.,0.));
#673=DIRECTION('center_axis',(-1.,0.,0.));
#674=DIRECTION('ref_axis',(0.,1.,0.));
#675=DIRECTION('',(-1.,0.,0.));
#676=DIRECTION('center_axis',(-1.,0.,0.));
#677=DIRECTION('ref_axis',(0.,1.,0.));
#678=DIRECTION('center_axis',(1.,0.,0.));
#679=DIRECTION('ref_axis',(0.,1.,0.));
#680=DIRECTION('center_axis',(1.,0.,0.));
#681=DIRECTION('ref_axis',(0.,1.,0.));
#682=DIRECTION('',(-1.,0.,0.));
#683=DIRECTION('center_axis',(1.,0.,0.));
#684=DIRECTION('ref_axis',(0.,1.,0.));
#685=DIRECTION('center_axis',(1.,0.,0.));
#686=DIRECTION('ref_axis',(0.,1.,0.));
#687=DIRECTION('center_axis',(1.,0.,0.));
#688=DIRECTION('ref_axis',(0.,1.,0.));
#689=DIRECTION('center_axis',(-1.,0.,0.));
#690=DIRECTION('ref_axis',(0.,0.,1.));
#691=DIRECTION('center_axis',(1.,0.,0.));
#692=DIRECTION('ref_axis',(0.,1.,0.));
#693=DIRECTION('center_axis',(0.,-1.,1.22464679914735E-16));
#694=DIRECTION('ref_axis',(0.,-1.22464679914735E-16,-1.));
#695=DIRECTION('center_axis',(-1.,0.,0.));
#696=DIRECTION('ref_axis',(0.,1.,0.));
#697=DIRECTION('center_axis',(1.,0.,0.));
#698=DIRECTION('ref_axis',(0.,1.,0.));
#699=DIRECTION('center_axis',(1.,0.,0.));
#700=DIRECTION('ref_axis',(0.,1.,0.));
#701=DIRECTION('center_axis',(-1.,0.,0.));
#702=DIRECTION('ref_axis',(0.,1.,0.));
#703=DIRECTION('',(1.,0.,0.));
#704=DIRECTION('center_axis',(1.,0.,0.));
#705=DIRECTION('ref_axis',(0.,1.,0.));
#706=DIRECTION('center_axis',(1.,0.,0.));
#707=DIRECTION('ref_axis',(0.,1.,0.));
#708=DIRECTION('center_axis',(-1.,0.,0.));
#709=DIRECTION('ref_axis',(0.,1.,0.));
#710=DIRECTION('center_axis',(1.,0.,0.));
#711=DIRECTION('ref_axis',(0.,1.,0.));
#712=DIRECTION('',(1.,0.,0.));
#713=DIRECTION('center_axis',(1.,0.,0.));
#714=DIRECTION('ref_axis',(0.,1.,0.));
#715=DIRECTION('center_axis',(-1.,0.,0.));
#716=DIRECTION('ref_axis',(0.,1.,0.));
#717=DIRECTION('center_axis',(-1.,0.,0.));
#718=DIRECTION('ref_axis',(0.,1.,0.));
#719=DIRECTION('',(1.,0.,0.));
#720=DIRECTION('center_axis',(-1.,0.,0.));
#721=DIRECTION('ref_axis',(0.,1.,0.));
#722=DIRECTION('center_axis',(1.,0.,0.));
#723=DIRECTION('ref_axis',(0.,1.,0.));
#724=DIRECTION('center_axis',(1.,0.,0.));
#725=DIRECTION('ref_axis',(0.,1.,0.));
#726=DIRECTION('',(0.,0.,1.));
#727=DIRECTION('',(1.,0.,0.));
#728=DIRECTION('',(0.,0.,1.));
#729=DIRECTION('',(1.,0.,0.));
#730=CARTESIAN_POINT('',(0.,0.,0.));
#731=CARTESIAN_POINT('',(0.,0.,0.));
#732=CARTESIAN_POINT('',(0.,0.,0.));
#733=CARTESIAN_POINT('Ctrl Pts',(6.615,0.,-3.35));
#734=CARTESIAN_POINT('Ctrl Pts',(6.615,-0.265,-3.35));
#735=CARTESIAN_POINT('Ctrl Pts',(6.35,-0.265,-3.35));
#736=CARTESIAN_POINT('Ctrl Pts',(6.085,-0.265,-3.35));
#737=CARTESIAN_POINT('Ctrl Pts',(6.085,0.,-3.35));
#738=CARTESIAN_POINT('Ctrl Pts',(6.085,0.265,-3.35));
#739=CARTESIAN_POINT('Ctrl Pts',(6.35,0.265,-3.35));
#740=CARTESIAN_POINT('Ctrl Pts',(6.615,0.265,-3.35));
#741=CARTESIAN_POINT('Ctrl Pts',(6.615,0.,-3.35));
#742=CARTESIAN_POINT('Ctrl Pts',(6.615,0.,-3.5));
#743=CARTESIAN_POINT('Ctrl Pts',(6.615,-0.265,-3.5));
#744=CARTESIAN_POINT('Ctrl Pts',(6.35,-0.265,-3.5));
#745=CARTESIAN_POINT('Ctrl Pts',(6.085,-0.265,-3.5));
#746=CARTESIAN_POINT('Ctrl Pts',(6.085,0.,-3.5));
#747=CARTESIAN_POINT('Ctrl Pts',(6.085,0.265,-3.5));
#748=CARTESIAN_POINT('Ctrl Pts',(6.35,0.265,-3.5));
#749=CARTESIAN_POINT('Ctrl Pts',(6.615,0.265,-3.5));
#750=CARTESIAN_POINT('Ctrl Pts',(6.615,0.,-3.5));
#751=CARTESIAN_POINT('Ctrl Pts',(6.465,0.,-3.5));
#752=CARTESIAN_POINT('Ctrl Pts',(6.465,-0.115,-3.5));
#753=CARTESIAN_POINT('Ctrl Pts',(6.35,-0.115,-3.5));
#754=CARTESIAN_POINT('Ctrl Pts',(6.235,-0.115,-3.5));
#755=CARTESIAN_POINT('Ctrl Pts',(6.235,0.,-3.5));
#756=CARTESIAN_POINT('Ctrl Pts',(6.235,0.115,-3.5));
#757=CARTESIAN_POINT('Ctrl Pts',(6.35,0.115,-3.5));
#758=CARTESIAN_POINT('Ctrl Pts',(6.465,0.115,-3.5));
#759=CARTESIAN_POINT('Ctrl Pts',(6.465,0.,-3.5));
#760=CARTESIAN_POINT('',(6.465,1.40834381901945E-17,-3.5));
#761=CARTESIAN_POINT('Origin',(6.35,0.,-3.5));
#762=CARTESIAN_POINT('',(6.615,-3.24531401774048E-17,-3.35));
#763=CARTESIAN_POINT('Origin',(6.465,-1.40834381901945E-17,-3.35));
#764=CARTESIAN_POINT('Origin',(6.35,0.,-3.35));
#765=CARTESIAN_POINT('Origin',(6.35,0.,0.575));
#766=CARTESIAN_POINT('',(6.615,-3.24531401774048E-17,0.575));
#767=CARTESIAN_POINT('',(6.615,-3.24531401774048E-17,0.575));
#768=CARTESIAN_POINT('',(6.085,-3.24531401774048E-17,0.575));
#769=CARTESIAN_POINT('Origin',(6.35,0.,0.575));
#770=CARTESIAN_POINT('Origin',(6.35,0.,0.575));
#771=CARTESIAN_POINT('Origin',(6.35,0.,-3.5));
#772=CARTESIAN_POINT('Ctrl Pts',(-6.465,0.,-3.5));
#773=CARTESIAN_POINT('Ctrl Pts',(-6.465,-0.115,-3.5));
#774=CARTESIAN_POINT('Ctrl Pts',(-6.35,-0.115,-3.5));
#775=CARTESIAN_POINT('Ctrl Pts',(-6.235,-0.115,-3.5));
#776=CARTESIAN_POINT('Ctrl Pts',(-6.235,0.,-3.5));
#777=CARTESIAN_POINT('Ctrl Pts',(-6.235,0.115,-3.5));
#778=CARTESIAN_POINT('Ctrl Pts',(-6.35,0.115,-3.5));
#779=CARTESIAN_POINT('Ctrl Pts',(-6.465,0.115,-3.5));
#780=CARTESIAN_POINT('Ctrl Pts',(-6.465,0.,-3.5));
#781=CARTESIAN_POINT('Ctrl Pts',(-6.615,0.,-3.5));
#782=CARTESIAN_POINT('Ctrl Pts',(-6.615,-0.265,-3.5));
#783=CARTESIAN_POINT('Ctrl Pts',(-6.35,-0.265,-3.5));
#784=CARTESIAN_POINT('Ctrl Pts',(-6.085,-0.265,-3.5));
#785=CARTESIAN_POINT('Ctrl Pts',(-6.085,0.,-3.5));
#786=CARTESIAN_POINT('Ctrl Pts',(-6.085,0.265,-3.5));
#787=CARTESIAN_POINT('Ctrl Pts',(-6.35,0.265,-3.5));
#788=CARTESIAN_POINT('Ctrl Pts',(-6.615,0.265,-3.5));
#789=CARTESIAN_POINT('Ctrl Pts',(-6.615,0.,-3.5));
#790=CARTESIAN_POINT('Ctrl Pts',(-6.615,0.,-3.35));
#791=CARTESIAN_POINT('Ctrl Pts',(-6.615,-0.265,-3.35));
#792=CARTESIAN_POINT('Ctrl Pts',(-6.35,-0.265,-3.35));
#793=CARTESIAN_POINT('Ctrl Pts',(-6.085,-0.265,-3.35));
#794=CARTESIAN_POINT('Ctrl Pts',(-6.085,0.,-3.35));
#795=CARTESIAN_POINT('Ctrl Pts',(-6.085,0.265,-3.35));
#796=CARTESIAN_POINT('Ctrl Pts',(-6.35,0.265,-3.35));
#797=CARTESIAN_POINT('Ctrl Pts',(-6.615,0.265,-3.35));
#798=CARTESIAN_POINT('Ctrl Pts',(-6.615,0.,-3.35));
#799=CARTESIAN_POINT('',(-6.615,3.24531401774048E-17,-3.35));
#800=CARTESIAN_POINT('Origin',(-6.35,0.,-3.35));
#801=CARTESIAN_POINT('',(-6.465,-1.40834381901945E-17,-3.5));
#802=CARTESIAN_POINT('Origin',(-6.465,-1.40834381901945E-17,-3.35));
#803=CARTESIAN_POINT('Origin',(-6.35,0.,-3.5));
#804=CARTESIAN_POINT('Origin',(-6.35,0.,-3.5));
#805=CARTESIAN_POINT('',(-6.615,-3.24531401774048E-17,0.575));
#806=CARTESIAN_POINT('',(-6.085,-3.24531401774048E-17,0.575));
#807=CARTESIAN_POINT('Origin',(-6.35,0.,0.575));
#808=CARTESIAN_POINT('',(-6.615,-3.24531401774048E-17,-3.5));
#809=CARTESIAN_POINT('Origin',(-6.35,0.,0.575));
#810=CARTESIAN_POINT('Origin',(-6.35,0.,-3.5));
#811=CARTESIAN_POINT('Origin',(5.55,0.,0.575));
#812=CARTESIAN_POINT('',(5.55,-3.24531401774048E-17,1.11));
#813=CARTESIAN_POINT('Origin',(5.55,-3.24531401774048E-17,0.575));
#814=CARTESIAN_POINT('',(5.55,-3.24531401774048E-17,1.64));
#815=CARTESIAN_POINT('Origin',(5.55,0.,1.375));
#816=CARTESIAN_POINT('Origin',(5.55,0.,1.375));
#817=CARTESIAN_POINT('Origin',(-5.55,0.,1.375));
#818=CARTESIAN_POINT('',(-5.55,-3.24531401774048E-17,1.64));
#819=CARTESIAN_POINT('',(-5.55,-3.24531401774048E-17,1.64));
#820=CARTESIAN_POINT('',(-5.55,-3.24531401774048E-17,1.11));
#821=CARTESIAN_POINT('Origin',(-5.55,0.,1.375));
#822=CARTESIAN_POINT('Origin',(-5.55,0.,1.375));
#823=CARTESIAN_POINT('Origin',(-5.55,0.,0.575));
#824=CARTESIAN_POINT('Origin',(-5.55,-3.24531401774048E-17,0.575));
#825=CARTESIAN_POINT('Origin',(-1.7,0.,1.375));
#826=CARTESIAN_POINT('',(-1.7,-0.375,1.375));
#827=CARTESIAN_POINT('Origin',(-1.7,0.,1.375));
#828=CARTESIAN_POINT('Origin',(0.,0.,1.375));
#829=CARTESIAN_POINT('',(1.7,-0.375,1.375));
#830=CARTESIAN_POINT('Origin',(1.7,0.,1.375));
#831=CARTESIAN_POINT('',(0.,-0.375,1.375));
#832=CARTESIAN_POINT('Origin',(1.7,0.,1.375));
#833=CARTESIAN_POINT('Origin',(0.,0.,1.375));
#834=CARTESIAN_POINT('',(-0.6,-0.375,1.375));
#835=CARTESIAN_POINT('Origin',(-0.6,0.,1.375));
#836=CARTESIAN_POINT('',(0.,-0.375,1.375));
#837=CARTESIAN_POINT('',(0.,-0.375,1.375));
#838=CARTESIAN_POINT('Origin',(0.,0.,1.375));
#839=CARTESIAN_POINT('Origin',(0.,0.,1.375));
#840=CARTESIAN_POINT('',(-0.6,-0.875,1.375));
#841=CARTESIAN_POINT('Origin',(-0.6,0.,1.375));
#842=CARTESIAN_POINT('',(0.,-0.875,1.375));
#843=CARTESIAN_POINT('',(0.,-0.875,1.375));
#844=CARTESIAN_POINT('Origin',(0.,0.,1.375));
#845=CARTESIAN_POINT('Origin',(0.,0.,1.375));
#846=CARTESIAN_POINT('Origin',(-0.6,0.,1.375));
#847=CARTESIAN_POINT('Origin',(1.45,0.,1.375));
#848=CARTESIAN_POINT('',(1.45,-0.875,1.375));
#849=CARTESIAN_POINT('',(1.45,-1.07156594925393E-16,0.5));
#850=CARTESIAN_POINT('Origin',(1.45,0.,1.375));
#851=CARTESIAN_POINT('',(1.7,-7.65404249467096E-17,0.75));
#852=CARTESIAN_POINT('Origin',(1.45,-7.65404249467096E-17,0.75));
#853=CARTESIAN_POINT('Origin',(1.7,0.,1.375));
#854=CARTESIAN_POINT('Origin',(1.45,0.,1.375));
#855=CARTESIAN_POINT('Origin',(0.4,0.,1.375));
#856=CARTESIAN_POINT('',(0.4,-0.875,1.375));
#857=CARTESIAN_POINT('',(0.4,-0.875,1.375));
#858=CARTESIAN_POINT('Origin',(0.4,0.,1.375));
#859=CARTESIAN_POINT('Origin',(1.7,0.,1.375));
#860=CARTESIAN_POINT('',(1.7,-0.375,1.375));
#861=CARTESIAN_POINT('Origin',(1.7,0.,1.375));
#862=CARTESIAN_POINT('Origin',(0.4,0.,1.375));
#863=CARTESIAN_POINT('',(0.4,-0.375,1.375));
#864=CARTESIAN_POINT('',(0.4,-0.375,1.375));
#865=CARTESIAN_POINT('Origin',(0.4,0.,1.375));
#866=CARTESIAN_POINT('Origin',(0.4,0.,1.375));
#867=CARTESIAN_POINT('Origin',(0.,0.,1.375));
#868=CARTESIAN_POINT('',(0.4,-0.375,1.375));
#869=CARTESIAN_POINT('Origin',(0.4,0.,1.375));
#870=CARTESIAN_POINT('',(0.,-0.375,1.375));
#871=CARTESIAN_POINT('',(0.,-0.375,1.375));
#872=CARTESIAN_POINT('Origin',(0.,0.,1.375));
#873=CARTESIAN_POINT('Origin',(0.,0.,1.375));
#874=CARTESIAN_POINT('',(0.4,-0.875,1.375));
#875=CARTESIAN_POINT('Origin',(0.4,0.,1.375));
#876=CARTESIAN_POINT('',(0.,-0.875,1.375));
#877=CARTESIAN_POINT('',(0.,-0.875,1.375));
#878=CARTESIAN_POINT('Origin',(0.,0.,1.375));
#879=CARTESIAN_POINT('Origin',(0.4,0.,1.375));
#880=CARTESIAN_POINT('Origin',(0.,0.,1.375));
#881=CARTESIAN_POINT('Origin',(-1.45,0.,1.375));
#882=CARTESIAN_POINT('',(-1.7,-7.65404249467096E-17,0.75));
#883=CARTESIAN_POINT('Origin',(-1.7,0.,1.375));
#884=CARTESIAN_POINT('',(-1.45,-1.07156594925393E-16,0.5));
#885=CARTESIAN_POINT('Origin',(-1.45,-7.65404249467096E-17,0.75));
#886=CARTESIAN_POINT('Origin',(-1.45,0.,1.375));
#887=CARTESIAN_POINT('Origin',(-1.7,0.,1.375));
#888=CARTESIAN_POINT('',(-1.7,-0.375,1.375));
#889=CARTESIAN_POINT('Origin',(-1.7,0.,1.375));
#890=CARTESIAN_POINT('Origin',(-1.45,0.,1.375));
#891=CARTESIAN_POINT('',(-1.45,-0.375,1.375));
#892=CARTESIAN_POINT('',(-1.45,-0.375,1.375));
#893=CARTESIAN_POINT('Origin',(-1.45,0.,1.375));
#894=CARTESIAN_POINT('Origin',(-1.45,0.,1.375));
#895=CARTESIAN_POINT('Origin',(-0.6,0.,1.375));
#896=CARTESIAN_POINT('',(-1.45,-0.375,1.375));
#897=CARTESIAN_POINT('Origin',(-1.45,0.,1.375));
#898=CARTESIAN_POINT('',(-0.6,-0.375,1.375));
#899=CARTESIAN_POINT('',(-0.6,-0.375,1.375));
#900=CARTESIAN_POINT('Origin',(-0.6,0.,1.375));
#901=CARTESIAN_POINT('Origin',(-0.6,0.,1.375));
#902=CARTESIAN_POINT('',(-1.45,-0.875,1.375));
#903=CARTESIAN_POINT('Origin',(-1.45,0.,1.375));
#904=CARTESIAN_POINT('',(-0.6,-0.875,1.375));
#905=CARTESIAN_POINT('',(-0.6,-0.875,1.375));
#906=CARTESIAN_POINT('Origin',(-0.6,0.,1.375));
#907=CARTESIAN_POINT('Origin',(-1.45,0.,1.375));
#908=CARTESIAN_POINT('Origin',(-0.6,0.,1.375));
#909=CARTESIAN_POINT('',(0.,0.,0.));
#910=CARTESIAN_POINT('',(0.,0.,0.));
#911=UNCERTAINTY_MEASURE_WITH_UNIT(LENGTH_MEASURE(0.01),#919,
'DISTANCE_ACCURACY_VALUE',
'Maximum model space distance between geometric entities at asserted c
onnectivities');
#912=UNCERTAINTY_MEASURE_WITH_UNIT(LENGTH_MEASURE(0.01),#919,
'DISTANCE_ACCURACY_VALUE',
'Maximum model space distance between geometric entities at asserted c
onnectivities');
#913=UNCERTAINTY_MEASURE_WITH_UNIT(LENGTH_MEASURE(0.01),#919,
'DISTANCE_ACCURACY_VALUE',
'Maximum model space distance between geometric entities at asserted c
onnectivities');
#914=UNCERTAINTY_MEASURE_WITH_UNIT(LENGTH_MEASURE(0.01),#919,
'DISTANCE_ACCURACY_VALUE',
'Maximum model space distance between geometric entities at asserted c
onnectivities');
#915=(
GEOMETRIC_REPRESENTATION_CONTEXT(3)
GLOBAL_UNCERTAINTY_ASSIGNED_CONTEXT((#911))
GLOBAL_UNIT_ASSIGNED_CONTEXT((#919,#921,#922))
REPRESENTATION_CONTEXT('','3D')
);
#916=(
GEOMETRIC_REPRESENTATION_CONTEXT(3)
GLOBAL_UNCERTAINTY_ASSIGNED_CONTEXT((#912))
GLOBAL_UNIT_ASSIGNED_CONTEXT((#919,#921,#922))
REPRESENTATION_CONTEXT('','3D')
);
#917=(
GEOMETRIC_REPRESENTATION_CONTEXT(3)
GLOBAL_UNCERTAINTY_ASSIGNED_CONTEXT((#913))
GLOBAL_UNIT_ASSIGNED_CONTEXT((#919,#921,#922))
REPRESENTATION_CONTEXT('','3D')
);
#918=(
GEOMETRIC_REPRESENTATION_CONTEXT(3)
GLOBAL_UNCERTAINTY_ASSIGNED_CONTEXT((#914))
GLOBAL_UNIT_ASSIGNED_CONTEXT((#919,#921,#922))
REPRESENTATION_CONTEXT('','3D')
);
#919=(
LENGTH_UNIT()
NAMED_UNIT(*)
SI_UNIT(.MILLI.,.METRE.)
);
#920=(
LENGTH_UNIT()
NAMED_UNIT(*)
SI_UNIT($,.METRE.)
);
#921=(
NAMED_UNIT(*)
PLANE_ANGLE_UNIT()
SI_UNIT($,.RADIAN.)
);
#922=(
NAMED_UNIT(*)
SI_UNIT($,.STERADIAN.)
SOLID_ANGLE_UNIT()
);
#923=SHAPE_DEFINITION_REPRESENTATION(#926,#931);
#924=SHAPE_DEFINITION_REPRESENTATION(#927,#932);
#925=SHAPE_DEFINITION_REPRESENTATION(#928,#933);
#926=PRODUCT_DEFINITION_SHAPE('',$,#935);
#927=PRODUCT_DEFINITION_SHAPE('',$,#936);
#928=PRODUCT_DEFINITION_SHAPE('',$,#937);
#929=PRODUCT_DEFINITION_SHAPE($,$,#17);
#930=PRODUCT_DEFINITION_SHAPE($,$,#18);
#931=SHAPE_REPRESENTATION('',(#483,#560),#915);
#932=SHAPE_REPRESENTATION('',(#484,#559),#916);
#933=SHAPE_REPRESENTATION('',(#485),#917);
#934=PRODUCT_DEFINITION_CONTEXT('part definition',#945,'design');
#935=PRODUCT_DEFINITION('DO-35_P12.70-D0.53','DO-35_P12.70-D0.53 v2',#938,
#934);
#936=PRODUCT_DEFINITION('Body','Body',#939,#934);
#937=PRODUCT_DEFINITION('Pins','Pins',#940,#934);
#938=PRODUCT_DEFINITION_FORMATION('',$,#947);
#939=PRODUCT_DEFINITION_FORMATION('',$,#948);
#940=PRODUCT_DEFINITION_FORMATION('',$,#949);
#941=PRODUCT_RELATED_PRODUCT_CATEGORY('DO-35_P12.70-D0.53 v2',
'DO-35_P12.70-D0.53 v2',(#947));
#942=PRODUCT_RELATED_PRODUCT_CATEGORY('Body','Body',(#948));
#943=PRODUCT_RELATED_PRODUCT_CATEGORY('Pins','Pins',(#949));
#944=APPLICATION_PROTOCOL_DEFINITION('international standard',
'automotive_design',2009,#945);
#945=APPLICATION_CONTEXT(
'Core Data for Automotive Mechanical Design Process');
#946=PRODUCT_CONTEXT('part definition',#945,'mechanical');
#947=PRODUCT('DO-35_P12.70-D0.53','DO-35_P12.70-D0.53 v2',$,(#946));
#948=PRODUCT('Body','Body',$,(#946));
#949=PRODUCT('Pins','Pins',$,(#946));
#950=PRESENTATION_STYLE_ASSIGNMENT((#956));
#951=PRESENTATION_STYLE_ASSIGNMENT((#957));
#952=PRESENTATION_STYLE_ASSIGNMENT((#958));
#953=PRESENTATION_STYLE_ASSIGNMENT((#959));
#954=PRESENTATION_STYLE_ASSIGNMENT((#960));
#955=PRESENTATION_STYLE_ASSIGNMENT((#961));
#956=SURFACE_STYLE_USAGE(.BOTH.,#962);
#957=SURFACE_STYLE_USAGE(.BOTH.,#963);
#958=SURFACE_STYLE_USAGE(.BOTH.,#964);
#959=SURFACE_STYLE_USAGE(.BOTH.,#965);
#960=SURFACE_STYLE_USAGE(.BOTH.,#966);
#961=SURFACE_STYLE_USAGE(.BOTH.,#967);
#962=SURFACE_SIDE_STYLE('',(#968));
#963=SURFACE_SIDE_STYLE('',(#969));
#964=SURFACE_SIDE_STYLE('',(#970));
#965=SURFACE_SIDE_STYLE('',(#971));
#966=SURFACE_SIDE_STYLE('',(#972));
#967=SURFACE_SIDE_STYLE('',(#973));
#968=SURFACE_STYLE_FILL_AREA(#974);
#969=SURFACE_STYLE_FILL_AREA(#975);
#970=SURFACE_STYLE_FILL_AREA(#976);
#971=SURFACE_STYLE_FILL_AREA(#977);
#972=SURFACE_STYLE_FILL_AREA(#978);
#973=SURFACE_STYLE_FILL_AREA(#979);
#974=FILL_AREA_STYLE('Steel - Satin',(#980));
#975=FILL_AREA_STYLE('Diode Orange',(#981));
#976=FILL_AREA_STYLE('Diode Orange Clear',(#982));
#977=FILL_AREA_STYLE('Silver - Polished',(#983));
#978=FILL_AREA_STYLE('Black',(#984));
#979=FILL_AREA_STYLE('Aluminum - Satin',(#985));
#980=FILL_AREA_STYLE_COLOUR('Steel - Satin',#986);
#981=FILL_AREA_STYLE_COLOUR('Diode Orange',#987);
#982=FILL_AREA_STYLE_COLOUR('Diode Orange Clear',#988);
#983=FILL_AREA_STYLE_COLOUR('Silver - Polished',#989);
#984=FILL_AREA_STYLE_COLOUR('Black',#990);
#985=FILL_AREA_STYLE_COLOUR('Aluminum - Satin',#991);
#986=COLOUR_RGB('Steel - Satin',0.627450980392157,0.627450980392157,0.627450980392157);
#987=COLOUR_RGB('Diode Orange',0.764705882352941,0.349019607843137,0.254901960784314);
#988=COLOUR_RGB('Diode Orange Clear',0.745098039215686,0.333333333333333,
0.235294117647059);
#989=COLOUR_RGB('Silver - Polished',0.83921568627451,0.83921568627451,0.843137254901961);
#990=COLOUR_RGB('Black',0.247058823529412,0.247058823529412,0.247058823529412);
#991=COLOUR_RGB('Aluminum - Satin',0.96078431372549,0.96078431372549,0.964705882352941);
ENDSEC;
END-ISO-10303-21;
